<svg width="231" height="183" viewBox="0 0 231 183" fill="none" xmlns="http://www.w3.org/2000/svg">
<g clip-path="url(#clip0_7_107)" filter="url(#filter0_d_7_107)">
<path opacity="0.1" d="M74.4089 6.17582C80.4647 0.757673 89.9737 -0.339277 98.6423 0.077023C125.847 1.43416 150.405 14.6059 171.647 29.5073C179.338 34.9005 186.909 40.7141 191.9 48.143C202.069 63.2651 199.048 84.2133 184.919 96.6711C180.111 100.909 174.283 104.164 168.3 107.039C157.662 112.16 146.183 116.271 134.109 117.447C125.501 118.279 116.785 117.603 108.224 116.439C84.3102 113.186 60.8364 105.992 41.1604 93.6862C32.5313 88.2889 24.394 81.5781 20.8411 72.8463C17.2882 64.1144 19.5606 53.0491 28.3724 47.8807C32.0166 45.743 36.3748 44.7772 40.6395 43.8697C46.9194 42.5355 53.2989 41.2199 58.9645 38.5078C64.8189 35.7061 71.7484 30.2879 70.5862 24.085C69.3452 17.4305 68.349 11.5877 74.4089 6.17582Z" fill="#FF00F5"/>
<path opacity="0.1" d="M99.6571 172.885C114.917 172.885 127.288 169.001 127.288 164.21C127.288 159.418 114.917 155.534 99.6571 155.534C84.3971 155.534 72.0265 159.418 72.0265 164.21C72.0265 169.001 84.3971 172.885 99.6571 172.885Z" fill="#FF00F5"/>
<path d="M156.317 74.9839L157.32 128.42L159.451 128.672L158.648 74.7716L156.317 74.9839Z" fill="#F5C5CC"/>
<path d="M151.164 73.9786L152.167 127.415L154.298 127.667L153.495 73.7663L151.164 73.9786Z" fill="#F5C5CC"/>
<path d="M152.424 71.1852L152.528 129.467L154.707 129.259L153.877 70.0404L152.424 71.1852Z" fill="#CC929B"/>
<path d="M92.3168 61.4542L93.2361 109.893L95.3675 110.118L94.6494 61.2585L92.3168 61.4542Z" fill="#F5C5CC"/>
<path d="M93.5474 60.5488L94.6017 110.963L95.3675 110.118L94.6494 61.2586L93.5474 60.5488Z" fill="#CC929B"/>
<path d="M96.8513 62.6802L97.7706 111.117L99.902 111.342L99.1839 62.4846L96.8513 62.6802Z" fill="#F5C5CC"/>
<path d="M98.082 61.7726L99.1383 112.187L99.902 111.341L99.184 62.4845L98.082 61.7726Z" fill="#CC929B"/>
<path d="M101.284 64.0082L102.203 112.447L104.335 112.672L103.617 63.8146L101.284 64.0082Z" fill="#F5C5CC"/>
<path d="M102.515 63.1049L103.571 113.517L104.335 112.672L103.617 63.8146L102.515 63.1049Z" fill="#CC929B"/>
<path d="M105.597 64.2788L106.543 114.418L108.674 114.651L107.927 64.079L105.597 64.2788Z" fill="#F5C5CC"/>
<path d="M106.825 63.3421L107.911 115.525L108.674 114.651L107.927 64.079L106.825 63.3421Z" fill="#CC929B"/>
<path d="M110.272 64.6701L111.221 114.807L113.352 115.04L112.605 64.4682L110.272 64.6701Z" fill="#F5C5CC"/>
<path d="M111.503 63.7335L112.588 115.915L113.352 115.04L112.605 64.4682L111.503 63.7335Z" fill="#CC929B"/>
<path d="M114.867 66.3082L115.813 116.447L117.945 116.681L117.2 66.1084L114.867 66.3082Z" fill="#F5C5CC"/>
<path d="M116.096 65.3716L117.181 117.555L117.945 116.681L117.2 66.1084L116.096 65.3716Z" fill="#CC929B"/>
<path d="M120.126 67.3906L121.097 118.929L123.228 119.168L122.459 67.1846L120.126 67.3906Z" fill="#F5C5CC"/>
<path d="M121.354 66.429L122.465 120.067L123.228 119.168L122.459 67.1845L121.354 66.429Z" fill="#CC929B"/>
<path d="M124.702 67.9381L125.671 119.476L127.804 119.715L127.032 67.732L124.702 67.9381Z" fill="#F5C5CC"/>
<path d="M125.93 66.9744L127.041 120.615L127.804 119.715L127.032 67.732L125.93 66.9744Z" fill="#CC929B"/>
<path d="M129.55 69.3118L130.521 120.85L132.652 121.091L131.882 69.1078L129.55 69.3118Z" fill="#F5C5CC"/>
<path d="M130.78 68.3502L131.889 121.99L132.652 121.091L131.882 69.1079L130.78 68.3502Z" fill="#CC929B"/>
<path d="M88.1641 61.3689L88.0603 58.3007L89.1395 57.7096L166.536 73.631L166.679 77.5255L88.1641 61.3689Z" fill="#F5C5CC"/>
<path d="M89.1395 57.7096L166.82 73.6185L166.741 75.0776L88.2201 58.2112" fill="#CC929B"/>
<path d="M92.3437 137.727L90.1647 138.522H88.0894L87.9856 56.3982L89.127 54.808L90.229 54.4832L91.6174 54.273L92.3437 137.727Z" fill="#F5C5CC"/>
<path d="M92.3438 137.727L90.1647 138.522L90.0298 56.5606L90.229 54.4832L91.6174 54.273L92.3438 137.727Z" fill="#CC929B"/>
<path d="M134.817 70.8376L135.788 122.373L137.92 122.615L137.15 70.6315L134.817 70.8376Z" fill="#F5C5CC"/>
<path d="M136.046 69.8738L137.156 123.514L137.92 122.615L137.15 70.6315L136.046 69.8738Z" fill="#CC929B"/>
<path d="M140.123 71.6514L141.113 124.29L143.245 124.536L142.454 71.4433L140.123 71.6514Z" fill="#F5C5CC"/>
<path d="M145.588 72.6152L146.59 126.051L148.721 126.303L147.92 72.4029L145.588 72.6152Z" fill="#F5C5CC"/>
<path d="M146.816 71.6182L147.96 127.236L148.721 126.303L147.92 72.4029L146.816 71.6182Z" fill="#CC929B"/>
<path d="M62.148 121.974L59.9689 122.182L59.8673 64.693L59.8652 63.9L61.3179 62.7551L61.3407 64.3496L62.148 121.974Z" fill="#F5C5CC"/>
<path d="M69.8267 118.747L67.6476 118.956L67.5459 62.4054L67.5438 60.6736L68.9965 59.5288L69.0297 61.8518L69.8267 118.747Z" fill="#F5C5CC"/>
<path d="M82.486 113.544L80.307 113.752L80.2073 57.9157L80.2032 55.4699L81.6559 54.3251L81.7016 57.5681L82.486 113.544Z" fill="#F5C5CC"/>
<path d="M87.9856 111.462L85.8065 111.67L85.7089 57.1975L85.7027 53.3884L87.1554 52.2435L87.2301 57.5347L87.9856 111.462Z" fill="#F5C5CC"/>
<path d="M65.9873 121.349L63.8082 121.557L63.7045 63.6918V63.2755L65.1572 62.1307L65.1717 63.2276L65.9873 121.349Z" fill="#F5C5CC"/>
<path d="M77.194 116.146L75.0149 116.354L74.9132 59.5788L74.9111 58.0718L76.3638 56.9269L76.3929 59.0626L77.194 116.146Z" fill="#F5C5CC"/>
<path d="M73.5622 117.186L71.3831 117.394L71.2835 60.9629L71.2794 59.1125L72.7321 57.9677L72.7653 60.378L73.5622 117.186Z" fill="#F5C5CC"/>
<path d="M59.8237 112.37L59.3049 113.463C59.3049 113.463 57.9559 115.492 58.1116 118.614C58.2672 121.737 55.9387 130.01 55.9387 130.01C55.9387 130.01 58.0659 130.999 59.6743 130.895C61.2826 130.791 64.7588 132.508 64.7588 132.508L71.9642 134.75L86.5433 138.185C86.5433 138.185 95.1039 142.972 97.4386 142.972C99.7734 142.972 109.06 146.146 109.06 146.146C109.06 146.146 121.616 148.904 122.602 149.945C123.588 150.986 127.744 152.387 128.159 152.443C128.574 152.499 134.904 153.119 134.904 153.119C134.904 153.119 142.272 154.837 143.309 153.015C143.914 151.991 144.319 150.861 144.502 149.685C144.502 149.685 147.771 150.413 148.653 149.321C149.535 148.228 149.587 145.886 150.625 145.99C151.662 146.094 155.917 147.395 156.384 146.927C156.851 146.458 159.341 140.943 161.105 141.775C162.869 142.608 165.93 143.909 165.93 143.909L164.166 125.904L163.388 120.96C163.388 120.96 135.112 132.512 134.126 132.512C133.14 132.512 59.8237 112.37 59.8237 112.37Z" fill="#FF00F5"/>
<path d="M163.232 96.6024L163.076 121.997L133.705 133.293L59.3049 113.467C59.3049 113.467 54.2722 106.338 58.9417 99.6768C58.9417 99.6768 52.9233 91.3508 60.3944 85.9389L60.5791 85.8952L88.8261 79.0699L101.388 81.3721L156.892 91.5548C156.892 91.5548 162.344 93.5842 163.232 96.6024Z" fill="#FF00F5"/>
<path opacity="0.1" d="M100.396 83.8012C98.9951 84.5297 88.8261 87.1836 86.8027 88.7968C84.7793 90.41 70.7709 91.663 70.7709 91.663L69.2145 91.9753C69.2145 91.9753 69.3182 90.9345 63.1442 87.9163C62.1578 87.4296 61.284 86.7411 60.5791 85.8952L88.8261 79.0699L101.388 81.3721C101.405 82.3691 101.234 83.3641 100.396 83.8012Z" fill="black"/>
<path d="M57.6965 73.7621C57.6965 73.7621 57.1776 83.8573 63.3517 86.8755C69.5257 89.8937 69.4282 90.9303 69.4282 90.9303L70.9847 90.618C70.9847 90.618 65.5889 84.5817 65.952 83.541C66.3152 82.5002 61.127 77.2444 60.3944 77.0363C59.6618 76.8281 57.6965 73.7621 57.6965 73.7621Z" fill="#FF00F5"/>
<path opacity="0.1" d="M57.8065 73.9141C57.8065 73.9141 57.2876 84.0093 63.4617 87.0275C69.6357 90.0457 69.5319 91.0864 69.5319 91.0864L71.0884 90.7742C71.0884 90.7742 65.6926 84.7379 66.0558 83.6971C66.419 82.6564 61.2245 77.4006 60.5044 77.1924C59.7842 76.9843 57.8065 73.9141 57.8065 73.9141Z" fill="black"/>
<path opacity="0.1" d="M59.2592 78.1812C59.2592 78.1812 64.2399 85.7266 65.1219 85.9868C66.0039 86.247 60.4462 78.2852 59.2592 78.1812Z" fill="black"/>
<path d="M56.9764 72.353C56.9764 72.353 60.1931 69.7511 60.6082 69.2307C61.0232 68.7103 65.5889 68.5022 65.7445 68.5022C65.9002 68.5022 69.3763 66.3686 73.2675 65.6922C77.1587 65.0157 78.7152 64.7035 78.7152 64.7035C78.7152 64.7035 84.4223 62.3097 84.7336 61.7894C85.0449 61.269 87.6909 60.6966 90.9595 63.2464C94.2281 65.7962 101.44 77.2445 101.492 78.4934C101.544 79.7423 102.011 82.0319 100.61 82.7604C99.2089 83.489 89.0399 86.1429 87.0164 87.756C84.993 89.3692 70.9785 90.6223 70.9785 90.6223L65.6927 84.8419L62.891 80.3147L58.2216 75.3711L56.9764 72.353Z" fill="#FF00F5"/>
<path opacity="0.1" d="M65.6511 117.297C65.6511 117.297 63.7149 117.713 64.821 118.822C65.9271 119.932 65.6511 117.297 65.6511 117.297Z" fill="black"/>
<path opacity="0.1" d="M72.4311 119.518C72.4311 119.518 70.3558 122.015 70.7709 122.709C71.1859 123.402 72.4311 119.518 72.4311 119.518Z" fill="black"/>
<path opacity="0.1" d="M84.607 122.709C84.607 122.709 82.5317 125.206 82.9467 125.899C83.3618 126.593 84.607 122.709 84.607 122.709Z" fill="black"/>
<path opacity="0.1" d="M99.4101 126.872C99.4101 126.872 97.3348 129.369 97.7499 130.063C98.165 130.756 99.4101 126.872 99.4101 126.872Z" fill="black"/>
<path opacity="0.1" d="M119.333 131.867C119.333 131.867 117.258 134.365 117.673 135.058C118.088 135.751 119.333 131.867 119.333 131.867Z" fill="black"/>
<path opacity="0.1" d="M78.3811 120.211C78.3811 120.211 76.3058 122.709 76.7208 123.402C77.1359 124.095 78.3811 120.211 78.3811 120.211Z" fill="black"/>
<path opacity="0.1" d="M107.296 128.953C107.296 128.953 105.221 131.451 105.636 132.144C106.051 132.837 107.296 128.953 107.296 128.953Z" fill="black"/>
<path opacity="0.1" d="M113.383 130.895C113.383 130.895 111.308 133.393 111.723 134.088C112.138 134.783 113.383 130.895 113.383 130.895Z" fill="black"/>
<path opacity="0.1" d="M90.0028 124.374C90.0028 124.374 87.9275 126.872 88.3425 127.565C88.7576 128.258 90.0028 124.374 90.0028 124.374Z" fill="black"/>
<path opacity="0.1" d="M142.301 139.5L144.496 149.681C144.496 149.681 144.513 142.551 142.301 139.5Z" fill="black"/>
<path opacity="0.1" d="M149.078 141.026L150.618 145.99C150.618 145.99 150.463 144.079 149.078 141.026Z" fill="black"/>
<path opacity="0.1" d="M156.384 146.923C156.384 146.923 153.098 134.921 152.405 134.088C151.712 133.256 154.406 146.161 156.384 146.923Z" fill="black"/>
<path opacity="0.1" d="M160.285 141.303C160.285 141.303 156.413 134.504 157.934 133.256C159.455 132.007 160.285 141.303 160.285 141.303Z" fill="black"/>
<path opacity="0.1" d="M58.9417 99.6726L134.136 116.604L163.054 108.138L133.86 115.771C133.86 115.771 61.2245 98.9795 58.9417 99.6726Z" fill="black"/>
<path d="M61.2141 81.2805L61.3179 129.727L63.4451 129.988L63.5488 81.1244L61.2141 81.2805Z" fill="#F5C5CC"/>
<path d="M62.4593 80.3958L62.6668 130.82L63.4451 129.988L63.5488 81.1243L62.4593 80.3958Z" fill="#CC929B"/>
<path d="M65.7279 82.5814L65.8317 131.028L67.9589 131.288L68.0626 82.4253L65.7279 82.5814Z" fill="#F5C5CC"/>
<path d="M66.9731 81.6968L67.1806 132.121L67.9589 131.289L68.0626 82.4253L66.9731 81.6968Z" fill="#CC929B"/>
<path d="M70.1379 83.9864L70.2417 132.433L72.3689 132.694L72.4727 83.8303L70.1379 83.9864Z" fill="#F5C5CC"/>
<path d="M71.3831 83.1018L71.5906 133.526L72.3689 132.694L72.4727 83.8303L71.3831 83.1018Z" fill="#CC929B"/>
<path d="M74.4442 84.3299L74.548 134.477L76.6752 134.746L76.7789 84.1675L74.4442 84.3299Z" fill="#F5C5CC"/>
<path d="M75.6894 83.414L75.8969 135.608L76.6752 134.746L76.7789 84.1675L75.6894 83.414Z" fill="#CC929B"/>
<path d="M79.1136 84.7982L79.2174 134.946L81.3446 135.214L81.4484 84.6359L79.1136 84.7982Z" fill="#F5C5CC"/>
<path d="M80.3588 83.8823L80.5664 136.076L81.3446 135.214L81.4484 84.6358L80.3588 83.8823Z" fill="#CC929B"/>
<path d="M83.6793 86.5155L83.7831 136.663L85.9103 136.931L86.014 86.3531L83.6793 86.5155Z" fill="#F5C5CC"/>
<path d="M84.9245 85.5996L85.132 137.793L85.9103 136.931L86.014 86.3531L84.9245 85.5996Z" fill="#CC929B"/>
<path d="M90.1647 86.7444L90.3722 140.395L91.1504 139.508L91.2542 87.5187L90.1647 86.7444Z" fill="#CC929B"/>
<path d="M93.4852 88.3097L93.5889 139.856L95.7161 140.133L95.8199 88.1432L93.4852 88.3097Z" fill="#F5C5CC"/>
<path d="M94.7303 87.3689L94.9379 141.02L95.7161 140.133L95.8199 88.1432L94.7303 87.3689Z" fill="#CC929B"/>
<path d="M98.3102 89.7667L98.414 141.313L100.541 141.59L100.645 89.6002L98.3102 89.7667Z" fill="#F5C5CC"/>
<path d="M99.5554 88.8259L99.7629 142.477L100.541 141.59L100.645 89.6002L99.5554 88.8259Z" fill="#CC929B"/>
<path d="M103.55 91.38L103.654 142.926L105.781 143.203L105.885 91.2134L103.55 91.38Z" fill="#F5C5CC"/>
<path d="M104.796 90.439L105.003 144.09L105.781 143.203L105.885 91.2133L104.796 90.439Z" fill="#CC929B"/>
<path d="M108.842 92.2854L108.946 144.931L111.073 145.214L111.177 92.1147L108.842 92.2854Z" fill="#F5C5CC"/>
<path d="M110.088 91.3237L110.295 146.119L111.073 145.214L111.177 92.1147L110.088 91.3237Z" fill="#CC929B"/>
<path d="M114.29 93.3407L114.394 146.787L116.521 147.075L116.625 93.1679L114.29 93.3407Z" fill="#CC929B"/>
<path d="M119.842 94.7978L119.945 148.244L122.073 148.532L122.176 94.625L119.842 94.7978Z" fill="#F5C5CC"/>
<path d="M121.087 93.8215L121.294 149.45L122.073 148.532L122.176 94.625L121.087 93.8215Z" fill="#CC929B"/>
<path d="M124.978 95.8905L125.082 149.337L127.209 149.624L127.313 95.7178L124.978 95.8905Z" fill="#CC929B"/>
<path d="M58.4125 139.146L56.2334 139.979H54.1581L54.0543 63.5877L55.1957 61.9225L56.2977 61.5832L57.8936 61.0899L58.4125 139.146Z" fill="#F5C5CC"/>
<path d="M58.4125 139.146L56.2334 139.979L56.0985 63.7563L56.2977 61.5832L57.8937 61.0899L58.4125 139.146Z" fill="#CC929B"/>
<path d="M56.4409 142.372C57.8163 142.372 58.9313 141.254 58.9313 139.875C58.9313 138.495 57.8163 137.377 56.4409 137.377C55.0655 137.377 53.9506 138.495 53.9506 139.875C53.9506 141.254 55.0655 142.372 56.4409 142.372Z" fill="#40414D"/>
<path d="M169.856 150.84L167.677 151.635H165.602L165.498 67.6383L166.64 67.9214L167.742 67.5967L169.338 67.1263L169.856 150.84Z" fill="#F5C5CC"/>
<path d="M169.856 150.84L167.677 151.635L167.542 69.674L167.742 67.5967L169.338 67.1263L169.856 150.84Z" fill="#CC929B"/>
<path d="M139.661 135.087L137.482 135.295L137.382 79.1803L137.378 77.0134L138.831 75.8686L138.872 78.8597L139.661 135.087Z" fill="#F5C5CC"/>
<path d="M147.339 131.861L145.16 132.069L145.063 76.9905L145.057 73.7871L146.509 72.6423L146.563 76.4431L147.339 131.861Z" fill="#F5C5CC"/>
<path d="M159.999 126.657L157.82 126.865L157.722 71.9158L157.716 68.5833L159.169 67.4385L159.223 71.2913L159.999 126.657Z" fill="#F5C5CC"/>
<path d="M163.215 66.5018L163.319 124.784L165.498 124.576L164.668 65.357L163.215 66.5018Z" fill="#F5C5CC"/>
<path d="M143.5 134.463L141.321 134.671L141.221 78.2373L141.217 76.389L142.67 75.2441L142.705 77.7857L143.5 134.463Z" fill="#F5C5CC"/>
<path d="M151.075 130.3L148.896 130.508L148.798 75.5751L148.792 72.2259L150.245 71.0811L150.299 74.9694L151.075 130.3Z" fill="#F5C5CC"/>
<path d="M155.294 128.911L153.115 129.12L153.017 74.1867V73.8599L153.011 70.8376L154.464 69.6927L154.514 73.2438L154.518 73.581L155.294 128.911Z" fill="#F5C5CC"/>
<path d="M135.303 134.706L165.395 121.87L167.47 122.355L167.538 127.142L135.857 139.423L135.303 134.706Z" fill="#F5C5CC"/>
<path d="M165.395 121.87L135.303 134.706L167.358 122.328" fill="#CC929B"/>
<path d="M57.3396 127.906L133.227 151.011L133.088 154.757L57.0635 131.236L57.3396 127.906Z" fill="#F5C5CC"/>
<path d="M136.548 164.124L134.369 164.957H132.293L132.19 79.4071V78.9908L132.352 78.7536L133.331 77.3256L134.433 76.9864L136.029 76.493L136.046 79.4071L136.548 164.124Z" fill="#F5C5CC"/>
<path d="M136.548 164.124L134.369 164.957L134.234 79.1594L134.433 76.9864L136.029 76.493L136.548 164.124Z" fill="#CC929B"/>
<path opacity="0.1" d="M136.029 76.493L136.046 79.4071C135.445 79.4952 134.84 79.5521 134.234 79.5778C132.74 79.6361 132.19 79.4092 132.19 79.4092C132.19 79.3801 132.248 79.147 132.352 78.7577L133.331 77.3298L134.433 76.9905L136.029 76.493Z" fill="black"/>
<path opacity="0.1" d="M138.831 75.8686L138.872 78.8597C138.337 78.9846 137.84 79.0914 137.382 79.1803V77.0134L138.831 75.8686Z" fill="black"/>
<path opacity="0.1" d="M142.67 75.2441L142.705 77.7857C142.188 77.9501 141.692 78.1 141.221 78.2373V76.389L142.67 75.2441Z" fill="black"/>
<path opacity="0.1" d="M146.509 72.6423L146.563 76.4431C146.044 76.636 145.544 76.8185 145.063 76.9905V73.7871L146.509 72.6423Z" fill="black"/>
<path opacity="0.1" d="M150.245 71.0811L150.299 74.9694L149.103 75.4523L148.798 75.5751V72.2259L150.245 71.0811Z" fill="black"/>
<path opacity="0.1" d="M159.223 71.2914L157.722 71.9158V68.5854L159.175 67.4406L159.223 71.2914Z" fill="black"/>
<path opacity="0.1" d="M154.516 73.2438L153.019 73.8683V70.8459L154.472 69.7011L154.516 73.2438Z" fill="black"/>
<path d="M170.583 68.9996C170.583 68.9996 166.743 68.9996 165.706 68.6874C164.668 68.3752 162.489 69.6241 149.103 75.036C141.01 78.3102 136.517 79.0699 134.234 79.1595C132.74 79.2177 132.19 78.9909 132.19 78.9909C132.19 78.9909 134.923 66.4144 143.627 64.0644C144.597 63.7993 145.551 63.4775 146.484 63.1007L146.652 63.0362C147.383 62.7522 148.133 62.5192 148.896 62.3388C151.689 61.6957 153.684 60.4655 158.733 60.428C161.866 60.3754 164.923 61.3927 167.403 63.313C169.134 64.6785 170.626 66.5664 170.583 68.9996Z" fill="#CC929B"/>
<path d="M147.028 62.9633C136.257 67.6217 134.614 76.3286 134.234 79.1594C132.74 79.2177 132.19 78.9908 132.19 78.9908C132.19 78.9908 134.923 66.4144 143.627 64.0644C144.597 63.7992 145.551 63.4774 146.484 63.1006L146.652 63.0361C146.777 63.0174 146.901 62.9924 147.028 62.9633Z" fill="#F5C5CC"/>
<path opacity="0.1" d="M61.3179 62.7551L61.3407 64.3496C60.8157 64.4807 60.3259 64.5952 59.8672 64.693V63.9L61.3179 62.7551Z" fill="black"/>
<path opacity="0.1" d="M65.1572 62.1307L65.1717 63.2276C64.6612 63.3969 64.1721 63.5516 63.7045 63.6918V63.2755L65.1572 62.1307Z" fill="black"/>
<path opacity="0.1" d="M68.9966 59.5288L69.0298 61.8518C68.5192 62.0474 68.0246 62.232 67.5459 62.4054V60.6736L68.9966 59.5288Z" fill="black"/>
<path opacity="0.1" d="M72.7321 57.9677L72.7653 60.378C72.288 60.5626 71.794 60.7576 71.2835 60.9629V59.1125L72.7321 57.9677Z" fill="black"/>
<path opacity="0.1" d="M76.3638 56.9269L76.3929 59.0626C75.9225 59.2208 75.4293 59.3928 74.9132 59.5788V58.0718L76.3638 56.9269Z" fill="black"/>
<path opacity="0.1" d="M81.6559 54.3251L81.7016 57.5681C81.2429 57.6638 80.7469 57.7762 80.2073 57.9157V55.4699L81.6559 54.3251Z" fill="black"/>
<path opacity="0.1" d="M87.2302 57.5264C86.7417 57.3418 86.2295 57.2283 85.709 57.1892V53.3801L87.1617 52.2352L87.2302 57.5264Z" fill="black"/>
<path d="M92.4475 57.5514C92.4475 57.5514 88.6082 57.5514 87.5705 57.2392C86.5329 56.927 84.3538 55.2618 70.9681 60.6737C62.8744 63.9479 58.3813 64.7076 56.0985 64.7971C54.6043 64.8554 54.0543 64.6285 54.0543 64.6285C54.0543 64.6285 56.1151 53.7006 65.2029 51.8564C65.71 51.7573 66.211 51.6287 66.7033 51.4713C67.2616 51.2882 68.1415 51.0259 69.3244 50.7532C72.3751 50.0497 77.4326 49.2774 84.1546 49.6042C86.4844 49.6917 88.6941 50.6634 90.3369 52.3227C91.0242 53.0048 91.5659 53.8202 91.9287 54.7192C92.2916 55.6181 92.4681 56.5818 92.4475 57.5514Z" fill="#CC929B"/>
<path d="M69.3244 50.7532C58.5536 55.4116 56.4783 61.9663 56.0985 64.7971C54.6043 64.8554 54.0543 64.6285 54.0543 64.6285C54.0543 64.6285 56.1151 53.7006 65.2029 51.8564C65.71 51.7573 66.211 51.6287 66.7033 51.4714C67.2616 51.2819 68.1415 51.0259 69.3244 50.7532Z" fill="#F5C5CC"/>
<path d="M57.0635 81.1244L57.0117 78.0542L58.1012 77.4818L132.605 94.2378L132.397 98.1406L57.0635 81.1244Z" fill="#F5C5CC"/>
<path d="M58.1012 77.4818L132.605 94.2378L132.501 95.6949L57.1735 77.9688" fill="#CC929B"/>
<path d="M167.677 154.133C169.053 154.133 170.168 153.015 170.168 151.635C170.168 150.256 169.053 149.137 167.677 149.137C166.302 149.137 165.187 150.256 165.187 151.635C165.187 153.015 166.302 154.133 167.677 154.133Z" fill="#40414D"/>
<path d="M134.68 168.287C136.055 168.287 137.17 167.169 137.17 165.789C137.17 164.41 136.055 163.292 134.68 163.292C133.305 163.292 132.19 164.41 132.19 165.789C132.19 167.169 133.305 168.287 134.68 168.287Z" fill="#40414D"/>
<path d="M59.9005 114.445C59.9005 114.445 57.6861 116.943 56.995 119.164C56.304 121.385 57.8252 129.711 57.8252 129.711C58.605 128.325 59.1651 126.827 59.4854 125.269C60.0374 122.634 59.9005 114.445 59.9005 114.445Z" fill="#FF00F5"/>
<path d="M164.979 135.191C164.979 135.191 166.328 142.06 166.432 143.101C166.536 144.142 163.008 142.581 163.008 142.581L164.979 135.191Z" fill="#FF00F5"/>
<path d="M124.096 50.2016H124.061C124.052 50.1309 124.026 50.0635 123.984 50.0059C123.889 49.8948 123.772 49.8054 123.639 49.7437L122.666 49.2004L123.507 49.5064C123.467 49.4385 123.423 49.3731 123.376 49.3107L123.473 49.3648L123.407 49.2712L123.318 49.2399C122.869 48.7133 122.122 48.4948 121.398 48.5052H121.41C121.504 48.4927 121.599 48.4844 121.693 48.4781C121.485 48.4651 121.277 48.4713 121.07 48.4969C121.093 48.5069 121.118 48.5139 121.143 48.5177C121.076 48.5177 121.01 48.5302 120.935 48.5385C120.829 48.5675 120.716 48.5675 120.609 48.5385C120.544 48.5049 120.487 48.4564 120.443 48.3967C120.399 48.3371 120.37 48.268 120.358 48.195C120.255 47.7787 120.418 47.3312 120.466 46.8962C120.49 46.692 120.468 46.4851 120.402 46.2905C120.402 46.2488 120.402 46.2072 120.402 46.1656C120.368 46.0735 120.312 45.9908 120.24 45.9242C120.168 45.8577 120.081 45.8091 119.987 45.7826C119.986 45.7985 119.986 45.8145 119.987 45.8305L119.952 45.8159C119.952 46.1885 119.952 46.5631 119.952 46.9357C119.629 46.6808 119.344 46.3824 119.103 46.049C119.06 45.9983 119.03 45.9374 119.018 45.8721C118.997 45.6827 119.238 45.5515 119.252 45.36C119.251 45.2985 119.231 45.2389 119.193 45.1901C119.156 45.1414 119.104 45.106 119.045 45.0894L119.107 45.0665C119.033 45.0322 118.951 45.0179 118.87 45.0249C118.693 45.0656 118.518 45.1184 118.347 45.1831L118.401 45.1935C118.361 45.2068 118.32 45.2179 118.279 45.2268C117.758 45.3351 117.293 44.9188 116.917 44.542L116.837 44.4608C116.658 42.8935 116.37 41.0971 116.37 41.0971C116.37 41.0971 116.11 39.0448 115.747 37.9416C115.384 36.8384 114.861 34.8901 114.861 34.8901C114.861 34.8901 113.665 32.5234 113.408 32.4194C113.308 32.3691 113.21 32.3135 113.115 32.2528C113.003 31.8989 112.934 31.5327 112.908 31.1621C112.844 29.0931 115.048 27.6236 115.38 25.5733C115.652 23.9081 114.606 22.2429 114.757 20.5548C114.828 19.8159 115.124 19.1206 115.284 18.3963C115.436 17.6936 115.456 16.9688 115.344 16.2586C115.292 15.8767 115.177 15.5062 115.004 15.1616C115.306 14.7707 115.557 14.3435 115.753 13.8898C116.089 12.9282 115.726 11.8541 115.201 10.9757C113.514 8.18029 110.096 5.98014 106.9 5.69498C105.611 5.57633 104.318 5.55343 103.027 5.53262C101.546 5.50556 100.014 5.48891 98.6444 6.0634C95.9216 7.20614 94.6328 10.2597 92.9788 12.7242C91.6125 14.7625 89.8628 16.5138 87.8279 17.8801C86.8712 18.5212 85.7526 19.2039 85.5284 20.3425C85.5071 20.4517 85.4939 20.5623 85.489 20.6734C85.461 20.5734 85.4382 20.472 85.4205 20.3695C85.1943 21.5581 86.0307 22.6592 86.4582 23.7936C86.6815 24.3865 86.8104 25.011 86.84 25.6441C86.8566 25.3446 86.8566 25.0444 86.84 24.7449C87.2551 26.9055 86.4935 29.2242 86.0224 31.4327C85.9871 31.5951 85.9601 31.7574 85.9269 31.9198C85.5403 32.0279 85.1722 32.1943 84.8353 32.4131C84.0963 32.9064 83.2594 33.2331 82.3823 33.3706C81.2056 33.5559 80.1472 34.1935 79.4312 35.1482C79.2984 35.3272 79.1697 35.45 79.0576 35.4625C78.5907 35.5166 75.9882 43.6678 75.9882 43.6678C75.9882 43.6678 75.4466 47.0252 75.4466 47.812C75.4466 48.5988 74.5106 54.2813 74.5106 54.2813C74.5106 54.2813 74.1973 55.3221 74.3031 55.753C74.3633 55.9923 74.2201 56.7937 74.0852 57.439C74.0287 57.4154 73.9788 57.3782 73.9399 57.3307C73.7843 57.0164 70.9203 57.3307 71.8065 59.4351C72.0268 60.0013 72.3691 60.5116 72.8089 60.9296C72.4146 61.9204 72.0721 62.8425 72.1178 62.9591C72.1178 62.9591 72.1178 63.7105 72.1842 64.6389C71.5761 65.0552 71.0781 65.4299 71.0781 65.4299C71.0345 66.5788 71.7982 66.762 72.5163 66.7204C72.701 67.3865 72.9708 67.9152 73.3671 68.0588C74.6684 68.5334 75.5005 68.3231 75.9177 68.6832C76.3348 69.0433 78.5596 69.7427 78.5596 69.7427C79.5044 69.8855 80.4563 69.9765 81.411 70.0154L81.7929 70.2069L81.7472 69.9987C81.8697 69.9759 81.8136 69.8301 81.6601 69.5824C81.5916 69.264 81.5044 68.8477 81.4069 68.3731L81.9776 68.1649L82.1332 68.396C81.9257 69.4867 81.7929 70.2131 81.7929 70.2131C81.7929 70.2131 80.7552 73.9473 81.2201 74.526C81.685 75.1047 81.2201 75.8415 81.2201 75.8415C81.2201 75.8415 81.1163 76.7865 81.3778 76.7865C81.6393 76.7865 81.9485 77.9959 81.6891 78.05C81.4297 78.1041 80.2364 79.1011 80.6515 79.3114C81.0665 79.5216 80.6515 79.9941 80.6515 80.4687C80.6515 80.8142 81.2865 81.3263 81.631 81.5781C81.5687 81.8029 81.5044 82.0423 81.4442 82.2775C81.2658 82.9727 81.1267 83.643 81.1703 83.8865C81.2741 84.4652 80.9109 86.095 81.0146 86.6216C81.1184 87.1482 81.4837 88.3035 81.2222 88.778C80.9607 89.2526 81.2741 90.8283 81.2741 90.8283L81.7431 95.2973C81.7431 95.2973 81.4318 96.5608 81.7431 96.8751C82.0544 97.1894 82.3159 100.874 82.6272 101.294C82.9385 101.715 83.4095 103.923 83.0422 104.66C82.6749 105.397 83.5112 106.92 83.5112 106.92C83.5112 106.92 83.4594 108.708 83.4594 109.181C83.4594 109.653 83.9263 110.39 83.9263 110.39C83.9263 110.39 84.3953 112.915 84.3414 113.546C84.2874 114.176 84.6527 115.072 84.6527 115.072C84.6527 115.072 84.966 116.912 84.9141 117.332C84.8623 117.753 85.3292 118.331 85.3292 118.331C85.3292 118.331 85.902 119.699 85.7443 120.277C85.5865 120.856 86.1074 121.435 86.1074 121.435C86.1074 121.435 86.0556 122.696 86.0556 122.854C86.0556 123.012 87.1493 124.274 87.1493 124.274C87.1493 124.274 86.6802 125.221 86.9417 125.589C87.2032 125.958 87.1493 127.271 87.5643 127.694C87.9794 128.116 87.8756 129.848 88.3944 130.164C88.9133 130.481 89.3823 130.743 89.486 131.426C89.5898 132.109 90.007 133.11 90.476 133.268C90.565 133.329 90.6423 133.406 90.7042 133.495L90.4967 134.38L89.8554 137.054C89.8554 137.054 89.2329 140.945 89.2827 141.523C89.3325 142.102 88.6601 142.681 88.6601 142.681C88.6601 142.681 88.0873 146.046 87.9835 146.467C87.8798 146.887 88.0354 147.676 88.0354 147.676C88.0354 147.676 87.6722 149.674 87.9316 149.781C88.1911 149.887 89.2847 150.99 89.2847 150.99H89.3698L89.2578 151.385L87.4626 157.776C87.4626 157.776 85.8024 160.563 89.65 161.982C89.7787 162.232 89.897 162.238 89.7579 162.19C89.8845 162.299 92.4558 164.48 92.6633 165.502C92.8709 166.524 94.6411 167.604 95.2658 167.711C95.8904 167.817 100.054 171.18 101.562 167.869C103.071 164.557 98.9079 162.399 98.9079 162.399L95.7389 160.352C95.7389 160.352 94.1264 157.986 93.8712 157.565C93.6159 157.145 93.1427 155.093 93.4561 154.778C93.6159 154.616 94.1161 153.175 94.5685 151.806C94.61 151.675 94.6536 151.546 94.6951 151.417C95.5791 151.625 96.5794 151.208 96.5794 151.208L98.8976 147.541L99.3126 146.898L99.3873 147.048C99.3873 147.048 101.313 147.206 102.249 147.364C102.547 147.376 102.844 147.339 103.129 147.254C103.164 147.331 103.2 147.41 103.233 147.489C103.46 147.976 103.653 148.479 103.81 148.994C103.965 149.676 104.123 152.095 104.123 152.095C104.123 152.095 103.086 155.567 102.822 156.198C102.558 156.828 103.081 162.088 108.234 159.984C108.234 159.984 108.857 158.985 109.43 158.985C110.003 158.985 111.408 157.565 110.882 156.04C110.357 154.514 108.185 149.835 109.687 147.364C110.899 145.374 110.802 142.706 109.172 141.465C109.104 141.413 109.031 141.367 108.965 141.321C108.983 141.057 108.983 140.791 108.965 140.526C108.6 135.479 106.267 135.214 106.267 135.214C106.267 135.214 104.914 134.9 104.758 134.382C104.667 134.078 103.494 132.508 102.523 131.232C102.556 131.178 102.587 131.124 102.619 131.07C102.619 131.051 102.639 131.032 102.648 131.014C102.693 130.928 102.737 130.841 102.778 130.749C103.534 129.047 103.339 126.57 103.299 126.126C103.247 125.548 103.299 124.811 103.299 123.97C103.299 123.129 104.129 121.866 104.028 121.393C103.926 120.921 105.018 118.974 105.018 118.5C105.018 118.025 105.783 115.184 105.783 115.184C105.783 115.184 107.292 111.922 107.606 110.975C107.904 110.068 113.234 93.5238 113.665 92.1834C113.673 92.1537 113.683 92.1245 113.694 92.0959C113.694 92.0959 115.396 86.5113 114.257 82.8437C114.183 82.6015 114.094 82.3645 113.989 82.1339C114.338 81.9653 114.579 81.8425 114.579 81.8425C114.579 81.8425 113.902 79.8442 114.213 79.1074C114.525 78.3705 114.317 76.951 114.317 76.951C114.317 76.951 113.072 76.2141 113.018 75.8998C112.964 75.5855 112.445 75.1629 112.603 74.7425C112.761 74.322 113.641 74.5343 113.539 73.5852C113.437 72.636 112.343 71.639 112.447 71.0603C112.551 70.4817 112.966 69.4305 112.447 68.7998C111.928 68.1691 111.719 67.17 111.667 66.3811C111.652 66.173 111.698 65.5589 111.771 64.7492C112.326 65.0954 112.898 65.4116 113.487 65.6963C113.487 65.6963 115.724 66.0127 115.83 65.8024C116.03 65.5345 116.257 65.2876 116.507 65.0656C119.317 64.3829 118.067 59.2374 118.067 59.2374C118.067 59.2374 118.026 58.8606 117.959 58.2404C118.03 58.2225 118.096 58.1906 118.154 58.1467C118.393 57.9718 118.451 57.6388 118.596 57.3765C118.762 57.1286 118.955 56.9008 119.173 56.698C119.688 56.136 119.993 55.4178 120.288 54.7122C120.475 54.2626 120.665 53.813 120.854 53.3613C121.043 52.9096 121.269 52.3705 121.684 52.0437C122.162 51.6587 122.809 51.5837 123.417 51.5275C123.393 51.0604 123.219 50.6137 122.921 50.2536C123.104 50.1975 123.297 50.1833 123.486 50.2121C123.675 50.241 123.855 50.3121 124.013 50.4202C124.021 50.406 124.029 50.3914 124.036 50.3764H124.048C124.083 50.3251 124.1 50.2636 124.096 50.2016ZM79.6574 64.6035C79.6698 64.4994 79.6885 64.3953 79.7113 64.2913C79.813 64.1955 79.9355 64.0831 80.0662 63.979L80.7926 64.0498C80.6141 64.1955 80.4585 64.3287 80.3319 64.437C80.1077 64.3225 79.8628 64.4349 79.6574 64.6035ZM81.1101 63.161C81.2129 63.1535 81.3142 63.1318 81.411 63.0965C81.5501 63.0965 81.6933 63.0965 81.8385 63.0965H82.0461C81.6995 63.34 81.3488 63.6106 81.0375 63.8625L81.1101 63.1777V63.161ZM82.3076 52.5454C82.3076 52.5454 82.2598 54.0399 82.3657 55.5427C82.2038 55.6572 82.0357 55.7821 81.8697 55.9132L82.237 52.4475L82.3076 52.5454Z" fill="url(#paint0_linear_7_107)"/>
<path d="M109.413 158.764C108.842 158.764 108.22 159.753 108.22 159.753C103.083 161.835 102.565 156.631 102.824 156.006C103.083 155.382 104.121 151.947 104.121 151.947C104.121 151.947 103.965 149.554 103.81 148.877C103.652 148.368 103.46 147.871 103.235 147.389C102.886 146.592 102.513 145.807 102.513 145.807C102.513 145.807 104.744 140.291 107.701 140.811C108.228 140.9 108.726 141.114 109.154 141.436C110.779 142.664 110.876 145.305 109.666 147.264C108.162 149.71 110.341 154.341 110.86 155.85C111.378 157.359 109.984 158.764 109.413 158.764Z" fill="#FDC2CC"/>
<path d="M101.579 167.559C100.074 170.837 95.9236 167.507 95.301 167.403C94.6784 167.298 92.9144 166.258 92.7069 165.217C92.4994 164.176 89.9322 162.047 89.8015 161.941C89.9405 161.984 89.8222 161.978 89.6936 161.733C85.8543 160.328 87.5145 157.57 87.5145 157.57L89.3034 151.246L89.7973 149.504L95.4007 149.139C95.4007 149.139 95.0167 150.37 94.5892 151.662C94.1389 153.017 93.6408 154.443 93.481 154.603C93.1697 154.916 93.6366 156.945 93.8961 157.361C94.1555 157.778 95.7638 160.119 95.7638 160.119L98.9287 162.149C98.9287 162.149 103.083 164.28 101.579 167.559Z" fill="#FDC2CC"/>
<path opacity="0.1" d="M95.4048 149.137C95.4048 149.137 95.0209 150.367 94.5934 151.66C94.3006 151.576 94.0407 151.404 93.8483 151.167L89.3345 151.271L89.3076 151.244L89.8015 149.502L95.4048 149.137Z" fill="black"/>
<path d="M113.667 92.5726C113.667 92.5726 113.667 92.6017 113.64 92.658C113.209 93.9839 107.896 110.351 107.597 111.254C107.286 112.191 105.781 115.417 105.781 115.417C105.781 115.417 105.003 118.227 105.003 118.695C105.003 119.164 103.914 121.089 104.017 121.557C104.121 122.026 103.291 123.275 103.291 124.107C103.291 124.94 103.239 125.668 103.291 126.241C103.33 126.68 103.523 129.132 102.77 130.82C102.606 131.213 102.362 131.567 102.054 131.861C101.97 131.937 101.881 132.007 101.786 132.069C99.9186 133.318 99.7629 146.119 99.7629 146.119L99.6758 146.257L98.9183 147.447L96.5981 151.069C96.5981 151.069 94.7303 151.85 93.8483 150.757L89.3345 150.861C89.3345 150.861 88.245 149.768 87.9856 149.664C87.7262 149.56 88.0893 147.582 88.0893 147.582C88.0893 147.582 87.9337 146.802 88.0375 146.386C88.1412 145.969 88.7119 142.639 88.7119 142.639C88.7119 142.639 89.3864 142.067 89.3345 141.494C89.2826 140.922 89.9052 137.071 89.9052 137.071L90.5444 134.425L90.8599 133.12L91.5136 130.414L95.9236 91.3341L101.527 89.6169L112.319 90.1373L113.501 92.2812L113.667 92.5726Z" fill="#5F5D7E"/>
<path opacity="0.1" d="M98.4659 111.774C98.414 112.763 98.1546 114.272 98.2583 115.157C98.3621 116.042 98.7253 119.372 98.5696 119.996C98.414 120.621 99.1403 121.349 99.3997 121.662C99.6592 121.974 99.5035 122.91 99.5554 123.639C99.6073 124.368 100.282 125.044 100.282 125.044C100.282 125.044 99.5035 126.709 100.074 126.969C100.645 127.23 101.838 129.623 101.838 129.623C101.838 129.623 102.239 130.129 102.77 130.816C102.567 131.317 102.226 131.751 101.786 132.065C99.9186 133.314 99.7629 146.115 99.7629 146.115L99.6758 146.252L98.5177 143.929C98.5177 143.929 91.6174 133.47 91.1504 133.314C91.0379 133.27 90.9381 133.198 90.8599 133.106L91.5136 130.4L95.9236 91.3195L101.527 89.6023L112.319 90.1227L106.636 90.6951C106.636 90.6951 104.111 92.5122 104.094 92.5684L99.5554 94.4938L98.7253 106.983C98.7253 106.983 98.5177 110.786 98.4659 111.774Z" fill="black"/>
<path opacity="0.1" d="M113.501 92.2708C113.358 92.8495 98.414 91.1156 98.414 91.1156L98.5177 95.1224L97.6876 107.611C97.6876 107.611 97.4801 111.41 97.4282 112.399C97.3763 113.388 97.1169 114.897 97.2207 115.781C97.3245 116.666 97.6876 119.996 97.532 120.621C97.3763 121.245 98.1027 121.974 98.3621 122.286C98.6215 122.598 98.4659 123.535 98.5177 124.263C98.5696 124.992 99.2441 125.668 99.2441 125.668C99.2441 125.668 98.4659 127.334 99.0366 127.594C99.6073 127.854 100.801 130.248 100.801 130.248C100.801 130.248 101.371 130.97 102.046 131.857C101.962 131.933 101.872 132.002 101.778 132.065C99.9103 133.314 99.7546 146.115 99.7546 146.115L99.6675 146.252L98.9183 147.447L97.4801 144.564C97.4801 144.564 92.1569 136.494 90.5444 134.425L90.8599 133.12L91.5136 130.414L95.9236 91.3341L101.527 89.6169L112.319 90.1373L113.501 92.2708Z" fill="black"/>
<path opacity="0.1" d="M109.16 141.427C108.952 145.153 105.038 146.977 103.235 147.389C102.886 146.592 102.513 145.807 102.513 145.807C102.513 145.807 104.744 140.291 107.701 140.811C108.23 140.896 108.73 141.108 109.16 141.427Z" fill="black"/>
<path d="M97.8433 111.774C97.7914 112.763 97.532 114.272 97.6358 115.157C97.7395 116.042 98.1027 119.372 97.9471 119.996C97.7914 120.621 98.5178 121.349 98.7772 121.662C99.0366 121.974 98.8809 122.911 98.9328 123.639C98.9847 124.368 99.6592 125.044 99.6592 125.044C99.6592 125.044 98.8809 126.709 99.4516 126.969C100.022 127.23 101.216 129.623 101.216 129.623C101.216 129.623 104.588 133.89 104.744 134.411C104.899 134.931 106.248 135.243 106.248 135.243C106.248 135.243 108.583 135.504 108.946 140.499C109.309 145.495 103.187 147.42 102.253 147.264C101.319 147.108 99.3998 146.952 99.3998 146.952L97.8952 143.934C97.8952 143.934 90.9948 133.474 90.5278 133.318C90.0609 133.162 89.6458 132.173 89.5421 131.497C89.4383 130.82 88.9714 130.56 88.4525 130.248C87.9337 129.936 88.0375 128.218 87.6224 127.802C87.2074 127.386 87.2592 126.085 86.9998 125.721C86.7404 125.356 87.2074 124.42 87.2074 124.42C87.2074 124.42 86.1178 123.171 86.1178 123.015C86.1178 122.858 86.1697 121.61 86.1697 121.61C86.1697 121.61 85.6509 121.037 85.8065 120.465C85.9622 119.892 85.3915 118.539 85.3915 118.539C85.3915 118.539 84.9245 117.967 84.9764 117.551C85.0283 117.134 84.717 115.313 84.717 115.313C84.717 115.313 84.3538 114.428 84.4057 113.804C84.4576 113.179 83.9906 110.682 83.9906 110.682C83.9906 110.682 83.5237 109.953 83.5237 109.485C83.5237 109.016 83.5756 107.247 83.5756 107.247C83.5756 107.247 82.7454 105.738 83.1086 105.01C83.4718 104.281 83.0049 102.095 82.6936 101.679C82.3823 101.263 82.1229 97.6203 81.8116 97.308C81.5003 96.9958 81.8116 95.7469 81.8116 95.7469L81.3446 91.3237C81.3446 91.3237 81.0333 89.7626 81.2927 89.2943C81.5521 88.8259 81.189 87.6811 81.0852 87.1607C80.9814 86.6404 81.3446 85.0272 81.2408 84.4548C81.1973 84.2133 81.3363 83.5514 81.5127 82.8624C81.7576 81.9133 82.071 80.9162 82.071 80.9162C82.071 80.9162 108.739 78.4184 112.578 81.0203C113.408 81.5781 113.921 82.4253 114.238 83.4161C115.373 87.0463 113.676 92.5747 113.676 92.5747L98.9411 94.5001L98.111 106.989C98.111 106.989 97.8952 110.786 97.8433 111.774Z" fill="#5F5D7E"/>
<path opacity="0.1" d="M93.5889 130.3C93.5889 130.3 98.2065 128.895 99.296 129.831C100.386 130.768 93.5889 130.3 93.5889 130.3Z" fill="black"/>
<path opacity="0.1" d="M95.2491 136.232C95.2491 136.232 96.65 134.723 98.7253 135.191C99.9427 135.476 101.22 135.348 102.357 134.827L95.2491 136.232Z" fill="black"/>
<path opacity="0.1" d="M100.126 137.949C100.126 137.949 103.914 137.429 104.069 137.897C104.225 138.366 100.126 137.949 100.126 137.949Z" fill="black"/>
<path opacity="0.1" d="M99.0366 141.02C99.0366 141.02 103.239 139.771 103.447 140.291C103.654 140.811 98.829 140.968 98.829 140.968L99.0366 141.02Z" fill="black"/>
<path opacity="0.1" d="M103.758 112.971C103.758 112.971 99.8148 116.458 100.386 116.822C100.956 117.186 103.758 112.971 103.758 112.971Z" fill="black"/>
<path opacity="0.1" d="M100.541 121.609C100.541 121.609 103.291 121.609 102.772 122.234C102.253 122.858 100.541 121.609 100.541 121.609Z" fill="black"/>
<path opacity="0.1" d="M102.201 124.055C102.201 124.055 101.112 124.992 101.371 125.2C101.631 125.408 102.201 124.055 102.201 124.055Z" fill="black"/>
<path opacity="0.1" d="M90.2166 146.379C90.2166 146.379 93.6408 147.524 93.6927 148.253C93.7446 148.981 90.2166 146.379 90.2166 146.379Z" fill="black"/>
<path d="M106.819 37.569L105.729 44.0737C105.729 44.0737 96.2868 49.0693 96.1312 49.0693C95.9755 49.0693 89.2308 47.9245 88.9714 47.9245C88.712 47.9245 84.3019 34.5508 87.4149 33.7182C88.2575 33.4934 89.4798 32.9522 90.8142 32.2799C94.4128 30.4753 98.8291 27.7339 98.8291 27.7339C98.8291 27.7339 105.418 27.0054 103.81 31.5847C103.187 33.381 103.507 34.6882 104.136 35.6145C105.123 37.0507 106.819 37.569 106.819 37.569Z" fill="#FDC2CC"/>
<path opacity="0.1" d="M106.819 37.569L105.729 44.0737C105.729 44.0737 96.2868 49.0693 96.1312 49.0693C95.9755 49.0693 89.2308 47.9245 88.9714 47.9245C88.712 47.9245 84.3019 34.5508 87.4149 33.7182C88.2575 33.4934 89.4798 32.9522 90.8142 32.2799C91.663 32.3361 92.24 32.4173 92.24 32.4173C92.24 32.4173 94.3153 40.379 94.4709 42.8248C94.6266 45.2705 100.022 45.5307 100.386 45.4267C100.749 45.3226 102.253 39.3383 102.253 39.3383C102.253 39.3383 102.098 37.2568 102.565 37.2568C102.955 37.2568 103.855 36.0079 104.136 35.6145C105.123 37.0507 106.819 37.569 106.819 37.569Z" fill="black"/>
<path opacity="0.1" d="M114.23 83.4161C113.508 83.77 111.781 84.5776 111.325 84.4569C110.754 84.3007 109.353 84.3007 109.353 84.3007C109.353 84.3007 108.523 85.2374 107.641 85.0293C106.759 84.8211 103.283 84.9772 103.283 84.9772C103.283 84.9772 97.0568 85.2374 95.8635 84.8211C94.6702 84.4048 90.4158 84.0406 90.4158 84.0406C90.4158 84.0406 84.6049 83.3641 83.6191 82.9478C83.3412 82.8261 83.0358 82.7813 82.7348 82.8179C82.4337 82.8545 82.1479 82.9712 81.907 83.1559C81.907 83.1559 81.7265 83.0373 81.5044 82.8645C81.7493 81.9153 82.0627 80.9183 82.0627 80.9183C82.0627 80.9183 108.73 78.4205 112.57 81.0224C113.4 81.5781 113.921 82.4253 114.23 83.4161Z" fill="black"/>
<path d="M92.24 32.8336C92.24 32.8336 86.9998 32.1051 84.9245 33.5101C84.1871 33.9986 83.3532 34.3216 82.4798 34.4571C81.3088 34.6392 80.2539 35.2697 79.537 36.216C79.4042 36.395 79.2755 36.5158 79.1655 36.5282C78.6986 36.5803 76.1044 44.6461 76.1044 44.6461L82.3822 53.4404C82.3822 53.4404 82.2266 58.3319 83.1086 59.2686C83.9906 60.2053 81.8634 70.925 81.8634 70.925C81.8634 70.925 80.8258 74.6197 81.2927 75.1921C81.7596 75.7645 81.2927 76.493 81.2927 76.493C81.2927 76.493 81.1889 77.4297 81.4483 77.4297C81.7078 77.4297 82.0191 78.6266 81.7596 78.6786C81.5002 78.7306 80.3069 79.7193 80.722 79.9275C81.1371 80.1357 80.722 80.604 80.722 81.0723C80.722 81.5407 81.9153 82.3212 81.9153 82.3212C82.1562 82.1365 82.442 82.0198 82.7431 81.9832C83.0441 81.9466 83.3495 81.9914 83.6274 82.1131C84.6132 82.5294 90.4241 83.2059 90.4241 83.2059C90.4241 83.2059 94.6784 83.5701 95.8717 83.9864C97.065 84.4027 103.291 84.1425 103.291 84.1425C103.291 84.1425 106.767 83.9864 107.649 84.1946C108.531 84.4027 109.361 83.466 109.361 83.466C109.361 83.466 110.762 83.466 111.333 83.6222C111.903 83.7783 114.55 82.4253 114.55 82.4253C114.55 82.4253 113.875 80.4479 114.186 79.7193C114.498 78.9908 114.29 77.5858 114.29 77.5858C114.29 77.5858 113.045 76.8573 112.993 76.5451C112.941 76.2328 112.422 75.8165 112.578 75.4002C112.734 74.9839 113.616 75.1921 113.512 74.2554C113.408 73.3187 112.319 72.33 112.422 71.7576C112.526 71.1852 112.941 70.1445 112.422 69.52C111.903 68.8956 111.696 67.9068 111.644 67.1263C111.592 66.3457 112.422 59.2686 112.422 59.2686L110.503 45.0104L116.365 42.0963C116.365 42.0963 116.106 40.0668 115.743 38.974C115.38 37.8812 114.861 35.9558 114.861 35.9558C114.861 35.9558 113.668 33.6141 113.408 33.5101C113.149 33.406 110.399 31.5847 109.776 31.8449C109.154 32.1051 104.225 35.9038 104.225 35.9038C104.225 35.9038 103.032 37.6731 102.565 37.6731C102.098 37.6731 102.253 39.7546 102.253 39.7546C102.253 39.7546 100.749 45.7389 100.386 45.843C100.022 45.947 94.6266 45.6868 94.4709 43.2411C94.3153 40.7953 92.24 32.8336 92.24 32.8336Z" fill="#D39999"/>
<path d="M84.1048 63.6002C83.385 63.759 82.652 63.8496 81.9153 63.8708C80.8507 63.9 79.9147 63.7647 79.6844 63.3796C79.0618 62.3388 79.0618 60.3614 79.0618 60.3614C79.0618 60.3614 81.8759 61.0129 83.8184 61.7248L84.1401 61.8455C84.8934 62.139 85.4662 62.4387 85.5928 62.701C85.7733 63.0528 85.0781 63.3817 84.1048 63.6002Z" fill="#FDC2CC"/>
<path opacity="0.1" d="M104.484 34.6549C109.728 34.6549 113.979 30.3914 113.979 25.1321C113.979 19.8727 109.728 15.6092 104.484 15.6092C99.2406 15.6092 94.9897 19.8727 94.9897 25.1321C94.9897 30.3914 99.2406 34.6549 104.484 34.6549Z" fill="black"/>
<path d="M104.484 34.2386C109.728 34.2386 113.979 29.9751 113.979 24.7157C113.979 19.4564 109.728 15.1929 104.484 15.1929C99.2406 15.1929 94.9897 19.4564 94.9897 24.7157C94.9897 29.9751 99.2406 34.2386 104.484 34.2386Z" fill="#FDC2CC"/>
<path opacity="0.1" d="M83.4718 76.1288C83.4718 76.1288 86.1697 76.1288 87.2074 76.389C88.245 76.6492 90.4241 76.7012 90.4241 76.7012C90.4241 76.7012 84.4057 76.493 83.4718 76.1288Z" fill="black"/>
<path opacity="0.1" d="M83.5756 77.7939C83.5756 77.7939 87.0517 78.0541 87.1036 78.5745C87.1555 79.0949 83.5756 77.7939 83.5756 77.7939Z" fill="black"/>
<path opacity="0.1" d="M110.036 71.3934C110.036 71.3934 112.163 72.1739 112.111 72.4341C112.059 72.6943 110.243 72.0178 110.036 71.3934Z" fill="black"/>
<path d="M77.4534 43.7094L76.1045 44.6461C76.1045 44.6461 75.5338 47.9765 75.5338 48.757C75.5338 49.5376 74.5999 55.1577 74.5999 55.1577C74.5999 55.1577 74.2886 56.1984 74.3923 56.6147C74.4961 57.031 73.9773 59.1645 73.9773 59.1645C73.9773 59.1645 72.1095 63.4837 72.2133 63.7438C72.317 64.004 81.0852 64.8366 81.0852 64.8366L82.3304 53.1802L77.4534 43.7094Z" fill="#D39999"/>
<path d="M73.5103 62.3388L72.2132 63.7438C72.2132 63.7438 72.1614 68.3231 73.4584 68.7915C74.7555 69.2598 75.5856 69.0516 76.0007 69.4159C76.4157 69.7802 78.6467 70.4567 78.6467 70.4567C78.6467 70.4567 81.0852 70.8209 81.8115 70.7168C82.5379 70.6128 77.5572 66.6059 80.8258 63.2234L73.5103 62.3388Z" fill="#D39999"/>
<path d="M114.55 40.0668L116.365 42.0962C116.365 42.0962 117.144 46.9357 116.936 47.6122C116.729 48.2887 118.026 60.0492 118.026 60.0492C118.026 60.0492 119.271 65.1488 116.469 65.8253C116.22 66.0447 115.994 66.2887 115.795 66.5539C115.691 66.762 113.46 66.4498 113.46 66.4498L110.036 43.9175L114.55 40.0668Z" fill="#D39999"/>
<path opacity="0.1" d="M89.8534 58.6962C89.8534 58.6962 96.65 54.6373 97.8952 54.4291C99.1403 54.221 106.871 50.5263 106.871 50.5263C106.871 50.5263 110.71 52.5037 111.073 54.0128C111.437 55.5219 109.465 61.5582 109.465 61.5582C109.465 61.5582 103.135 65.9814 102.772 66.9181C102.409 67.8548 96.9613 70.6128 96.9613 71.0811C96.9613 71.5494 88.3488 76.6491 84.5613 72.1739C80.7739 67.6987 80.8258 66.3977 80.8258 66.3977L90.4241 64.1601L91.358 59.9971L89.8534 58.6962Z" fill="black"/>
<path d="M89.8534 58.2799C89.8534 58.2799 96.65 54.221 97.8952 54.0129C99.1403 53.8047 106.871 50.11 106.871 50.11C106.871 50.11 110.71 52.0875 111.073 53.5966C111.437 55.1056 109.465 61.142 109.465 61.142C109.465 61.142 103.135 65.5652 102.772 66.5019C102.409 67.4385 96.9613 70.1965 96.9613 70.6649C96.9613 71.1332 88.3488 76.2329 84.5613 71.7576C80.7739 67.2824 80.8258 65.9815 80.8258 65.9815L90.4241 63.7439L91.358 59.5809L89.8534 58.2799Z" fill="#C4C8E2"/>
<path d="M79.3731 60.1012L79.0618 62.7031L76.5942 62.522L74.1848 62.343C74.1848 62.343 72.784 62.343 71.902 60.2615C71.02 58.18 73.8735 57.8678 74.0292 58.18C74.1475 58.4152 77.1421 59.3956 78.5948 59.8598L79.3731 60.1012Z" fill="#FDC2CC"/>
<path opacity="0.1" d="M79.3731 60.1012L79.0618 62.7031L76.5942 62.522C76.9968 61.9225 77.8394 60.8256 78.5969 59.8597L79.3731 60.1012Z" fill="black"/>
<path opacity="0.1" d="M79.0618 60.3614C79.0618 60.3614 81.8759 61.0129 83.8184 61.7248C83.6897 61.9329 82.8305 63.2817 81.9153 63.8708C80.8507 63.9 79.9147 63.7647 79.6844 63.3796C79.0618 62.3388 79.0618 60.3614 79.0618 60.3614Z" fill="black"/>
<path opacity="0.1" d="M84.1047 63.6002L84.0591 63.2401C84.0591 63.2401 84.0383 63.1631 84.0197 63.0465C83.9823 62.8092 83.9553 62.4096 84.1296 62.1661C84.2313 62.0224 84.2085 61.9204 84.1421 61.8476C84.8954 62.1411 85.4682 62.4408 85.5948 62.7031C85.7733 63.0528 85.0781 63.3817 84.1047 63.6002Z" fill="black"/>
<path d="M92.9145 61.8975C92.9145 61.8975 90.0962 64.7263 89.9219 65.332C89.7475 65.9377 84.4223 65.9565 84.4223 65.9565L84.0591 63.0424C84.0591 63.0424 84.0384 62.9653 84.0197 62.8488C83.9823 62.6115 83.9554 62.2118 84.1297 61.9683C84.3891 61.604 83.835 61.5 83.835 61.5C83.835 61.5 82.3989 63.875 81.189 63.9457C81.189 63.9457 79.5121 65.1592 79.5287 65.4028C79.5287 65.4028 78.7152 66.148 78.6986 67.0492C78.682 67.9505 77.6444 68.3169 76.8827 68.0567C76.1211 67.7965 74.2367 67.2407 73.6307 67.3282C73.0247 67.4156 71.1071 67.9859 71.1756 66.2C71.1756 66.2 73.666 64.3266 74.2886 64.3787C74.9112 64.4307 76.3639 63.7022 76.5714 63.1298C76.7789 62.5574 80.307 58.1862 80.307 58.1862C80.307 58.1862 82.5379 56.0693 83.4365 55.8612C83.4365 55.8612 85.2358 54.4562 87.9503 56.5897C87.9503 56.5897 91.7046 58.9127 91.8249 59.2249C91.9204 59.4705 93.0099 60.5196 93.1012 61.3064C93.1223 61.4127 93.1162 61.5227 93.0836 61.626C93.0509 61.7294 92.9927 61.8228 92.9145 61.8975Z" fill="#FDC2CC"/>
<path opacity="0.1" d="M84.111 57.7595C84.111 57.7595 84.387 59.356 84.25 59.9285C84.1131 60.5009 83.835 61.4896 83.835 61.4896C83.835 61.4896 85.5118 58.8523 84.111 57.7595Z" fill="black"/>
<path opacity="0.1" d="M84.2313 61.6457C84.2313 61.6457 85.0967 60.6903 85.2877 60.9338C85.4786 61.1774 84.2313 61.6457 84.2313 61.6457Z" fill="black"/>
<path d="M119.661 51.9064C119.661 53.2306 119.231 54.5187 118.435 55.5757C117.64 56.6326 116.523 57.4007 115.253 57.7637C114.722 57.9168 114.172 57.9953 113.62 57.9968H113.589C112.791 57.9966 112.002 57.8388 111.266 57.5326C110.529 57.2264 109.86 56.7777 109.297 56.2121C108.733 55.6466 108.286 54.9752 107.982 54.2364C107.677 53.4977 107.52 52.7059 107.52 51.9064C107.519 51.5489 107.551 51.1922 107.616 50.8406C107.853 49.5093 108.525 48.2951 109.527 47.3902C110.529 46.4854 111.804 45.9417 113.149 45.845C113.294 45.8325 113.441 45.8263 113.589 45.8263C115.197 45.8257 116.741 46.4658 117.879 47.6059C119.018 48.7459 119.659 50.2927 119.661 51.9064Z" fill="#F8BDC5"/>
<path d="M122.863 51.1591C123.16 51.5149 123.333 51.9575 123.357 52.4205C122.751 52.4767 122.112 52.5496 121.63 52.9305C121.215 53.2552 121.008 53.7631 120.8 54.2356C120.611 54.681 120.423 55.1264 120.236 55.5719C119.941 56.2692 119.638 56.9811 119.126 57.5368C118.908 57.7372 118.715 57.9621 118.549 58.2071C118.405 58.4672 118.341 58.7961 118.109 58.971C117.992 59.0427 117.859 59.0842 117.722 59.0918C117.585 59.0994 117.448 59.0729 117.324 59.0147C117.069 58.9189 116.841 58.7587 116.585 58.6567C116.421 58.5933 116.251 58.5487 116.077 58.5235C115.317 58.4111 114.481 58.5755 113.836 58.1654C113.761 58.1157 113.691 58.0585 113.628 57.9948C113.376 57.7469 113.193 57.4367 113.099 57.0955C113.051 56.9572 113.034 56.8102 113.049 56.6647C113.079 56.5315 113.137 56.4066 113.22 56.2987C113.304 56.1908 113.41 56.1025 113.531 56.0402C113.566 56.0194 113.601 55.9986 113.638 55.9799C114.261 55.6531 115.126 55.5761 115.452 54.9391C115.764 54.3355 115.378 53.6007 114.904 53.1136C114.68 52.8847 114.415 52.6245 114.446 52.3039C114.475 52.0209 114.726 51.8231 114.936 51.6337C115.529 51.0957 115.928 50.3765 116.073 49.5876C116.128 49.3438 116.124 49.0904 116.06 48.8486C115.996 48.6753 115.907 48.512 115.797 48.3637L115.124 47.3645C114.917 47.0119 114.633 46.7103 114.294 46.482C114.014 46.3134 113.692 46.2551 113.41 46.0886C113.303 46.0296 113.213 45.9435 113.149 45.8388C113.113 45.7802 113.101 45.7102 113.115 45.6431C113.151 45.4766 113.323 45.3954 113.495 45.3476C113.941 45.2178 114.407 45.1733 114.869 45.2164C115.015 45.2477 115.167 45.2477 115.313 45.2164C115.386 45.197 115.449 45.152 115.491 45.0897C115.534 45.0274 115.552 44.952 115.544 44.8771C116.054 44.7439 116.538 45.1436 116.911 45.5182C117.285 45.8929 117.741 46.303 118.268 46.1968C118.457 46.1593 118.632 46.0511 118.823 46.0303C119.013 46.0095 119.25 46.1344 119.238 46.3279C119.225 46.5215 118.984 46.6464 119.005 46.8338C119.018 46.8986 119.047 46.9589 119.09 47.0086C119.33 47.3393 119.614 47.635 119.935 47.887C119.935 47.5186 119.935 47.1481 119.935 46.7796C120.35 46.8837 120.501 47.4166 120.454 47.8474C120.406 48.2783 120.246 48.7133 120.346 49.1338C120.358 49.2058 120.387 49.274 120.431 49.3328C120.474 49.3917 120.53 49.4397 120.595 49.4731C120.702 49.5021 120.814 49.5021 120.921 49.4731C121.873 49.3378 122.986 49.5917 123.459 50.4306L122.629 50.1288L123.594 50.6575C123.726 50.7184 123.843 50.8072 123.938 50.9177C123.984 50.9738 124.011 51.043 124.016 51.1155C124.02 51.188 124.002 51.2601 123.963 51.3215C123.803 51.2138 123.622 51.1433 123.431 51.1152C123.241 51.0871 123.047 51.1021 122.863 51.1591Z" fill="#585268"/>
<g opacity="0.1">
<path opacity="0.1" d="M121.035 49.4252C121.141 49.4543 121.254 49.4543 121.361 49.4252C121.454 49.4128 121.547 49.4044 121.643 49.3982C121.435 49.385 121.227 49.3913 121.02 49.4169L121.035 49.4252Z" fill="black"/>
<path opacity="0.1" d="M123.06 50.0872L123.417 50.2849L123.351 50.1912L123.06 50.0872Z" fill="black"/>
<path opacity="0.1" d="M120.383 47.8391C120.383 47.5977 120.383 47.3541 120.383 47.1106C120.347 47.0199 120.291 46.9387 120.219 46.873C120.147 46.8074 120.061 46.7591 119.968 46.7318V47.4644C120.099 47.5979 120.237 47.723 120.383 47.8391Z" fill="black"/>
<path opacity="0.1" d="M123.475 51.0863C123.659 51.1178 123.833 51.1889 123.986 51.2944C124.022 51.2461 124.041 51.1864 124.038 51.1258C123.855 51.0722 123.664 51.0587 123.475 51.0863Z" fill="black"/>
<path opacity="0.1" d="M117.783 58.9835C117.528 58.8877 117.299 58.7275 117.044 58.6255C116.88 58.5622 116.709 58.5175 116.536 58.4923C115.776 58.3799 114.94 58.5443 114.294 58.1342C114.22 58.0845 114.15 58.0273 114.087 57.9636C113.835 57.7157 113.652 57.4055 113.557 57.0644C113.51 56.926 113.493 56.779 113.508 56.6335C113.537 56.5004 113.596 56.3754 113.679 56.2675C113.762 56.1596 113.868 56.0714 113.989 56.009C114.024 55.9882 114.06 55.9674 114.097 55.9487C114.73 55.6219 115.585 55.5449 115.911 54.9079C116.222 54.3043 115.836 53.5695 115.363 53.0824C115.139 52.8535 114.873 52.5933 114.904 52.2727C114.933 51.9897 115.185 51.7919 115.394 51.6025C115.987 51.0645 116.387 50.3453 116.531 49.5564C116.587 49.3126 116.582 49.0592 116.519 48.8174C116.454 48.6441 116.366 48.4808 116.255 48.3325L115.583 47.3333C115.375 46.9807 115.092 46.6791 114.753 46.4508C114.473 46.2822 114.151 46.2239 113.869 46.0574C113.761 45.9984 113.671 45.9123 113.607 45.8076C113.572 45.749 113.56 45.679 113.574 45.6119C113.609 45.4454 113.792 45.3642 113.954 45.3164C114.225 45.2402 114.503 45.1941 114.784 45.179C114.364 45.1542 113.943 45.2006 113.539 45.3164C113.377 45.3642 113.194 45.4454 113.159 45.6119C113.145 45.679 113.157 45.749 113.192 45.8076C113.256 45.9123 113.346 45.9984 113.454 46.0574C113.736 46.2239 114.058 46.2822 114.338 46.4508C114.677 46.6791 114.96 46.9807 115.168 47.3333L115.84 48.3325C115.951 48.4808 116.039 48.6441 116.104 48.8174C116.167 49.0592 116.171 49.3126 116.116 49.5564C115.972 50.3453 115.572 51.0645 114.979 51.6025C114.772 51.7919 114.518 51.9897 114.489 52.2727C114.458 52.5933 114.724 52.8535 114.948 53.0824C115.421 53.5695 115.807 54.3043 115.496 54.9079C115.17 55.5428 114.315 55.6198 113.682 55.9487C113.645 55.9674 113.609 55.9882 113.574 56.009C113.453 56.0714 113.347 56.1596 113.264 56.2675C113.181 56.3754 113.122 56.5004 113.093 56.6335C113.078 56.779 113.095 56.926 113.142 57.0644C113.237 57.4055 113.42 57.7157 113.672 57.9636C113.735 58.0273 113.804 58.0845 113.879 58.1342C114.525 58.5505 115.361 58.3799 116.12 58.4923C116.294 58.5175 116.465 58.5622 116.629 58.6255C116.884 58.7275 117.112 58.8877 117.368 58.9835C117.553 59.0598 117.757 59.0772 117.953 59.0335C117.895 59.0209 117.838 59.0042 117.783 58.9835Z" fill="black"/>
<path opacity="0.1" d="M118.717 46.149C118.844 46.1162 118.97 46.0752 119.092 46.0261C119.019 45.9901 118.937 45.975 118.856 45.9824C118.68 46.0243 118.506 46.0772 118.337 46.1406C118.461 46.1716 118.591 46.1744 118.717 46.149Z" fill="black"/>
<path opacity="0.1" d="M115.317 45.179C115.464 45.2068 115.616 45.2033 115.761 45.1686C115.834 45.1491 115.897 45.1045 115.939 45.0427C115.981 44.9808 116 44.9059 115.992 44.8314C115.856 44.7961 115.713 44.7961 115.577 44.8314C115.585 44.9062 115.567 44.9817 115.524 45.0439C115.482 45.1062 115.419 45.1512 115.346 45.1707C115.332 45.1751 115.318 45.1786 115.303 45.1811L115.317 45.179Z" fill="black"/>
</g>
<path d="M108.116 48.576C107.342 49.1567 106.107 49.4086 104.972 49.4918C104.084 49.5624 103.193 49.5624 102.305 49.4918L100.307 48.7383C100.307 48.7383 100.469 48.4157 100.742 47.989C101.288 47.1397 102.28 45.8763 103.316 45.9283C104.872 46.0053 106.508 46.0823 106.663 46.0823C106.819 46.0823 109.853 47.275 108.116 48.576Z" fill="#FDC2CC"/>
<path d="M103.061 6.91058C101.583 6.88352 100.058 6.86687 98.7025 7.4372C95.9776 8.56746 94.693 11.5877 93.0452 14.0231C91.6786 16.0412 89.9342 17.7739 87.9088 19.1248C86.9541 19.7493 85.8459 20.4362 85.6156 21.5602C85.3707 22.7487 86.2174 23.8498 86.6532 24.9759C87.5767 27.3717 86.6532 30.0256 86.1074 32.5359C85.8521 33.7416 85.6877 34.9648 85.6156 36.1952C85.5562 36.7649 85.5934 37.3406 85.7256 37.8979C86.1406 39.3674 87.7096 40.429 87.722 41.9568C87.722 42.9975 86.9915 43.98 87.2053 44.9916C87.4813 46.2842 89.0461 46.7505 90.3431 46.9732C90.6537 47.0588 90.9827 47.0486 91.2874 46.9441C91.4949 46.8442 91.6651 46.6527 91.8768 46.5465C92.5969 46.1885 93.3959 46.9441 94.2011 46.9295C95.2118 46.9108 95.7804 45.7139 95.8053 44.7002C95.8302 43.6865 95.5604 42.6187 95.9236 41.682C96.4072 40.4331 97.7914 39.8399 98.9598 39.1842C100.253 38.4578 101.483 37.4087 101.865 35.9746C102.104 35.0878 101.996 34.1491 101.9 33.2374C101.755 31.8386 101.641 30.4336 101.562 29.0307C101.355 25.4505 104.32 22.4677 107.884 22.7466H107.95C108.988 22.832 110.212 22.9319 110.945 22.1742C111.235 21.8724 111.42 21.4561 111.775 21.248C112.468 20.8525 113.421 21.4166 114.118 21.0273C114.664 20.7213 114.78 19.9866 114.695 19.3621C114.61 18.7377 114.392 18.1132 114.508 17.5013C114.674 16.6333 115.461 16.013 115.753 15.1783C116.089 14.2271 115.726 13.1634 115.203 12.3017C113.528 9.53119 110.119 7.36227 106.923 7.07086C105.638 6.94597 104.349 6.9314 103.061 6.91058Z" fill="#865A61"/>
<path opacity="0.1" d="M100.742 47.9827C101.975 48.2367 103.476 48.8008 104.972 49.4897C104.084 49.5603 103.193 49.5603 102.305 49.4897L100.307 48.7362C100.307 48.7362 100.469 48.4094 100.742 47.9827Z" fill="black"/>
<path opacity="0.1" d="M116.079 58.5234C115.319 58.411 114.483 58.5755 113.838 58.1654C113.763 58.1157 113.693 58.0585 113.63 57.9947H113.599C112.801 57.9958 112.011 57.8392 111.273 57.5337C110.536 57.2282 109.866 56.7799 109.301 56.2144C108.737 55.649 108.289 54.9774 107.983 54.2382C107.678 53.499 107.52 52.7066 107.52 51.9064C107.519 51.5489 107.551 51.1922 107.616 50.8406C109.743 52.0333 111.468 53.2593 111.8 53.8588C112.29 54.6478 112.868 55.3788 113.522 56.0381C114.101 56.6626 114.722 57.2621 115.253 57.7637C115.568 58.0572 115.853 58.3174 116.079 58.5234Z" fill="black"/>
<path d="M116.417 59.2166C116.417 59.2166 112.63 55.9382 111.592 54.0649C110.555 52.1915 95.9755 44.2298 97.8433 50.2661C99.7111 56.3025 106.145 56.8749 106.145 56.8749C106.145 56.8749 108.22 59.2166 108.427 60.3614C108.635 61.5062 109.361 63.1714 109.361 63.1714L112.837 64.7326L114.446 64.3683C114.446 64.3683 118.233 62.2868 116.417 59.2166Z" fill="#FDC2CC"/>
<path opacity="0.1" d="M109.154 62.9633C109.154 62.9633 115.276 66.4498 115.898 58.2799L117.455 58.8003L115.898 64.3163L113.252 66.2416C113.252 66.2416 109.569 64.5244 109.154 62.9633Z" fill="black"/>
<path d="M109.361 63.1714C109.361 63.1714 115.483 66.6579 116.106 58.488L117.662 59.0084L116.106 64.5244L113.46 66.4498C113.46 66.4498 109.776 64.7325 109.361 63.1714Z" fill="#D39999"/>
<path d="M114.767 21.7704C114.838 21.0398 115.135 20.3509 115.29 19.6327C115.444 18.938 115.465 18.2205 115.353 17.5179C115.29 17.0105 115.101 16.5268 114.805 16.1108C114.597 15.8506 113.975 15.2782 113.611 15.5363C113.404 15.6841 113.348 16.5396 113.265 16.7852C112.974 17.6102 112.583 18.3966 112.103 19.1269C113.129 20.5474 113.744 22.2246 113.88 23.9735C114.016 25.7223 113.668 27.4749 112.873 29.0377C112.079 30.6006 110.87 31.9129 109.379 32.83C107.888 33.747 106.173 34.233 104.424 34.2345C104.198 34.2345 103.974 34.224 103.752 34.2074C103.544 34.5696 103.355 34.9359 103.164 35.3023C102.939 35.6743 102.787 36.0862 102.716 36.5158C102.699 36.9264 102.762 37.3365 102.901 37.723C103.287 38.9946 103.821 40.2165 104.491 41.3636C104.724 41.7197 104.916 42.1018 105.061 42.5022C105.18 42.8872 105.2 43.2994 105.354 43.6699C105.698 44.5025 106.599 44.9188 107.429 45.2664C107.925 45.4746 108.444 45.6827 108.979 45.639C109.03 45.6428 109.08 45.636 109.127 45.6191C109.175 45.6022 109.218 45.5756 109.255 45.5409C109.291 45.5062 109.32 45.4642 109.34 45.4177C109.359 45.3711 109.368 45.321 109.367 45.2706C109.396 45.0524 109.374 44.8305 109.302 44.6227C109.23 44.4149 109.11 44.2268 108.952 44.0737C109.656 44.295 110.395 44.3833 111.131 44.3339C111.197 44.3477 111.266 44.3422 111.329 44.318C111.391 44.2939 111.446 44.2521 111.486 44.1977C111.526 44.1432 111.549 44.0785 111.553 44.0111C111.557 43.9437 111.542 43.8766 111.509 43.8177C111.318 43.0326 111.027 42.2755 110.642 41.5655C110.264 40.8661 109.783 40.0522 110.127 39.3383C110.324 38.922 110.739 38.6889 111.117 38.4412C112.393 37.6086 113.524 36.2514 113.425 34.7257C113.371 33.8931 112.951 33.1 112.927 32.2612C112.862 30.2151 115.058 28.7518 115.39 26.7306C115.654 25.0779 114.608 23.4419 114.767 21.7704Z" fill="#865A61"/>
<g opacity="0.1">
<path opacity="0.1" d="M87.6099 41.1242C87.5975 39.5964 86.0306 38.5348 85.6135 37.0653C85.5493 36.8335 85.5096 36.5956 85.4952 36.3555C85.449 36.8726 85.4889 37.3939 85.6135 37.8979C85.9953 39.2404 87.3319 40.2437 87.5705 41.5738C87.5972 41.4254 87.6103 41.2749 87.6099 41.1242Z" fill="black"/>
<path opacity="0.1" d="M94.0891 46.0969C93.2839 46.1115 92.4849 45.3559 91.7647 45.7139C91.5572 45.8201 91.3912 46.0116 91.1754 46.1115C90.8707 46.2161 90.5416 46.2262 90.2311 46.1407C88.9382 45.9179 87.3775 45.4538 87.0974 44.1716C87.0444 44.4423 87.0444 44.7209 87.0974 44.9917C87.3734 46.2843 88.9382 46.7505 90.2352 46.9733C90.5458 47.0588 90.8748 47.0487 91.1795 46.9441C91.387 46.8442 91.5572 46.6527 91.7689 46.5465C92.489 46.1885 93.288 46.9441 94.0932 46.9295C95.1039 46.9108 95.6725 45.7139 95.6974 44.7003C95.6974 44.4921 95.6975 44.284 95.6829 44.0758C95.5771 45.0375 95.0292 46.0782 94.0891 46.0969Z" fill="black"/>
<path opacity="0.1" d="M101.757 35.1399C101.371 36.5741 100.141 37.6231 98.8519 38.3496C97.6835 39.0073 96.2993 39.5985 95.8157 40.8474C95.6377 41.3868 95.5769 41.9581 95.6372 42.523C95.6552 42.2347 95.7154 41.9507 95.8157 41.68C96.2993 40.4311 97.6835 39.8379 98.8519 39.1822C100.145 38.4557 101.375 37.4067 101.757 35.9725C101.889 35.428 101.933 34.8658 101.888 34.3073C101.872 34.5885 101.828 34.8674 101.757 35.1399Z" fill="black"/>
<path opacity="0.1" d="M113.12 20.33C112.62 20.2926 112.099 20.176 111.667 20.4174C111.304 20.6256 111.119 21.0419 110.837 21.3437C110.104 22.1014 108.89 22.0015 107.842 21.9161H107.776C104.212 21.6372 101.251 24.6221 101.454 28.2002C101.454 28.2272 101.454 28.2564 101.454 28.2834C101.504 27.5029 101.707 26.74 102.052 26.0386C102.397 25.3372 102.877 24.7112 103.464 24.1966C104.051 23.6821 104.734 23.2893 105.473 23.0408C106.213 22.7923 106.994 22.693 107.772 22.7487H107.838C108.876 22.8341 110.1 22.934 110.833 22.1763C111.123 21.8745 111.308 21.4582 111.663 21.25C112.078 21.0086 112.607 21.1252 113.116 21.1626C113.515 22.1576 113.743 23.2134 113.79 24.2849C113.79 24.1496 113.8 24.0143 113.8 23.8686C113.8 22.6563 113.569 21.4552 113.12 20.33Z" fill="black"/>
<path opacity="0.1" d="M86.9292 26.8118C86.9915 25.9068 86.862 24.9988 86.5495 24.1475C86.2216 23.2962 85.6592 22.4615 85.5118 21.5935C85.2856 22.7696 86.122 23.8582 86.5495 24.9801C86.7713 25.5669 86.8994 26.185 86.9292 26.8118Z" fill="black"/>
<path opacity="0.1" d="M115.303 18.0029C115.284 18.2712 115.245 18.5377 115.187 18.8001C115.031 19.5183 114.734 20.2072 114.664 20.9378C114.639 21.1981 114.639 21.4602 114.664 21.7205C114.742 21.0086 115.027 20.3342 115.18 19.639C115.301 19.1025 115.342 18.5514 115.303 18.0029Z" fill="black"/>
<path opacity="0.1" d="M115.278 25.9022C114.946 27.9234 112.75 29.3867 112.815 31.4328C112.818 31.5436 112.828 31.6541 112.844 31.7637C113.105 29.9716 114.975 28.5874 115.278 26.7348C115.329 26.3993 115.336 26.0585 115.299 25.7211C115.292 25.7815 115.292 25.8419 115.278 25.9022Z" fill="black"/>
<path opacity="0.1" d="M115.656 14.3416C115.46 14.7876 115.209 15.2071 114.909 15.5905C114.995 15.7581 115.064 15.9338 115.116 16.115C115.335 15.8229 115.514 15.5031 115.649 15.1638C115.78 14.7753 115.812 14.3607 115.745 13.9565C115.727 14.0873 115.697 14.2161 115.656 14.3416Z" fill="black"/>
<path opacity="0.1" d="M113.288 34.503C113.103 35.7769 112.109 36.8863 111.005 37.6128C110.627 37.8604 110.212 38.1019 110.015 38.5099C109.878 38.8169 109.859 39.1633 109.959 39.484C109.974 39.4354 109.992 39.388 110.015 39.3425C110.212 38.9262 110.627 38.693 111.005 38.4454C112.281 37.6128 113.412 36.2556 113.313 34.7299C113.308 34.6529 113.298 34.5779 113.288 34.503Z" fill="black"/>
<path opacity="0.1" d="M109.137 44.7189C109.06 44.7779 108.966 44.8101 108.869 44.8105C108.334 44.8563 107.815 44.6461 107.319 44.4379C106.489 44.0924 105.584 43.672 105.244 42.8414C105.09 42.4709 105.07 42.0588 104.951 41.6737C104.806 41.2733 104.614 40.8912 104.381 40.5351C103.711 39.388 103.177 38.1662 102.791 36.8946C102.731 36.7025 102.681 36.5072 102.641 36.3097C102.627 36.3784 102.614 36.4492 102.606 36.5178C102.589 36.9285 102.652 37.3386 102.791 37.7251C103.177 38.9967 103.711 40.2185 104.381 41.3657C104.614 41.7217 104.806 42.1038 104.951 42.5042C105.07 42.8893 105.09 43.3014 105.244 43.672C105.588 44.5046 106.489 44.9209 107.319 45.2685C107.815 45.4766 108.334 45.6848 108.869 45.641C108.92 45.6448 108.97 45.6381 109.017 45.6212C109.065 45.6043 109.108 45.5776 109.145 45.5429C109.181 45.5082 109.21 45.4663 109.23 45.4197C109.249 45.3732 109.259 45.3231 109.257 45.2726C109.285 45.0624 109.264 44.8488 109.195 44.6482C109.18 44.6751 109.161 44.6991 109.137 44.7189Z" fill="black"/>
<path opacity="0.1" d="M111.291 43.4409C111.206 43.4816 111.114 43.5036 111.019 43.5054C110.283 43.5548 109.544 43.4666 108.84 43.2452C109.098 43.4948 109.25 43.8337 109.266 44.1923C109.84 44.3281 110.431 44.3772 111.019 44.338C111.085 44.3518 111.154 44.3463 111.217 44.3222C111.279 44.298 111.334 44.2562 111.374 44.2018C111.414 44.1474 111.437 44.0826 111.441 44.0152C111.445 43.9479 111.43 43.8807 111.397 43.8218C111.366 43.6928 111.329 43.5658 111.291 43.4409Z" fill="black"/>
</g>
<path opacity="0.1" d="M82.3304 48.0285C82.3304 48.0285 82.1229 52.2956 82.7454 52.6078C83.368 52.92 82.3304 48.0285 82.3304 48.0285Z" fill="black"/>
<path opacity="0.1" d="M94.1077 59.2686C94.3153 59.2686 95.1454 59.6849 95.2491 60.1533C95.3529 60.6216 94.1077 59.2686 94.1077 59.2686Z" fill="black"/>
<path opacity="0.1" d="M93.5889 59.9451C93.7965 59.9451 94.6266 60.3614 94.7304 60.8298C94.8341 61.2981 93.5889 59.9451 93.5889 59.9451Z" fill="black"/>
<path opacity="0.1" d="M95.5085 61.8185C95.7161 61.8185 96.5462 62.2348 96.65 62.7031C96.7537 63.1715 95.5085 61.8185 95.5085 61.8185Z" fill="black"/>
<path opacity="0.1" d="M92.9144 61.8976C92.9144 61.8976 90.0961 64.7263 89.9218 65.332C89.7475 65.9378 84.4223 65.9565 84.4223 65.9565L84.0591 63.0424C84.0591 63.0424 84.0383 62.9654 84.0197 62.8488C85.491 62.47 90.2622 60.7028 93.1012 61.3293C93.1183 61.4321 93.1102 61.5376 93.0777 61.6366C93.0452 61.7355 92.9891 61.8251 92.9144 61.8976Z" fill="black"/>
<path d="M80.0808 65.4777C80.0808 65.4777 82.7973 63.0673 83.6275 63.1194C84.4576 63.1714 94.5747 58.8523 95.2492 63.6918C95.9236 68.5313 82.3304 68.7915 82.3304 68.7915L80.2551 69.572C80.2551 69.572 78.5243 65.7899 80.0808 65.4777Z" fill="#FDC2CC"/>
<path d="M79.2859 65.8253C79.2859 65.8253 80.5311 64.0915 80.9109 66.2063C81.2906 68.3211 81.8634 70.925 81.8634 70.925L79.0784 69.5367L79.2859 65.8253Z" fill="#D39999"/>
<path opacity="0.1" d="M194.592 139.744C199.726 139.744 203.887 139.103 203.887 138.314C203.887 137.524 199.726 136.884 194.592 136.884C189.458 136.884 185.297 137.524 185.297 138.314C185.297 139.103 189.458 139.744 194.592 139.744Z" fill="#FF00F5"/>
<path opacity="0.1" d="M168.354 166.368C176.377 166.368 182.881 165.367 182.881 164.133C182.881 162.898 176.377 161.897 168.354 161.897C160.331 161.897 153.827 162.898 153.827 164.133C153.827 165.367 160.331 166.368 168.354 166.368Z" fill="#FF00F5"/>
<path opacity="0.1" d="M207.785 175C218.397 175 227 173.676 227 172.042C227 170.409 218.397 169.084 207.785 169.084C197.172 169.084 188.569 170.409 188.569 172.042C188.569 173.676 197.172 175 207.785 175Z" fill="#FF00F5"/>
<path opacity="0.1" d="M18.5271 143.474C26.5503 143.474 33.0543 142.473 33.0543 141.238C33.0543 140.003 26.5503 139.003 18.5271 139.003C10.504 139.003 4 140.003 4 141.238C4 142.473 10.504 143.474 18.5271 143.474Z" fill="#FF00F5"/>
<path d="M187.262 124.594C187.262 124.594 185.948 130.735 191.797 131.463L192.16 130.781C192.16 130.781 187.625 126.505 187.262 124.594Z" fill="#FF00F5"/>
<path d="M194.019 130.733L192.66 131.022L192.523 131.053C192.523 131.053 188.895 128.098 188.941 121.501C189.427 122.473 190.008 123.395 190.674 124.253C192.112 126.16 193.739 128.714 194.019 130.733Z" fill="#FF00F5"/>
<path d="M194.48 131.366C194.373 131.436 194.251 131.481 194.125 131.497C193.998 131.514 193.869 131.502 193.747 131.461C190.255 130.643 191.435 119.228 191.435 119.228C191.628 119.32 191.851 120.771 192.643 122.646C194.052 125.939 195.607 130.539 194.48 131.366Z" fill="#FF00F5"/>
<path d="M202.225 124.594C202.225 124.594 202.453 130.735 196.603 131.463L196.24 130.781C196.24 130.781 201.864 126.505 202.225 124.594Z" fill="#FF00F5"/>
<path d="M200.548 121.501C200.592 128.098 195.879 131.053 195.879 131.053L195.742 131.022L194.382 130.733C194.65 128.707 196.29 126.153 197.726 124.253C198.539 123.213 199.489 122.288 200.548 121.501Z" fill="#FF00F5"/>
<path d="M195.721 130.768C195.511 131.025 195.244 131.229 194.943 131.365C194.852 131.408 194.756 131.44 194.658 131.461C193.797 131.669 193.498 131.045 193.548 129.985C193.629 128.112 194.808 124.844 195.866 122.405C196.628 120.648 197.873 119.316 198.058 119.228C198.054 119.228 198.002 128.116 195.721 130.768Z" fill="#FF00F5"/>
<path d="M194.744 115.226C194.744 115.226 190.844 129.097 194.2 131.189C197.556 133.281 195.607 116.454 194.744 115.226Z" fill="#FF00F5"/>
<path opacity="0.1" d="M187.262 124.594C187.262 124.594 185.948 130.735 191.797 131.463L192.16 130.781C192.16 130.781 187.625 126.505 187.262 124.594Z" fill="black"/>
<path opacity="0.1" d="M194.019 130.733L192.66 131.022L192.523 131.053C192.523 131.053 188.895 128.098 188.941 121.501C189.427 122.473 190.008 123.395 190.674 124.253C192.112 126.16 193.739 128.714 194.019 130.733Z" fill="black"/>
<path opacity="0.1" d="M194.48 131.366C194.373 131.436 194.251 131.481 194.125 131.497C193.998 131.514 193.869 131.502 193.747 131.461C190.255 130.643 191.435 119.228 191.435 119.228C191.628 119.32 191.851 120.771 192.643 122.646C194.052 125.939 195.607 130.539 194.48 131.366Z" fill="black"/>
<path opacity="0.1" d="M202.225 124.594C202.225 124.594 202.453 130.735 196.603 131.463L196.24 130.781C196.24 130.781 201.864 126.505 202.225 124.594Z" fill="black"/>
<path opacity="0.1" d="M200.548 121.501C200.592 128.098 195.879 131.053 195.879 131.053L195.742 131.022L194.382 130.733C194.65 128.707 196.29 126.153 197.726 124.253C198.539 123.213 199.489 122.288 200.548 121.501Z" fill="black"/>
<path opacity="0.1" d="M195.721 130.768C195.511 131.025 195.244 131.229 194.943 131.365C194.852 131.408 194.756 131.44 194.658 131.461C193.797 131.669 193.498 131.045 193.548 129.985C193.629 128.112 194.808 124.844 195.866 122.405C196.628 120.648 197.873 119.316 198.058 119.228C198.054 119.228 198.002 128.116 195.721 130.768Z" fill="black"/>
<path opacity="0.1" d="M194.744 115.226C194.744 115.226 190.844 129.097 194.2 131.189C197.556 133.281 195.607 116.454 194.744 115.226Z" fill="black"/>
<path d="M187.262 124.594C187.262 124.594 186.492 130.735 192.34 131.463L192.704 130.781C192.704 130.781 187.625 126.505 187.262 124.594Z" fill="#FF00F5"/>
<path d="M194.569 130.733L193.21 131.022L193.073 131.053C193.073 131.053 188.901 128.098 188.947 121.501C188.947 121.501 190.016 122.65 191.23 124.253C192.658 126.16 194.291 128.714 194.569 130.733Z" fill="#FF00F5"/>
<path opacity="0.1" d="M194.569 130.733L193.21 131.022C191.921 129.888 191.408 126.924 191.224 124.253C192.658 126.16 194.291 128.714 194.569 130.733Z" fill="black"/>
<path d="M195.024 131.366C194.917 131.436 194.795 131.481 194.668 131.497C194.541 131.514 194.413 131.502 194.291 131.461C190.798 130.643 191.435 119.228 191.435 119.228C191.628 119.32 192.384 120.771 193.187 122.646C194.596 125.939 196.144 130.539 195.024 131.366Z" fill="#FF00F5"/>
<path d="M202.225 124.594C202.225 124.594 202.997 130.735 197.147 131.463L196.786 130.781C196.786 130.781 201.864 126.505 202.225 124.594Z" fill="#FF00F5"/>
<path d="M200.548 121.501C200.592 128.098 196.422 131.053 196.422 131.053L196.285 131.022L194.926 130.733C195.196 128.707 196.833 126.153 198.269 124.253C199.479 122.65 200.548 121.501 200.548 121.501Z" fill="#FF00F5"/>
<path opacity="0.1" d="M198.269 124.253C198.095 126.751 197.647 129.486 196.537 130.768C196.46 130.86 196.376 130.945 196.285 131.022L194.926 130.733C195.192 128.714 196.833 126.16 198.269 124.253Z" fill="black"/>
<path d="M196.265 130.768C196.055 131.025 195.788 131.229 195.486 131.365C195.395 131.407 195.299 131.439 195.2 131.461C194.341 131.669 194.04 131.045 194.09 129.985C194.171 128.112 195.349 124.844 196.408 122.405C197.169 120.648 197.861 119.316 198.056 119.228C198.054 119.228 198.547 128.116 196.265 130.768Z" fill="#FF00F5"/>
<path opacity="0.1" d="M195.024 131.365C194.826 131.365 194.633 131.303 194.472 131.189C192.828 130.162 192.795 126.31 193.187 122.654C194.596 125.939 196.144 130.539 195.024 131.365Z" fill="black"/>
<path opacity="0.1" d="M196.265 130.768C196.076 131.184 195.821 131.393 195.486 131.366C195.319 131.344 195.158 131.283 195.017 131.189C194.591 130.894 194.267 130.473 194.09 129.985C194.171 128.112 195.349 124.844 196.408 122.405C196.784 125.8 196.908 129.38 196.265 130.768Z" fill="black"/>
<path d="M194.744 115.226C194.744 115.226 191.39 129.097 194.744 131.189C198.097 133.281 195.607 116.454 194.744 115.226Z" fill="#FF00F5"/>
<path d="M201.183 130.508H187.218V132.827H189.348L189.402 133.099L190.255 137.602H198.373L199.226 133.099L199.278 132.827H201.183V130.508Z" fill="#4B4770"/>
<path opacity="0.1" d="M201.183 130.508H187.218V132.827H189.348L189.402 133.099L190.255 137.602H198.373L199.226 133.099L199.278 132.827H201.183V130.508Z" fill="black"/>
<path d="M200.004 131.871L199.772 133.099L198.917 137.602H190.798L189.945 133.099L189.711 131.871H200.004Z" fill="#4B4770"/>
<path opacity="0.1" d="M200.004 131.871L199.772 133.099H189.945L189.711 131.871H200.004Z" fill="black"/>
<path d="M201.727 130.508H187.762V132.827H201.727V130.508Z" fill="#4B4770"/>
<path d="M26.652 116.805C26.4529 117.079 26.2936 117.38 26.1788 117.698C26.1497 117.775 26.1207 117.865 26.0916 117.95C26.0393 117.925 25.9843 117.906 25.9277 117.894C25.6859 117.832 25.4356 117.81 25.1868 117.83C25.1868 117.734 25.1993 117.621 25.2013 117.524C25.2325 116.427 25.1038 114.899 24.0599 115.546C23.0596 116.171 23.7735 117.211 24.4189 117.877C24.475 117.936 24.531 117.99 24.585 118.042C23.9956 118.458 23.8835 119.443 23.786 120.465C23.6884 121.487 22.823 122.604 22.2482 123.241C22.1901 123.306 22.1382 123.364 22.0863 123.418C21.8555 123.233 21.5882 123.099 21.3021 123.025C21.016 122.951 20.7174 122.938 20.4261 122.987C20.4032 122.898 20.3783 122.804 20.3493 122.704C19.874 121.012 18.9111 118.098 17.6783 117.474C17.7302 117.409 17.7842 117.342 17.8402 117.265C18.3632 116.579 18.9526 115.559 18.083 115.298C17.2135 115.038 17.1346 116.183 17.1823 117.041C17.1823 117.147 17.1989 117.249 17.2072 117.345C17.0341 117.352 16.8644 117.396 16.7084 117.471C16.5525 117.547 16.4136 117.654 16.3003 117.786L16.1654 117.626C15.4598 116.793 14.1669 115.469 13.7747 116.47C13.4115 117.401 14.5488 118.612 15.3498 119.314L15.3997 119.357C14.8622 121.547 17.2093 123.331 18.4732 124.109L18.6371 124.211C16.8939 126.27 15.8168 130.133 15.8168 130.133L20.7 131.007C20.7 131.007 23.9354 128.206 23.5203 125.577H23.5535C26.7889 124.925 27.5236 121.466 27.0214 119.414L27.0774 119.389C27.6664 119.147 28.1827 118.756 28.5758 118.254C29.4785 116.991 27.5817 115.567 26.652 116.805Z" fill="#FF00F5"/>
<path opacity="0.1" d="M26.652 116.805C26.4529 117.079 26.2936 117.38 26.1788 117.698C26.1497 117.775 26.1207 117.865 26.0916 117.95C26.0393 117.925 25.9843 117.906 25.9277 117.894C25.6859 117.832 25.4356 117.81 25.1868 117.83C25.1868 117.734 25.1993 117.621 25.2013 117.524C25.2325 116.427 25.1038 114.899 24.0599 115.546C23.0596 116.171 23.7735 117.211 24.4189 117.877C24.475 117.936 24.531 117.99 24.585 118.042C23.9956 118.458 23.8835 119.443 23.786 120.465C23.6884 121.487 22.823 122.604 22.2482 123.241C22.1901 123.306 22.1382 123.364 22.0863 123.418C21.8555 123.233 21.5882 123.099 21.3021 123.025C21.016 122.951 20.7174 122.938 20.4261 122.987C20.4032 122.898 20.3783 122.804 20.3493 122.704C19.874 121.012 18.9111 118.098 17.6783 117.474C17.7302 117.409 17.7842 117.342 17.8402 117.265C18.3632 116.579 18.9526 115.559 18.083 115.298C17.2135 115.038 17.1346 116.183 17.1823 117.041C17.1823 117.147 17.1989 117.249 17.2072 117.345C17.0341 117.352 16.8644 117.396 16.7084 117.471C16.5525 117.547 16.4136 117.654 16.3003 117.786L16.1654 117.626C15.4598 116.793 14.1669 115.469 13.7747 116.47C13.4115 117.401 14.5488 118.612 15.3498 119.314L15.3997 119.357C14.8622 121.547 17.2093 123.331 18.4732 124.109L18.6371 124.211C16.8939 126.27 15.8168 130.133 15.8168 130.133L20.7 131.007C20.7 131.007 23.9354 128.206 23.5203 125.577H23.5535C26.7889 124.925 27.5236 121.466 27.0214 119.414L27.0774 119.389C27.6664 119.147 28.1827 118.756 28.5758 118.254C29.4785 116.991 27.5817 115.567 26.652 116.805Z" fill="black"/>
<path d="M16.9354 118.217L16.3647 119.882C16.3647 119.882 16.0471 119.657 15.6466 119.303C14.8455 118.602 13.7083 117.39 14.0714 116.46C14.4637 115.459 15.7566 116.78 16.4622 117.615C16.7465 117.959 16.9354 118.217 16.9354 118.217Z" fill="#FF00F5"/>
<path d="M18.1391 117.265C17.9654 117.494 17.7797 117.713 17.5829 117.921C17.5342 117.63 17.5003 117.336 17.4812 117.041C17.4335 116.183 17.5248 115.045 18.3819 115.298C19.239 115.552 18.662 116.574 18.1391 117.265Z" fill="#FF00F5"/>
<path d="M25.5002 117.524C25.4836 118.075 25.4296 118.516 25.4296 118.516C25.178 118.32 24.9401 118.107 24.7178 117.877C24.0724 117.207 23.3585 116.171 24.3588 115.546C25.4027 114.899 25.5313 116.433 25.5002 117.524Z" fill="#FF00F5"/>
<path d="M28.8725 118.248C28.4795 118.75 27.9631 119.141 27.3741 119.382C27.211 119.454 27.0432 119.516 26.8719 119.566L26.1995 118.618C26.2707 118.306 26.3636 117.998 26.4776 117.698C26.5924 117.38 26.7517 117.079 26.9508 116.805C27.8805 115.567 29.7774 116.991 28.8725 118.248Z" fill="#FF00F5"/>
<path opacity="0.1" d="M16.4622 117.626C16.7465 117.959 16.9354 118.217 16.9354 118.217L16.3647 119.882C16.3647 119.882 16.0471 119.657 15.6466 119.303C15.7356 118.767 15.9567 118.261 16.29 117.832C16.346 117.765 16.4062 117.692 16.4622 117.626Z" fill="black"/>
<path opacity="0.1" d="M18.1391 117.265C17.9654 117.494 17.7797 117.713 17.5829 117.921C17.5342 117.63 17.5003 117.336 17.4812 117.041C17.7186 117.045 17.9487 117.123 18.1391 117.265Z" fill="black"/>
<path d="M20.9469 123.912L19.5254 124.536C19.5254 124.536 19.2161 124.386 18.7699 124.107C17.2778 123.187 14.279 120.871 16.2796 118.14C18.2802 115.409 19.9674 120.306 20.6377 122.702C20.839 123.42 20.9469 123.912 20.9469 123.912Z" fill="#FF00F5"/>
<path opacity="0.1" d="M24.7178 117.877C24.9245 117.664 25.2041 117.538 25.5002 117.524C25.4836 118.075 25.4296 118.516 25.4296 118.516C25.178 118.32 24.9401 118.107 24.7178 117.877Z" fill="black"/>
<path opacity="0.1" d="M27.3741 119.382C27.211 119.455 27.0432 119.516 26.8719 119.566L26.1995 118.618C26.2707 118.306 26.3636 117.998 26.4776 117.698C26.9114 117.952 27.231 118.585 27.3741 119.382Z" fill="black"/>
<path d="M23.8503 125.571L23.6117 125.612C18.853 126.337 22.0427 123.762 22.0427 123.762C22.0427 123.762 22.2503 123.554 22.547 123.241C23.1219 122.605 23.9852 121.493 24.0848 120.465C24.2343 118.918 24.4065 117.467 26.2266 117.894C28.0134 118.306 28.3558 124.665 23.8503 125.571Z" fill="#FF00F5"/>
<path d="M23.761 137.454H14.6691V139.852H23.761V137.454Z" fill="#D4DFEC"/>
<path d="M25.1038 129.659H13.2247V138.026H25.1038V129.659Z" fill="#D4DFEC"/>
<path opacity="0.1" d="M23.761 137.454H14.6691V139.852H23.761V137.454Z" fill="black"/>
<path opacity="0.1" d="M25.1038 129.659H13.2247V138.026H25.1038V129.659Z" fill="black"/>
<path d="M24.3588 137.454H15.2668V139.852H24.3588V137.454Z" fill="#D4DFEC"/>
<path opacity="0.1" d="M20.6377 122.704C20.8453 123.42 20.947 123.912 20.947 123.912L19.5254 124.536C19.5254 124.536 19.2161 124.386 18.77 124.107C19.3261 123.404 19.9529 122.869 20.6377 122.704Z" fill="black"/>
<path opacity="0.1" d="M23.8503 125.571L23.6117 125.612C18.853 126.337 22.0427 123.762 22.0427 123.762C22.0427 123.762 22.2503 123.554 22.547 123.241C23.4353 123.953 23.8026 124.759 23.8503 125.571Z" fill="black"/>
<path d="M16.1136 130.133C16.1136 130.133 18.7783 120.558 22.5159 123.514C26.2535 126.47 20.9968 131.008 20.9968 131.008L16.1136 130.133Z" fill="#FF00F5"/>
<path opacity="0.1" d="M17.4584 119.942C17.6234 119.942 17.7572 119.808 17.7572 119.643C17.7572 119.477 17.6234 119.343 17.4584 119.343C17.2933 119.343 17.1595 119.477 17.1595 119.643C17.1595 119.808 17.2933 119.942 17.4584 119.942Z" fill="black"/>
<path opacity="0.1" d="M17.4335 121.341C17.5985 121.341 17.7323 121.207 17.7323 121.041C17.7323 120.876 17.5985 120.742 17.4335 120.742C17.2684 120.742 17.1346 120.876 17.1346 121.041C17.1346 121.207 17.2684 121.341 17.4335 121.341Z" fill="black"/>
<path opacity="0.1" d="M26.102 120.217C26.2671 120.217 26.4009 120.083 26.4009 119.917C26.4009 119.752 26.2671 119.618 26.102 119.618C25.937 119.618 25.8032 119.752 25.8032 119.917C25.8032 120.083 25.937 120.217 26.102 120.217Z" fill="black"/>
<path opacity="0.1" d="M19.1269 127.386C19.292 127.386 19.4258 127.252 19.4258 127.086C19.4258 126.92 19.292 126.786 19.1269 126.786C18.9619 126.786 18.8281 126.92 18.8281 127.086C18.8281 127.252 18.9619 127.386 19.1269 127.386Z" fill="black"/>
<path opacity="0.1" d="M25.4794 122.54C25.6445 122.54 25.7783 122.406 25.7783 122.24C25.7783 122.075 25.6445 121.94 25.4794 121.94C25.3144 121.94 25.1806 122.075 25.1806 122.24C25.1806 122.406 25.3144 122.54 25.4794 122.54Z" fill="black"/>
<path opacity="0.1" d="M22.3914 125.637C22.5564 125.637 22.6902 125.503 22.6902 125.338C22.6902 125.172 22.5564 125.038 22.3914 125.038C22.2263 125.038 22.0925 125.172 22.0925 125.338C22.0925 125.503 22.2263 125.637 22.3914 125.637Z" fill="black"/>
<path opacity="0.1" d="M18.4794 120.542C18.6444 120.542 18.7782 120.408 18.7782 120.242C18.7782 120.076 18.6444 119.942 18.4794 119.942C18.3143 119.942 18.1805 120.076 18.1805 120.242C18.1805 120.408 18.3143 120.542 18.4794 120.542Z" fill="black"/>
<path opacity="0.1" d="M25.2802 121.116C25.4452 121.116 25.579 120.982 25.579 120.816C25.579 120.651 25.4452 120.517 25.2802 120.517C25.1151 120.517 24.9813 120.651 24.9813 120.816C24.9813 120.982 25.1151 121.116 25.2802 121.116Z" fill="black"/>
<path opacity="0.1" d="M24.2592 123.439C24.4242 123.439 24.558 123.305 24.558 123.139C24.558 122.974 24.4242 122.84 24.2592 122.84C24.0941 122.84 23.9603 122.974 23.9603 123.139C23.9603 123.305 24.0941 123.439 24.2592 123.439Z" fill="black"/>
<path opacity="0.1" d="M21.1213 127.161C21.2863 127.161 21.4201 127.027 21.4201 126.861C21.4201 126.696 21.2863 126.561 21.1213 126.561C20.9562 126.561 20.8224 126.696 20.8224 126.861C20.8224 127.027 20.9562 127.161 21.1213 127.161Z" fill="black"/>
<path opacity="0.1" d="M20.4738 125.687C20.6388 125.687 20.7726 125.553 20.7726 125.387C20.7726 125.222 20.6388 125.088 20.4738 125.088C20.3087 125.088 20.1749 125.222 20.1749 125.387C20.1749 125.553 20.3087 125.687 20.4738 125.687Z" fill="black"/>
<path opacity="0.1" d="M18.9277 122.365C19.0927 122.365 19.2265 122.231 19.2265 122.065C19.2265 121.9 19.0927 121.766 18.9277 121.766C18.7626 121.766 18.6288 121.9 18.6288 122.065C18.6288 122.231 18.7626 122.365 18.9277 122.365Z" fill="black"/>
<path opacity="0.1" d="M24.3588 137.454H15.2668V138.33H24.3588V137.454Z" fill="black"/>
<path d="M25.7015 129.659H13.8224V138.026H25.7015V129.659Z" fill="#D4DFEC"/>
<path opacity="0.1" d="M21.5197 128.51C21.6848 128.51 21.8186 128.375 21.8186 128.21C21.8186 128.044 21.6848 127.91 21.5197 127.91C21.3547 127.91 21.2209 128.044 21.2209 128.21C21.2209 128.375 21.3547 128.51 21.5197 128.51Z" fill="black"/>
<path opacity="0.1" d="M19.7267 128.884C19.8917 128.884 20.0255 128.75 20.0255 128.585C20.0255 128.419 19.8917 128.285 19.7267 128.285C19.5617 128.285 19.4279 128.419 19.4279 128.585C19.4279 128.75 19.5617 128.884 19.7267 128.884Z" fill="black"/>
</g>
<defs>
<filter id="filter0_d_7_107" x="0" y="0" width="231" height="183" filterUnits="userSpaceOnUse" color-interpolation-filters="sRGB">
<feFlood flood-opacity="0" result="BackgroundImageFix"/>
<feColorMatrix in="SourceAlpha" type="matrix" values="0 0 0 0 0 0 0 0 0 0 0 0 0 0 0 0 0 0 127 0" result="hardAlpha"/>
<feOffset dy="4"/>
<feGaussianBlur stdDeviation="2"/>
<feComposite in2="hardAlpha" operator="out"/>
<feColorMatrix type="matrix" values="0 0 0 0 0 0 0 0 0 0 0 0 0 0 0 0 0 0 0.25 0"/>
<feBlend mode="normal" in2="BackgroundImageFix" result="effect1_dropShadow_7_107"/>
<feBlend mode="normal" in="SourceGraphic" in2="effect1_dropShadow_7_107" result="shape"/>
</filter>
<linearGradient id="paint0_linear_7_107" x1="97.5839" y1="169.328" x2="97.5839" y2="5.51389" gradientUnits="userSpaceOnUse">
<stop stop-color="#808080" stop-opacity="0.25"/>
<stop offset="0.54" stop-color="#808080" stop-opacity="0.12"/>
<stop offset="1" stop-color="#808080" stop-opacity="0.1"/>
</linearGradient>
<clipPath id="clip0_7_107">
<rect width="223" height="175" fill="white" transform="translate(4)"/>
</clipPath>
</defs>
</svg>
