<svg width="209" height="168" viewBox="0 0 209 168" fill="none" xmlns="http://www.w3.org/2000/svg">
<g clip-path="url(#clip0_7_30)">
<path d="M206.802 12.393V143.455C212.735 153.039 205.793 152.409 196.272 150.072C174.25 144.654 151.562 142.419 128.904 143.436C126.171 143.557 123.442 143.728 120.718 143.947C119.436 144.05 118.154 144.164 116.872 144.288C111.978 144.765 107.097 145.395 102.229 146.178C101.313 146.325 100.399 146.479 99.4865 146.64C98.6329 146.787 97.7824 146.94 96.9288 147.099C92.2916 147.957 87.6754 148.957 83.08 150.1C83.0737 150.103 83.0643 150.103 83.0581 150.106L59.9506 155.866L11.2562 168C1.03458 168 -7.25157 159.732 9.8535 148.371V17.3095C-7.25157 8.26818 1.03457 0 11.2562 0L83.0993 20.0985C112.134 28.2208 142.828 28.3725 171.942 20.5376C191.868 15.1755 209.767 10.3317 206.802 12.393Z" fill="#F1F2F2"/>
<path d="M87.8444 27.2139C90.3046 19.3903 95.8992 12.2147 103.636 9.56991C111.374 6.92508 122.704 10.954 128.521 16.7388C139.162 27.3203 139.489 40.2739 132.179 51.7613C130.725 51.6845 125.707 51.6277 124.235 51.5727L122.154 44.649V51.5045C110.667 51.1503 97.8812 60.578 86.7422 51.6014C85.6697 43.4682 85.3841 35.0376 87.8444 27.2139Z" fill="#2F2E41"/>
<path d="M119.305 107.186L121.679 113.345L121.204 119.504L75.6234 113.819L77.0477 108.608L82.2705 102.449L119.305 107.186Z" fill="#FFB6B6"/>
<path d="M104.615 51.7618C113.779 51.7618 121.209 44.3484 121.209 35.2035C121.209 26.0587 113.779 18.6453 104.615 18.6453C95.4498 18.6453 88.0203 26.0587 88.0203 35.2035C88.0203 44.3484 95.4498 51.7618 104.615 51.7618Z" fill="#FFB7B7"/>
<path d="M87.0186 63.5997L96.5145 57.9145L115.506 56.0194L132.293 59.8096L132.124 90.6045L121.475 117.629L76.8444 111.944L75.1486 102.411C75.1486 102.411 62.8039 85.8668 76.0982 76.3914L87.0186 63.5997Z" fill="#FF00F5"/>
<path d="M128.904 143.436C126.171 143.557 123.442 143.728 120.718 143.947C119.436 144.05 118.154 144.164 116.872 144.288C111.978 144.765 107.097 145.395 102.229 146.178C101.313 146.325 100.399 146.479 99.4865 146.64C98.6329 146.787 97.7824 146.94 96.9288 147.099C92.2917 147.957 87.6754 148.957 83.08 150.1C83.0737 150.103 83.0643 150.103 83.0581 150.106L59.9507 155.866C61.2858 143.854 64.4314 125.318 71.3512 120.924L75.8726 112.9L75.8757 112.893L76.154 112.404L84.5277 113.274L91.5694 114.007L96.4285 114.513L99.4646 114.825L99.5115 114.831L121.387 117.106L121.668 117.137H121.678V127.658C121.678 127.658 121.822 127.842 122.065 128.188C122.166 128.325 122.278 128.488 122.403 128.672C123.372 130.083 124.261 131.548 125.067 133.058C125.199 133.302 125.33 133.551 125.458 133.81C126.318 135.476 127.063 137.198 127.688 138.965C128.205 140.422 128.612 141.917 128.904 143.436Z" fill="#2F2E41"/>
<path d="M93.2122 13.6417C99.5511 9.78567 107.999 9.67451 114.438 13.3625C120.877 17.0505 125.041 24.3859 124.901 31.7926C115.625 32.2183 106.004 40.9108 96.0008 32.3482L93.6657 26.6458L92.2891 32.3524C89.2785 32.3521 86.2622 32.3482 83.2401 32.3406C82.9039 24.9402 86.8729 17.4978 93.2122 13.6417Z" fill="#2F2E41"/>
<path d="M133.128 119.984L149.271 129.459C153.07 127.564 152.335 115.274 150.016 114.554L148.267 73.5488C147.318 54.5981 132.293 59.8096 132.293 59.8096L125.477 61.2308L130.225 81.1291L135.383 115.462C134.682 115.991 134.114 116.674 133.723 117.459C133.332 118.243 133.128 119.108 133.128 119.984Z" fill="#FF00F5"/>
<path d="M127.172 130.144L125.818 133.037L125.458 133.81L121.659 141.932L120.718 143.947C119.436 144.05 118.154 144.164 116.872 144.288C111.978 144.765 107.097 145.395 102.229 146.178L103.642 140.356L99.4865 146.64C98.6329 146.787 97.7824 146.94 96.9288 147.099C92.2916 147.957 87.6754 148.957 83.08 150.1L95.6718 120.987V120.984L96.7537 118.481L122.066 128.188L122.735 128.444L127.172 130.144Z" fill="#3F3D56"/>
<path d="M94.7896 119.897C102.944 130.352 114.377 133.875 127.924 132.927L147.213 73.5651L138.117 71.962L134.232 66.9112L124.077 65.5814L119.047 68.027L110.635 67.8406L104.236 88.865L92.4429 109.755L94.7896 119.897Z" fill="#E6E7E8"/>
<path d="M158.73 70.7359L154.672 74.2533L146.3 64.638L143.774 63.5962C143.266 63.3872 142.816 63.0615 142.459 62.6458C142.102 62.2301 141.848 61.7361 141.719 61.2041C141.59 60.672 141.588 60.117 141.714 59.5843C141.841 59.0515 142.092 58.5561 142.446 58.1384V58.1384C142.771 57.7561 143.174 57.4483 143.629 57.2362C144.084 57.0241 144.58 56.9127 145.082 56.9096C145.584 56.9064 146.081 57.0117 146.538 57.2181C146.996 57.4245 147.403 57.7272 147.732 58.1054L150.358 61.1206L158.73 70.7359Z" fill="#FFB8B8"/>
<path d="M136.891 94.4862L152.373 81.5461L158.664 75.8556C159.114 75.4488 159.474 74.9537 159.723 74.4014C159.972 73.849 160.103 73.2512 160.11 72.6457C160.116 72.0401 159.996 71.4398 159.759 70.8825C159.521 70.3252 159.171 69.8229 158.73 69.4072V69.4072L158.622 67.4696C158.594 66.9558 158.455 66.454 158.217 65.9978C157.978 65.5417 157.644 65.1417 157.238 64.8247C156.832 64.5076 156.363 64.2809 155.861 64.1596C155.36 64.0383 154.839 64.0253 154.332 64.1214V64.1214L148.947 69.4072L151.938 71.1126L148.497 73.1802L139.674 73.6788L136.891 94.4862Z" fill="#E6E7E8"/>
<path d="M132.731 65.7186C139.595 65.7186 145.16 60.166 145.16 53.3164C145.16 46.4668 139.595 40.9142 132.731 40.9142C125.866 40.9142 120.302 46.4668 120.302 53.3164C120.302 60.166 125.866 65.7186 132.731 65.7186Z" fill="#FFB8B8"/>
<path d="M142.135 38.7751C149.785 41.618 154.389 45.6833 151.54 53.3164C148.691 60.9496 140.91 68.565 133.26 65.722C125.611 62.8791 130.577 60.1543 122.154 44.649C118.263 37.488 134.486 35.9321 142.135 38.7751Z" fill="#2F2E41"/>
<path d="M148.197 128.828C148.134 128.868 148.068 128.909 148.003 128.946C147.875 129.024 147.743 129.096 147.609 129.161L127.688 138.965L121.659 141.932L116.872 144.288C111.978 144.765 107.097 145.395 102.229 146.178C101.313 146.325 100.399 146.479 99.4866 146.64C98.6329 146.787 97.7824 146.94 96.9288 147.099C96.8531 146.54 96.8447 145.974 96.9038 145.414C97.0088 144.372 97.3331 143.364 97.8556 142.456C98.3781 141.548 99.0869 140.761 99.9356 140.145C100.784 139.53 101.754 139.1 102.78 138.884C103.807 138.668 104.868 138.671 105.893 138.893C106.276 138.978 106.652 139.094 107.016 139.239L116.731 132.565L122.403 128.672L122.735 128.444L131.29 122.566L131.293 122.562L133.982 120.719L134.163 120.594L135.986 119.343L135.323 110.844L148.046 108.17L150.686 123.102C150.879 124.195 150.746 125.32 150.303 126.338C149.861 127.356 149.128 128.222 148.197 128.828Z" fill="#FFB6B6"/>
<path d="M149.619 114.554L148.815 102.449L135.323 110.843L134.985 115.462C134.285 115.991 133.717 116.674 133.325 117.459C132.934 118.243 132.731 119.108 132.731 119.984L148.874 129.459C152.672 127.564 151.938 115.274 149.619 114.554Z" fill="#FF00F5"/>
<path d="M69.7094 58.3037C69.8064 58.9204 70.0378 59.5083 70.3871 60.0261C70.7365 60.5438 71.1955 60.9789 71.7316 61.3005C72.2677 61.6222 72.868 61.8227 73.4901 61.8878C74.1123 61.9529 74.7412 61.8811 75.3325 61.6775L109.736 79.95L112.656 71.1335L77.9202 55.9445C77.5116 54.9759 76.761 54.1905 75.8108 53.7372C74.8606 53.2839 73.7767 53.1941 72.7646 53.4849C71.7525 53.7757 70.8825 54.4269 70.3194 55.315C69.7563 56.2032 69.5392 57.2666 69.7094 58.3037V58.3037Z" fill="#FFB6B6"/>
<path d="M123.644 84.5854C123.644 84.5854 117.2 88.7846 112.888 86.7043C109.436 85.0389 99.0488 76.115 95.0403 72.6196C94.4341 73.0537 93.7005 73.2743 92.9548 73.2465C92.2092 73.2187 91.494 72.9442 90.922 72.4662L97.2263 63.3932C99.7118 63.0673 100.066 64.6996 100.045 65.6819L106.455 68.2994L111.887 68.2074L124.078 83.0132L123.644 84.5854Z" fill="#E6E7E8"/>
<path d="M122.726 121.804C122.117 122.669 121.325 123.391 120.406 123.917C119.487 124.444 118.463 124.763 117.407 124.853C116.351 124.942 115.289 124.799 114.294 124.434C113.299 124.069 112.397 123.491 111.65 122.741L66.5554 124.196L60.7895 124.382C54.8587 124.573 51.4425 117.726 55.1701 113.12L59.1753 108.17L73.5007 110.412L78.6806 110.638L112.009 112.096C113.356 110.928 115.085 110.293 116.869 110.312C118.653 110.332 120.368 111.003 121.689 112.2C123.01 113.397 123.845 115.036 124.036 116.806C124.228 118.576 123.761 120.354 122.726 121.804L122.726 121.804Z" fill="#FFB6B6"/>
<path d="M82.9476 65.722C82.9476 65.722 74.3516 63.5457 70.2773 70.5466C67.0155 76.1514 55.9198 97.3491 53.6165 106.049C42.3779 133.075 68.508 122.313 67.7769 124.862L76.5187 110.544C80.3171 108.649 73.0056 111.094 72.0425 109.736L78.7436 102.468L86.3403 98.6781L89.1278 69.0044L82.9476 65.722Z" fill="#FF00F5"/>
</g>
<defs>
<clipPath id="clip0_7_30">
<rect width="209" height="168" fill="white"/>
</clipPath>
</defs>
</svg>
