<svg width="632" height="495" viewBox="0 0 632 495" fill="none" xmlns="http://www.w3.org/2000/svg">
<g clip-path="url(#clip0_7_408)">
<path opacity="0.1" d="M199.545 17.4688C216.707 2.14316 243.657 -0.959641 268.224 0.217893C345.326 4.05665 414.922 41.3138 475.126 83.4637C496.924 98.7186 518.38 115.163 532.525 136.176C561.345 178.95 552.781 238.203 512.739 273.441C499.111 285.428 482.596 294.637 465.639 302.768C435.49 317.251 402.959 328.879 368.74 332.206C344.343 334.561 319.641 332.648 295.379 329.356C227.606 320.154 161.079 299.806 105.316 264.998C80.8601 249.731 57.7984 230.75 47.7291 206.051C37.6598 181.352 44.1002 150.053 69.0734 135.434C79.4014 129.387 91.7528 126.656 103.839 124.089C121.637 120.315 139.717 116.594 155.774 108.922C172.366 100.997 192.004 85.6715 188.711 68.1263C185.194 49.3034 182.37 32.7767 199.545 17.4688Z" fill="#0007FF"/>
<path opacity="0.1" d="M271.1 489.018C314.348 489.018 349.407 478.031 349.407 464.478C349.407 450.925 314.348 439.938 271.1 439.938C227.852 439.938 192.792 450.925 192.792 464.478C192.792 478.031 227.852 489.018 271.1 489.018Z" fill="#0007FF"/>
<path d="M431.679 212.097L434.52 363.246L440.56 363.958L438.284 211.497L431.679 212.097Z" fill="#F5C5CC"/>
<path d="M417.075 209.254L419.916 360.402L425.956 361.114L423.68 208.653L417.075 209.254Z" fill="#F5C5CC"/>
<path d="M420.645 201.352L420.939 366.207L427.115 365.618L424.762 198.114L420.645 201.352Z" fill="#CC929B"/>
<path d="M250.297 173.828L252.902 310.84L258.943 311.475L256.908 173.274L250.297 173.828Z" fill="#F5C5CC"/>
<path d="M253.785 171.266L256.772 313.866L258.943 311.475L256.908 173.274L253.785 171.266Z" fill="#CC929B"/>
<path d="M263.148 177.295L265.754 314.301L271.794 314.937L269.759 176.742L263.148 177.295Z" fill="#F5C5CC"/>
<path d="M266.636 174.728L269.63 317.328L271.794 314.937L269.759 176.742L266.636 174.728Z" fill="#CC929B"/>
<path d="M275.711 181.052L278.317 318.064L284.357 318.7L282.322 180.504L275.711 181.052Z" fill="#F5C5CC"/>
<path d="M279.199 178.496L282.193 321.09L284.357 318.7L282.322 180.504L279.199 178.496Z" fill="#CC929B"/>
<path d="M287.933 181.817L290.615 323.639L296.655 324.299L294.538 181.252L287.933 181.817Z" fill="#F5C5CC"/>
<path d="M291.415 179.168L294.491 326.772L296.655 324.299L294.538 181.252L291.415 179.168Z" fill="#CC929B"/>
<path d="M301.184 182.924L303.872 324.74L309.913 325.4L307.795 182.353L301.184 182.924Z" fill="#F5C5CC"/>
<path d="M304.672 180.275L307.748 327.873L309.913 325.4L307.795 182.353L304.672 180.275Z" fill="#CC929B"/>
<path d="M314.206 187.558L316.888 329.38L322.928 330.039L320.817 186.992L314.206 187.558Z" fill="#F5C5CC"/>
<path d="M317.688 184.908L320.764 332.512L322.928 330.039L320.817 186.992L317.688 184.908Z" fill="#CC929B"/>
<path d="M329.11 190.619L331.863 336.398L337.903 337.075L335.721 190.036L329.11 190.619Z" fill="#F5C5CC"/>
<path d="M332.592 187.899L335.739 339.619L337.903 337.075L335.721 190.036L332.592 187.899Z" fill="#CC929B"/>
<path d="M342.079 192.168L344.826 337.946L350.872 338.624L348.684 191.585L342.079 192.168Z" fill="#F5C5CC"/>
<path d="M345.561 189.442L348.707 341.167L350.872 338.623L348.684 191.585L345.561 189.442Z" fill="#CC929B"/>
<path d="M355.818 196.054L358.571 341.832L364.611 342.515L362.429 195.477L355.818 196.054Z" fill="#F5C5CC"/>
<path d="M359.306 193.333L362.447 345.059L364.611 342.515L362.429 195.476L359.306 193.333Z" fill="#CC929B"/>
<path d="M238.528 173.586L238.234 164.908L241.292 163.236L460.64 208.27L461.046 219.286L238.528 173.586Z" fill="#F5C5CC"/>
<path d="M241.292 163.236L461.446 208.235L461.222 212.362L238.687 164.655" fill="#CC929B"/>
<path d="M250.373 389.569L244.198 391.819H238.316L238.022 159.526L241.257 155.028L244.38 154.11L248.315 153.515L250.373 389.569Z" fill="#F5C5CC"/>
<path d="M250.373 389.569L244.198 391.819L243.815 159.986L244.38 154.11L248.315 153.515L250.373 389.569Z" fill="#CC929B"/>
<path d="M370.746 200.369L373.498 346.142L379.539 346.825L377.357 199.786L370.746 200.369Z" fill="#F5C5CC"/>
<path d="M374.228 197.643L377.374 349.368L379.539 346.825L377.357 199.786L374.228 197.643Z" fill="#CC929B"/>
<path d="M385.785 202.671L388.59 351.565L394.631 352.259L392.39 202.083L385.785 202.671Z" fill="#F5C5CC"/>
<path d="M401.271 205.397L404.112 356.546L410.152 357.258L407.882 204.797L401.271 205.397Z" fill="#F5C5CC"/>
<path d="M404.753 202.577L407.994 359.896L410.152 357.258L407.882 204.797L404.753 202.577Z" fill="#CC929B"/>
<path d="M164.796 345.012L158.62 345.6L158.332 182.989L158.326 180.746L162.444 177.507L162.508 182.017L164.796 345.012Z" fill="#F5C5CC"/>
<path d="M186.558 335.886L180.382 336.474L180.094 176.518L180.088 171.62L184.205 168.381L184.299 174.952L186.558 335.886Z" fill="#F5C5CC"/>
<path d="M222.436 321.167L216.26 321.755L215.978 163.819L215.966 156.901L220.083 153.662L220.212 162.835L222.436 321.167Z" fill="#F5C5CC"/>
<path d="M238.022 315.279L231.846 315.868L231.57 161.787L231.552 151.013L235.669 147.775L235.881 162.741L238.022 315.279Z" fill="#F5C5CC"/>
<path d="M175.677 343.245L169.501 343.834L169.207 180.157V178.979L173.325 175.741L173.366 178.844L175.677 343.245Z" fill="#F5C5CC"/>
<path d="M207.438 328.526L201.262 329.115L200.974 168.523L200.968 164.26L205.085 161.022L205.167 167.063L207.438 328.526Z" fill="#F5C5CC"/>
<path d="M197.145 331.47L190.969 332.059L190.687 172.438L190.675 167.204L194.792 163.966L194.886 170.784L197.145 331.47Z" fill="#F5C5CC"/>
<path d="M158.209 317.846L156.738 320.937C156.738 320.937 152.915 326.677 153.357 335.509C153.798 344.34 147.198 367.744 147.198 367.744C147.198 367.744 153.227 370.54 157.785 370.246C162.344 369.952 172.195 374.809 172.195 374.809L192.616 381.15L233.934 390.865C233.934 390.865 258.196 404.406 264.813 404.406C271.429 404.406 297.749 413.385 297.749 413.385C297.749 413.385 333.333 421.186 336.127 424.13C338.921 427.074 350.701 431.036 351.878 431.195C353.054 431.354 370.993 433.109 370.993 433.109C370.993 433.109 391.872 437.966 394.813 432.814C396.527 429.917 397.675 426.721 398.195 423.394C398.195 423.394 407.459 425.455 409.958 422.364C412.458 419.273 412.605 412.649 415.546 412.944C418.487 413.238 430.544 416.918 431.867 415.593C433.191 414.268 440.249 398.666 445.248 401.021C450.247 403.376 458.923 407.056 458.923 407.056L453.923 356.127L451.718 342.144C451.718 342.144 371.581 374.821 368.787 374.821C365.993 374.821 158.209 317.846 158.209 317.846Z" fill="#0007FF"/>
<path d="M451.276 273.247L450.835 345.076L367.593 377.029L156.738 320.949C156.738 320.949 142.476 300.783 155.709 281.943C155.709 281.943 138.653 258.392 159.826 243.084L160.35 242.961L240.404 223.655L276.005 230.167L433.308 258.969C433.308 258.969 448.759 264.71 451.276 273.247Z" fill="#E600DC"/>
<path opacity="0.1" d="M273.194 237.038C269.224 239.098 240.404 246.605 234.669 251.168C228.935 255.731 189.234 259.275 189.234 259.275L184.823 260.158C184.823 260.158 185.117 257.215 167.619 248.678C164.824 247.301 162.347 245.353 160.35 242.961L240.404 223.655L276.005 230.167C276.052 232.987 275.57 235.801 273.194 237.038Z" fill="black"/>
<path d="M152.18 208.641C152.18 208.641 150.71 237.197 168.207 245.734C185.705 254.271 185.429 257.203 185.429 257.203L189.84 256.32C189.84 256.32 174.548 239.245 175.577 236.302C176.606 233.358 161.902 218.491 159.826 217.903C157.75 217.314 152.18 208.641 152.18 208.641Z" fill="#0007FF"/>
<path opacity="0.1" d="M152.492 209.071C152.492 209.071 151.021 237.626 168.519 246.163C186.017 254.701 185.723 257.644 185.723 257.644L190.134 256.761C190.134 256.761 174.842 239.687 175.871 236.743C176.9 233.799 162.179 218.933 160.138 218.344C158.097 217.755 152.492 209.071 152.492 209.071Z" fill="black"/>
<path opacity="0.1" d="M156.609 221.141C156.609 221.141 170.725 242.484 173.225 243.22C175.724 243.956 159.973 221.435 156.609 221.141Z" fill="black"/>
<path d="M150.139 204.655C150.139 204.655 159.256 197.296 160.432 195.824C161.608 194.352 174.548 193.763 174.989 193.763C175.43 193.763 185.282 187.728 196.31 185.815C207.338 183.901 211.749 183.018 211.749 183.018C211.749 183.018 227.923 176.247 228.805 174.776C229.688 173.304 237.187 171.684 246.45 178.897C255.714 186.109 276.152 218.491 276.299 222.024C276.446 225.557 277.77 232.033 273.8 234.094C269.83 236.154 241.01 243.661 235.275 248.224C229.541 252.787 189.822 256.331 189.822 256.331L174.842 239.981L166.902 227.176L153.668 213.193L150.139 204.655Z" fill="#0007FF"/>
<path opacity="0.1" d="M174.724 331.782C174.724 331.782 169.237 332.959 172.372 336.098C175.507 339.236 174.724 331.782 174.724 331.782Z" fill="black"/>
<path opacity="0.1" d="M193.939 338.064C193.939 338.064 188.058 345.129 189.234 347.09C190.41 349.051 193.939 338.064 193.939 338.064Z" fill="black"/>
<path opacity="0.1" d="M228.447 347.09C228.447 347.09 222.565 354.155 223.741 356.116C224.918 358.076 228.447 347.09 228.447 347.09Z" fill="black"/>
<path opacity="0.1" d="M270.4 358.865C270.4 358.865 264.518 365.93 265.695 367.891C266.871 369.852 270.4 358.865 270.4 358.865Z" fill="black"/>
<path opacity="0.1" d="M326.863 372.996C326.863 372.996 320.982 380.061 322.158 382.021C323.334 383.982 326.863 372.996 326.863 372.996Z" fill="black"/>
<path opacity="0.1" d="M210.802 340.025C210.802 340.025 204.92 347.09 206.097 349.051C207.273 351.011 210.802 340.025 210.802 340.025Z" fill="black"/>
<path opacity="0.1" d="M292.75 364.753C292.75 364.753 286.869 371.818 288.045 373.779C289.221 375.739 292.75 364.753 292.75 364.753Z" fill="black"/>
<path opacity="0.1" d="M310.001 370.246C310.001 370.246 304.119 377.311 305.295 379.278C306.472 381.244 310.001 370.246 310.001 370.246Z" fill="black"/>
<path opacity="0.1" d="M243.739 351.8C243.739 351.8 237.857 358.865 239.034 360.826C240.21 362.786 243.739 351.8 243.739 351.8Z" fill="black"/>
<path opacity="0.1" d="M391.955 394.586L398.178 423.382C398.178 423.382 398.225 403.217 391.955 394.586Z" fill="black"/>
<path opacity="0.1" d="M411.164 398.901L415.528 412.944C415.528 412.944 415.087 407.539 411.164 398.901Z" fill="black"/>
<path opacity="0.1" d="M431.867 415.581C431.867 415.581 422.557 381.633 420.592 379.278C418.628 376.923 426.262 413.426 431.867 415.581Z" fill="black"/>
<path opacity="0.1" d="M442.925 399.684C442.925 399.684 431.95 380.455 436.261 376.923C440.572 373.39 442.925 399.684 442.925 399.684Z" fill="black"/>
<path opacity="0.1" d="M155.709 281.931L368.817 329.821L450.771 305.876L368.034 327.466C368.034 327.466 162.179 279.971 155.709 281.931Z" fill="black"/>
<path d="M162.149 229.908L162.443 366.943L168.472 367.679L168.766 229.466L162.149 229.908Z" fill="#F5C5CC"/>
<path d="M165.678 227.405L166.267 370.034L168.472 367.679L168.766 229.466L165.678 227.405Z" fill="#CC929B"/>
<path d="M174.942 233.587L175.236 370.623L181.265 371.359L181.559 233.146L174.942 233.587Z" fill="#F5C5CC"/>
<path d="M178.471 231.085L179.059 373.714L181.265 371.359L181.559 233.146L178.471 231.085Z" fill="#CC929B"/>
<path d="M187.44 237.562L187.734 374.597L193.763 375.333L194.057 237.12L187.44 237.562Z" fill="#F5C5CC"/>
<path d="M190.969 235.059L191.557 377.688L193.763 375.333L194.057 237.12L190.969 235.059Z" fill="#CC929B"/>
<path d="M199.645 238.533L199.939 380.379L205.967 381.138L206.261 238.074L199.645 238.533Z" fill="#F5C5CC"/>
<path d="M203.174 235.943L203.762 383.576L205.967 381.138L206.261 238.074L203.174 235.943Z" fill="#CC929B"/>
<path d="M212.878 239.858L213.172 381.704L219.201 382.463L219.495 239.399L212.878 239.858Z" fill="#F5C5CC"/>
<path d="M216.407 237.267L216.995 384.901L219.201 382.463L219.495 239.399L216.407 237.267Z" fill="#CC929B"/>
<path d="M225.818 244.715L226.112 386.561L232.14 387.32L232.434 244.256L225.818 244.715Z" fill="#F5C5CC"/>
<path d="M229.347 242.125L229.935 389.758L232.14 387.32L232.434 244.256L229.347 242.125Z" fill="#CC929B"/>
<path d="M244.198 245.363L244.786 397.118L246.991 394.609L247.285 247.553L244.198 245.363Z" fill="#CC929B"/>
<path d="M253.608 249.79L253.902 395.593L259.931 396.376L260.225 249.319L253.608 249.79Z" fill="#F5C5CC"/>
<path d="M257.137 247.129L257.725 398.884L259.931 396.376L260.225 249.319L257.137 247.129Z" fill="#CC929B"/>
<path d="M267.283 253.912L267.577 399.714L273.606 400.497L273.9 253.441L267.283 253.912Z" fill="#F5C5CC"/>
<path d="M270.812 251.25L271.4 403.005L273.605 400.497L273.9 253.441L270.812 251.25Z" fill="#CC929B"/>
<path d="M282.134 258.475L282.428 404.277L288.456 405.06L288.751 258.004L282.134 258.475Z" fill="#F5C5CC"/>
<path d="M285.663 255.813L286.251 407.568L288.457 405.06L288.751 258.004L285.663 255.813Z" fill="#CC929B"/>
<path d="M297.132 261.036L297.426 409.947L303.455 410.747L303.749 260.553L297.132 261.036Z" fill="#F5C5CC"/>
<path d="M300.661 258.316L301.249 413.309L303.455 410.748L303.749 260.553L300.661 258.316Z" fill="#CC929B"/>
<path d="M312.571 264.021L312.865 415.198L318.894 416.011L319.188 263.532L312.571 264.021Z" fill="#CC929B"/>
<path d="M328.304 268.142L328.598 419.32L334.627 420.132L334.921 267.654L328.304 268.142Z" fill="#F5C5CC"/>
<path d="M331.833 265.381L332.421 422.729L334.627 420.132L334.921 267.654L331.833 265.381Z" fill="#CC929B"/>
<path d="M342.861 271.233L343.155 422.411L349.184 423.223L349.478 270.745L342.861 271.233Z" fill="#CC929B"/>
<path d="M154.209 393.585L148.034 395.94H142.152L141.858 179.862L145.093 175.152L148.216 174.193L152.739 172.797L154.209 393.585Z" fill="#F5C5CC"/>
<path d="M154.209 393.585L148.034 395.94L147.651 180.339L148.216 174.193L152.739 172.797L154.209 393.585Z" fill="#CC929B"/>
<path d="M148.622 402.711C152.52 402.711 155.68 399.548 155.68 395.646C155.68 391.744 152.52 388.58 148.622 388.58C144.724 388.58 141.564 391.744 141.564 395.646C141.564 399.548 144.724 402.711 148.622 402.711Z" fill="#40414D"/>
<path d="M470.051 426.662L463.875 428.911H457.993L457.699 191.32L460.934 192.121L464.057 191.202L468.58 189.871L470.051 426.662Z" fill="#F5C5CC"/>
<path d="M470.051 426.662L463.875 428.911L463.493 197.078L464.057 191.202L468.58 189.871L470.051 426.662Z" fill="#CC929B"/>
<path d="M384.473 382.104L378.298 382.693L378.015 223.967L378.004 217.838L382.121 214.6L382.238 223.06L384.473 382.104Z" fill="#F5C5CC"/>
<path d="M406.235 372.978L400.06 373.567L399.783 217.773L399.766 208.712L403.883 205.474L404.036 216.225L406.235 372.978Z" fill="#F5C5CC"/>
<path d="M442.113 358.259L435.937 358.848L435.661 203.419L435.643 193.993L439.76 190.755L439.913 201.653L442.113 358.259Z" fill="#F5C5CC"/>
<path d="M451.229 188.105L451.524 352.96L457.699 352.371L455.347 184.867L451.229 188.105Z" fill="#F5C5CC"/>
<path d="M395.354 380.338L389.179 380.926L388.896 221.3L388.885 216.072L393.002 212.833L393.102 220.022L395.354 380.338Z" fill="#F5C5CC"/>
<path d="M416.822 368.562L410.646 369.151L410.37 213.77L410.352 204.296L414.47 201.058L414.622 212.056L416.822 368.562Z" fill="#F5C5CC"/>
<path d="M428.779 364.635L422.604 365.224L422.327 209.842V208.918L422.31 200.369L426.427 197.131L426.568 207.175L426.58 208.129L428.779 364.635Z" fill="#F5C5CC"/>
<path d="M372.122 381.027L457.405 344.717L463.287 346.089L463.481 359.631L373.692 394.368L372.122 381.027Z" fill="#F5C5CC"/>
<path d="M457.405 344.717L372.122 381.027L462.969 346.013" fill="#CC929B"/>
<path d="M151.168 361.792L366.24 427.145L365.846 437.742L150.386 371.212L151.168 361.792Z" fill="#F5C5CC"/>
<path d="M375.651 464.237L369.475 466.592H363.594L363.3 224.609V223.431L363.758 222.76L366.535 218.721L369.658 217.761L374.181 216.366L374.228 224.609L375.651 464.237Z" fill="#F5C5CC"/>
<path d="M375.651 464.237L369.475 466.592L369.093 223.908L369.658 217.761L374.181 216.366L375.651 464.237Z" fill="#CC929B"/>
<path opacity="0.1" d="M374.181 216.366L374.228 224.609C372.526 224.858 370.812 225.019 369.093 225.091C364.858 225.256 363.3 224.615 363.3 224.615C363.3 224.532 363.464 223.873 363.758 222.772L366.535 218.733L369.658 217.773L374.181 216.366Z" fill="black"/>
<path opacity="0.1" d="M382.121 214.6L382.238 223.06C380.721 223.414 379.313 223.716 378.015 223.967V217.838L382.121 214.6Z" fill="black"/>
<path opacity="0.1" d="M393.002 212.833L393.102 220.022C391.637 220.487 390.231 220.911 388.896 221.3V216.072L393.002 212.833Z" fill="black"/>
<path opacity="0.1" d="M403.883 205.474L404.036 216.225C402.565 216.77 401.148 217.287 399.783 217.773V208.712L403.883 205.474Z" fill="black"/>
<path opacity="0.1" d="M414.47 201.058L414.622 212.056L411.235 213.422L410.37 213.77V204.296L414.47 201.058Z" fill="black"/>
<path opacity="0.1" d="M439.913 201.653L435.661 203.419V193.999L439.778 190.76L439.913 201.653Z" fill="black"/>
<path opacity="0.1" d="M426.574 207.175L422.333 208.942V200.393L426.45 197.155L426.574 207.175Z" fill="black"/>
<path d="M472.109 195.17C472.109 195.17 461.228 195.17 458.287 194.287C455.346 193.404 449.171 196.937 411.235 212.245C388.296 221.506 375.563 223.655 369.093 223.908C364.858 224.073 363.3 223.431 363.3 223.431C363.3 223.431 371.046 187.858 395.713 181.211C398.464 180.461 401.168 179.551 403.812 178.485L404.288 178.302C406.36 177.499 408.484 176.84 410.646 176.33C418.563 174.511 424.215 171.031 438.525 170.925C447.404 170.776 456.069 173.654 463.098 179.085C468.004 182.948 472.233 188.288 472.109 195.17Z" fill="#CC929B"/>
<path d="M405.353 178.096C374.828 191.273 370.169 215.901 369.093 223.908C364.858 224.073 363.3 223.431 363.3 223.431C363.3 223.431 371.046 187.858 395.713 181.211C398.464 180.461 401.168 179.551 403.812 178.485L404.288 178.302C404.641 178.249 404.994 178.179 405.353 178.096Z" fill="#F5C5CC"/>
<path opacity="0.1" d="M162.444 177.507L162.508 182.017C161.02 182.388 159.632 182.712 158.332 182.989V180.746L162.444 177.507Z" fill="black"/>
<path opacity="0.1" d="M173.325 175.741L173.366 178.844C171.919 179.323 170.533 179.76 169.207 180.157V178.979L173.325 175.741Z" fill="black"/>
<path opacity="0.1" d="M184.205 168.381L184.299 174.952C182.853 175.506 181.451 176.028 180.094 176.518V171.62L184.205 168.381Z" fill="black"/>
<path opacity="0.1" d="M194.792 163.966L194.886 170.784C193.534 171.306 192.134 171.857 190.687 172.438V167.204L194.792 163.966Z" fill="black"/>
<path opacity="0.1" d="M205.085 161.022L205.167 167.063C203.834 167.51 202.436 167.997 200.974 168.523V164.26L205.085 161.022Z" fill="black"/>
<path opacity="0.1" d="M220.083 153.662L220.213 162.835C218.913 163.106 217.507 163.424 215.978 163.819V156.901L220.083 153.662Z" fill="black"/>
<path opacity="0.1" d="M235.881 162.718C234.497 162.195 233.045 161.874 231.57 161.764V150.989L235.687 147.751L235.881 162.718Z" fill="black"/>
<path d="M250.667 162.788C250.667 162.788 239.786 162.788 236.846 161.905C233.905 161.022 227.729 156.312 189.793 171.62C166.855 180.881 154.121 183.03 147.651 183.283C143.417 183.448 141.858 182.806 141.858 182.806C141.858 182.806 147.698 151.896 173.454 146.68C174.891 146.399 176.311 146.035 177.706 145.59C179.288 145.072 181.782 144.33 185.135 143.559C193.781 141.569 208.114 139.385 227.165 140.309C233.767 140.557 240.03 143.305 244.686 147.998C246.634 149.928 248.169 152.234 249.197 154.777C250.226 157.32 250.726 160.046 250.667 162.788Z" fill="#CC929B"/>
<path d="M185.135 143.559C154.609 156.736 148.728 175.276 147.651 183.283C143.417 183.448 141.858 182.806 141.858 182.806C141.858 182.806 147.698 151.896 173.454 146.68C174.891 146.399 176.311 146.035 177.706 145.59C179.288 145.055 181.782 144.33 185.135 143.559Z" fill="#F5C5CC"/>
<path d="M150.386 229.466L150.239 220.782L153.327 219.163L364.476 266.558L363.888 277.598L150.386 229.466Z" fill="#F5C5CC"/>
<path d="M153.327 219.163L364.476 266.558L364.182 270.68L150.698 220.54" fill="#CC929B"/>
<path d="M463.875 435.976C467.773 435.976 470.933 432.813 470.933 428.911C470.933 425.009 467.773 421.846 463.875 421.846C459.977 421.846 456.817 425.009 456.817 428.911C456.817 432.813 459.977 435.976 463.875 435.976Z" fill="#40414D"/>
<path d="M370.358 476.012C374.256 476.012 377.415 472.849 377.415 468.947C377.415 465.045 374.256 461.882 370.358 461.882C366.46 461.882 363.3 465.045 363.3 468.947C363.3 472.849 366.46 476.012 370.358 476.012Z" fill="#40414D"/>
<path d="M158.426 323.716C158.426 323.716 152.151 330.781 150.192 337.063C148.234 343.345 152.545 366.896 152.545 366.896C154.755 362.978 156.342 358.739 157.25 354.332C158.815 346.878 158.426 323.716 158.426 323.716Z" fill="#0007FF"/>
<path d="M456.229 382.398C456.229 382.398 460.052 401.828 460.346 404.771C460.64 407.715 450.641 403.3 450.641 403.3L456.229 382.398Z" fill="#0007FF"/>
<path d="M340.362 141.999H340.262C340.238 141.799 340.163 141.608 340.044 141.445C339.775 141.131 339.442 140.878 339.068 140.703L336.309 139.167L338.691 140.032C338.579 139.84 338.456 139.655 338.321 139.479L338.597 139.632L338.409 139.367L338.156 139.279C336.886 137.789 334.768 137.171 332.715 137.2H332.751C333.015 137.165 333.286 137.141 333.551 137.124C332.962 137.087 332.371 137.105 331.786 137.177C331.852 137.205 331.921 137.225 331.992 137.236C331.804 137.236 331.616 137.271 331.404 137.295C331.102 137.377 330.783 137.377 330.48 137.295C330.294 137.2 330.133 137.062 330.009 136.894C329.885 136.725 329.803 136.529 329.769 136.323C329.475 135.146 329.939 133.88 330.075 132.649C330.141 132.072 330.079 131.486 329.892 130.936C329.892 130.818 329.892 130.7 329.892 130.583C329.795 130.322 329.638 130.088 329.434 129.9C329.229 129.712 328.983 129.574 328.716 129.499C328.713 129.544 328.713 129.59 328.716 129.635L328.616 129.593C328.616 130.647 328.616 131.707 328.616 132.761C327.702 132.04 326.893 131.196 326.21 130.253C326.089 130.109 326.006 129.937 325.969 129.752C325.91 129.217 326.593 128.846 326.634 128.304C326.632 128.13 326.573 127.961 326.467 127.824C326.361 127.686 326.213 127.586 326.046 127.539L326.222 127.474C326.013 127.377 325.782 127.336 325.552 127.356C325.048 127.471 324.553 127.621 324.07 127.804L324.222 127.833C324.109 127.871 323.993 127.902 323.875 127.927C322.399 128.233 321.082 127.056 320.017 125.99L319.788 125.761C319.282 121.327 318.464 116.246 318.464 116.246C318.464 116.246 317.729 110.441 316.7 107.32C315.671 104.2 314.188 98.6891 314.188 98.6891C314.188 98.6891 310.801 91.9948 310.071 91.7004C309.787 91.5582 309.51 91.401 309.242 91.2294C308.924 90.2281 308.726 89.1924 308.654 88.1442C308.472 82.2919 314.718 78.1352 315.659 72.3359C316.429 67.6257 313.465 62.9156 313.894 58.1407C314.094 56.0506 314.935 54.0841 315.388 52.0352C315.818 50.0475 315.876 47.9973 315.559 45.9885C315.409 44.9084 315.083 43.8602 314.594 42.8857C315.449 41.78 316.163 40.5715 316.718 39.2884C317.67 36.5683 316.641 33.5302 315.153 31.0456C310.371 23.1385 300.684 16.9152 291.627 16.1086C287.974 15.773 284.31 15.7082 280.652 15.6494C276.452 15.5728 272.112 15.5257 268.23 17.1507C260.513 20.3831 256.861 29.0203 252.173 35.9913C248.301 41.7566 243.342 46.7104 237.575 50.575C234.864 52.3884 231.693 54.3196 231.058 57.5401C230.998 57.849 230.96 58.1619 230.946 58.4763C230.867 58.1932 230.802 57.9063 230.752 57.6167C230.111 60.9785 232.481 64.0931 233.693 67.3019C234.326 68.9789 234.691 70.7453 234.775 72.536C234.822 71.6889 234.822 70.8397 234.775 69.9926C235.952 76.104 233.793 82.6628 232.458 88.9096C232.358 89.3689 232.282 89.8281 232.187 90.2874C231.092 90.5933 230.049 91.0637 229.094 91.6827C226.999 93.0781 224.627 94.0021 222.142 94.3911C218.807 94.9153 215.807 96.7187 213.778 99.4191C213.402 99.9255 213.037 100.273 212.719 100.308C211.396 100.461 204.02 123.517 204.02 123.517C204.02 123.517 202.485 133.014 202.485 135.24C202.485 137.465 199.833 153.539 199.833 153.539C199.833 153.539 198.945 156.482 199.245 157.701C199.415 158.378 199.009 160.645 198.627 162.47C198.467 162.403 198.325 162.298 198.215 162.164C197.774 161.275 189.658 162.164 192.169 168.116C192.793 169.718 193.763 171.161 195.01 172.344C193.892 175.146 192.922 177.755 193.051 178.084C193.051 178.084 193.051 180.21 193.24 182.836C191.516 184.013 190.105 185.073 190.105 185.073C189.981 188.323 192.146 188.841 194.181 188.723C194.704 190.607 195.469 192.103 196.592 192.509C200.28 193.851 202.638 193.257 203.821 194.275C205.003 195.294 211.308 197.272 211.308 197.272C213.986 197.676 216.683 197.934 219.389 198.044L220.471 198.585L220.342 197.996C220.689 197.932 220.53 197.52 220.095 196.819C219.901 195.918 219.654 194.741 219.377 193.398L220.995 192.809L221.436 193.463C220.848 196.548 220.471 198.603 220.471 198.603C220.471 198.603 217.53 209.165 218.848 210.802C220.165 212.439 218.848 214.523 218.848 214.523C218.848 214.523 218.554 217.196 219.295 217.196C220.036 217.196 220.912 220.617 220.177 220.77C219.442 220.923 216.06 223.743 217.236 224.338C218.413 224.932 217.236 226.269 217.236 227.611C217.236 228.589 219.036 230.037 220.013 230.749C219.836 231.385 219.654 232.062 219.483 232.728C218.977 234.694 218.583 236.59 218.707 237.279C219.001 238.916 217.972 243.526 218.266 245.015C218.56 246.505 219.595 249.773 218.854 251.115C218.113 252.457 219.001 256.914 219.001 256.914L220.33 269.555C220.33 269.555 219.448 273.129 220.33 274.018C221.212 274.907 221.953 285.328 222.836 286.518C223.718 287.707 225.053 293.954 224.012 296.038C222.971 298.122 225.341 302.432 225.341 302.432C225.341 302.432 225.194 307.489 225.194 308.826C225.194 310.162 226.518 312.247 226.518 312.247C226.518 312.247 227.847 319.388 227.694 321.172C227.541 322.956 228.576 325.488 228.576 325.488C228.576 325.488 229.464 330.693 229.317 331.882C229.17 333.071 230.494 334.708 230.494 334.708C230.494 334.708 232.117 338.576 231.67 340.213C231.223 341.85 232.699 343.487 232.699 343.487C232.699 343.487 232.552 347.055 232.552 347.502C232.552 347.949 235.652 351.517 235.652 351.517C235.652 351.517 234.322 354.196 235.064 355.238C235.805 356.28 235.652 359.996 236.828 361.191C238.004 362.386 237.71 367.285 239.181 368.179C240.651 369.074 241.98 369.816 242.274 371.747C242.568 373.679 243.751 376.511 245.08 376.958C245.332 377.131 245.551 377.349 245.727 377.6L245.139 380.102L243.321 387.668C243.321 387.668 241.557 398.672 241.698 400.308C241.839 401.945 239.933 403.582 239.933 403.582C239.933 403.582 238.31 413.102 238.016 414.292C237.722 415.481 238.163 417.712 238.163 417.712C238.163 417.712 237.134 423.365 237.869 423.665C238.604 423.965 241.704 427.086 241.704 427.086H241.945L241.627 428.204L236.54 446.279C236.54 446.279 231.835 454.163 242.739 458.178C243.104 458.885 243.439 458.903 243.045 458.767C243.404 459.073 250.691 465.244 251.279 468.134C251.867 471.025 256.884 474.081 258.655 474.381C260.425 474.682 272.223 484.196 276.499 474.829C280.775 465.461 268.977 459.356 268.977 459.356L259.996 453.568C259.996 453.568 255.426 446.874 254.702 445.685C253.979 444.495 252.638 438.69 253.526 437.801C253.979 437.342 255.396 433.268 256.678 429.394C256.796 429.023 256.919 428.658 257.037 428.293C259.543 428.881 262.378 427.704 262.378 427.704L268.947 417.33L270.124 415.51L270.335 415.934C270.335 415.934 275.794 416.382 278.446 416.829C279.289 416.864 280.132 416.758 280.94 416.517C281.04 416.735 281.14 416.959 281.234 417.183C281.878 418.561 282.424 419.984 282.869 421.439C283.31 423.37 283.757 430.212 283.757 430.212C283.757 430.212 280.816 440.033 280.069 441.817C279.322 443.601 280.805 458.479 295.409 452.526C295.409 452.526 297.173 449.7 298.796 449.7C300.42 449.7 304.402 445.685 302.913 441.369C301.425 437.053 295.267 423.818 299.526 416.829C302.961 411.201 302.684 403.653 298.067 400.144C297.873 399.996 297.667 399.867 297.479 399.737C297.529 398.989 297.529 398.237 297.479 397.488C296.444 383.211 289.833 382.463 289.833 382.463C289.833 382.463 285.998 381.574 285.557 380.108C285.298 379.248 281.975 374.809 279.222 371.2C279.317 371.047 279.405 370.894 279.493 370.741C279.493 370.688 279.552 370.635 279.575 370.582C279.705 370.34 279.828 370.093 279.946 369.834C282.087 365.018 281.534 358.011 281.422 356.757C281.275 355.121 281.422 353.036 281.422 350.658C281.422 348.279 283.775 344.705 283.487 343.369C283.198 342.032 286.292 336.527 286.292 335.185C286.292 333.843 288.462 325.806 288.462 325.806C288.462 325.806 292.738 316.58 293.626 313.901C294.473 311.334 309.577 264.539 310.801 260.747C310.823 260.663 310.851 260.581 310.883 260.5C310.883 260.5 315.706 244.703 312.477 234.329C312.267 233.644 312.014 232.974 311.718 232.322C312.706 231.845 313.389 231.497 313.389 231.497C313.389 231.497 311.471 225.845 312.353 223.761C313.236 221.677 312.648 217.661 312.648 217.661C312.648 217.661 309.119 215.577 308.966 214.688C308.813 213.799 307.342 212.604 307.789 211.414C308.236 210.225 310.73 210.826 310.442 208.141C310.154 205.456 307.054 202.636 307.348 200.999C307.642 199.362 308.819 196.389 307.348 194.605C305.878 192.821 305.284 189.995 305.137 187.764C305.096 187.175 305.225 185.438 305.431 183.148C307.003 184.127 308.627 185.021 310.295 185.827C310.295 185.827 316.635 186.722 316.935 186.127C317.502 185.369 318.145 184.671 318.853 184.043C326.816 182.111 323.276 167.557 323.276 167.557C323.276 167.557 323.158 166.491 322.97 164.737C323.17 164.686 323.358 164.596 323.523 164.472C324.199 163.977 324.364 163.035 324.775 162.294C325.244 161.592 325.793 160.948 326.41 160.374C327.869 158.785 328.734 156.753 329.569 154.757C330.098 153.486 330.639 152.214 331.174 150.936C331.71 149.659 332.351 148.134 333.527 147.209C334.88 146.12 336.715 145.908 338.438 145.749C338.369 144.428 337.876 143.165 337.033 142.146C337.551 141.987 338.098 141.947 338.633 142.029C339.169 142.11 339.679 142.311 340.126 142.617C340.15 142.577 340.172 142.536 340.191 142.493H340.226C340.325 142.348 340.372 142.174 340.362 141.999ZM214.419 182.736C214.454 182.441 214.507 182.147 214.572 181.852C214.86 181.582 215.207 181.264 215.578 180.969L217.636 181.169C217.131 181.582 216.689 181.958 216.331 182.265C215.695 181.941 215.001 182.259 214.419 182.736ZM218.536 178.655C218.828 178.634 219.115 178.573 219.389 178.473C219.783 178.473 220.189 178.473 220.601 178.473H221.189C220.207 179.162 219.213 179.927 218.33 180.64L218.536 178.702V178.655ZM221.93 148.628C221.93 148.628 221.795 152.856 222.095 157.107C221.636 157.43 221.159 157.784 220.689 158.155L221.73 148.352L221.93 148.628Z" fill="url(#paint0_linear_7_408)"/>
<path d="M298.749 449.076C297.132 449.076 295.367 451.873 295.367 451.873C280.81 457.761 279.34 443.041 280.075 441.275C280.81 439.509 283.751 429.794 283.751 429.794C283.751 429.794 283.31 423.023 282.869 421.11C282.423 419.671 281.879 418.264 281.24 416.9C280.252 414.645 279.193 412.425 279.193 412.425C279.193 412.425 285.516 396.823 293.897 398.295C295.391 398.545 296.803 399.151 298.014 400.061C302.619 403.535 302.896 411.006 299.467 416.547C295.203 423.465 301.378 436.565 302.849 440.833C304.319 445.102 300.367 449.076 298.749 449.076Z" fill="#FDC2CC"/>
<path d="M276.546 473.952C272.282 483.225 260.519 473.804 258.755 473.51C256.99 473.216 251.991 470.272 251.403 467.328C250.814 464.384 243.539 458.361 243.168 458.061C243.562 458.184 243.227 458.167 242.862 457.472C231.982 453.498 236.687 445.697 236.687 445.697L241.757 427.81L243.157 422.882L259.037 421.852C259.037 421.852 257.949 425.331 256.737 428.987C255.461 432.82 254.049 436.853 253.596 437.307C252.714 438.19 254.037 443.93 254.773 445.108C255.508 446.285 260.066 452.909 260.066 452.909L269.036 458.649C269.036 458.649 280.81 464.678 276.546 473.952Z" fill="#FDC2CC"/>
<path opacity="0.1" d="M259.049 421.846C259.049 421.846 257.961 425.325 256.749 428.982C255.919 428.743 255.183 428.256 254.637 427.586L241.845 427.881L241.769 427.804L243.168 422.876L259.049 421.846Z" fill="black"/>
<path d="M310.807 261.848C310.807 261.848 310.807 261.931 310.73 262.09C309.507 265.84 294.45 312.135 293.603 314.69C292.721 317.34 288.457 326.465 288.457 326.465C288.457 326.465 286.251 334.414 286.251 335.739C286.251 337.063 283.163 342.509 283.457 343.834C283.751 345.159 281.399 348.691 281.399 351.046C281.399 353.402 281.252 355.462 281.399 357.081C281.51 358.324 282.057 365.259 279.922 370.034C279.457 371.145 278.766 372.148 277.893 372.978C277.656 373.193 277.402 373.39 277.134 373.567C271.841 377.099 271.4 413.309 271.4 413.309L271.153 413.697L269.006 417.065L262.431 427.309C262.431 427.309 257.137 429.517 254.637 426.426L241.845 426.721C241.845 426.721 238.757 423.63 238.022 423.335C237.287 423.041 238.316 417.448 238.316 417.448C238.316 417.448 237.875 415.24 238.169 414.062C238.463 412.885 240.081 403.464 240.081 403.464C240.081 403.464 241.992 401.845 241.845 400.226C241.698 398.607 243.462 387.715 243.462 387.715L245.274 380.232L246.168 376.54L248.021 368.886L260.519 258.345L276.399 253.488L306.983 254.96L310.336 261.024L310.807 261.848Z" fill="#5F5D7E"/>
<path opacity="0.1" d="M267.724 316.162C267.577 318.959 266.842 323.227 267.136 325.729C267.43 328.232 268.459 337.652 268.018 339.418C267.577 341.185 269.635 343.245 270.371 344.128C271.106 345.012 270.665 347.661 270.812 349.722C270.959 351.782 272.87 353.696 272.87 353.696C272.87 353.696 270.665 358.406 272.282 359.142C273.9 359.878 277.281 366.649 277.281 366.649C277.281 366.649 278.417 368.079 279.922 370.022C279.346 371.441 278.38 372.666 277.134 373.555C271.841 377.088 271.4 413.297 271.4 413.297L271.153 413.685L267.871 407.115C267.871 407.115 248.315 377.529 246.991 377.088C246.672 376.963 246.389 376.76 246.168 376.499L248.021 368.845L260.519 258.304L276.399 253.447L306.983 254.918L290.88 256.538C290.88 256.538 283.722 261.677 283.675 261.836L270.812 267.283L268.459 302.609C268.459 302.609 267.871 313.365 267.724 316.162Z" fill="black"/>
<path opacity="0.1" d="M310.336 260.995C309.93 262.631 267.577 257.727 267.577 257.727L267.871 269.061L265.518 304.387C265.518 304.387 264.93 315.132 264.783 317.928C264.636 320.725 263.901 324.994 264.195 327.496C264.489 329.998 265.518 339.418 265.077 341.185C264.636 342.951 266.695 345.012 267.43 345.895C268.165 346.778 267.724 349.427 267.871 351.488C268.018 353.549 269.93 355.462 269.93 355.462C269.93 355.462 267.724 360.172 269.341 360.908C270.959 361.644 274.341 368.415 274.341 368.415C274.341 368.415 275.958 370.458 277.87 372.966C277.632 373.182 277.378 373.378 277.111 373.555C271.818 377.088 271.376 413.297 271.376 413.297L271.129 413.685L269.006 417.065L264.93 408.911C264.93 408.911 249.844 386.084 245.274 380.232L246.168 376.54L248.021 368.886L260.519 258.345L276.399 253.488L306.983 254.96L310.336 260.995Z" fill="black"/>
<path opacity="0.1" d="M298.032 400.038C297.444 410.577 286.351 415.734 281.24 416.9C280.252 414.645 279.193 412.425 279.193 412.425C279.193 412.425 285.516 396.823 293.897 398.295C295.395 398.536 296.813 399.133 298.032 400.038Z" fill="black"/>
<path d="M265.959 316.162C265.812 318.959 265.077 323.227 265.371 325.729C265.665 328.232 266.695 337.652 266.254 339.418C265.812 341.185 267.871 343.245 268.606 344.128C269.341 345.012 268.9 347.661 269.047 349.722C269.194 351.782 271.106 353.696 271.106 353.696C271.106 353.696 268.9 358.406 270.518 359.142C272.135 359.878 275.517 366.649 275.517 366.649C275.517 366.649 285.075 378.719 285.516 380.19C285.957 381.662 289.78 382.545 289.78 382.545C289.78 382.545 296.397 383.281 297.426 397.412C298.455 411.542 281.105 416.988 278.458 416.547C275.811 416.105 270.371 415.664 270.371 415.664L266.106 407.127C266.106 407.127 246.55 377.541 245.227 377.099C243.904 376.658 242.727 373.861 242.433 371.948C242.139 370.034 240.816 369.298 239.345 368.415C237.875 367.532 238.169 362.675 236.993 361.497C235.816 360.32 235.963 356.64 235.228 355.609C234.493 354.579 235.816 351.93 235.816 351.93C235.816 351.93 232.729 348.397 232.729 347.955C232.729 347.514 232.876 343.981 232.876 343.981C232.876 343.981 231.405 342.362 231.846 340.743C232.287 339.124 230.67 335.297 230.67 335.297C230.67 335.297 229.347 333.678 229.494 332.5C229.641 331.323 228.758 326.171 228.758 326.171C228.758 326.171 227.729 323.669 227.876 321.902C228.023 320.136 226.7 313.071 226.7 313.071C226.7 313.071 225.377 311.01 225.377 309.686C225.377 308.361 225.524 303.356 225.524 303.356C225.524 303.356 223.171 299.088 224.2 297.027C225.229 294.966 223.906 288.784 223.024 287.607C222.142 286.429 221.406 276.126 220.524 275.243C219.642 274.36 220.524 270.827 220.524 270.827L219.201 258.316C219.201 258.316 218.319 253.9 219.054 252.575C219.789 251.25 218.76 248.012 218.466 246.54C218.172 245.068 219.201 240.505 218.907 238.886C218.783 238.203 219.177 236.331 219.677 234.382C220.371 231.697 221.259 228.877 221.259 228.877C221.259 228.877 296.838 221.812 307.719 229.172C310.071 230.75 311.524 233.146 312.424 235.948C315.641 246.216 310.83 261.854 310.83 261.854L269.071 267.3L266.718 302.626C266.718 302.626 266.106 313.365 265.959 316.162Z" fill="#5F5D7E"/>
<path opacity="0.1" d="M253.902 368.562C253.902 368.562 266.989 364.588 270.077 367.238C273.164 369.887 253.902 368.562 253.902 368.562Z" fill="black"/>
<path opacity="0.1" d="M258.607 385.342C258.607 385.342 262.577 381.074 268.459 382.398C271.909 383.203 275.529 382.841 278.752 381.368L258.607 385.342Z" fill="black"/>
<path opacity="0.1" d="M272.429 390.199C272.429 390.199 283.163 388.728 283.604 390.052C284.045 391.377 272.429 390.199 272.429 390.199Z" fill="black"/>
<path opacity="0.1" d="M269.341 398.884C269.341 398.884 281.252 395.351 281.84 396.823C282.428 398.295 268.753 398.737 268.753 398.737L269.341 398.884Z" fill="black"/>
<path opacity="0.1" d="M282.722 319.547C282.722 319.547 271.547 329.409 273.164 330.44C274.782 331.47 282.722 319.547 282.722 319.547Z" fill="black"/>
<path opacity="0.1" d="M273.605 343.981C273.605 343.981 281.399 343.981 279.928 345.748C278.458 347.514 273.605 343.981 273.605 343.981Z" fill="black"/>
<path opacity="0.1" d="M278.311 350.899C278.311 350.899 275.223 353.549 275.958 354.138C276.693 354.726 278.311 350.899 278.311 350.899Z" fill="black"/>
<path opacity="0.1" d="M244.345 414.045C244.345 414.045 254.049 417.283 254.196 419.343C254.343 421.404 244.345 414.045 244.345 414.045Z" fill="black"/>
<path d="M291.397 106.267L288.31 124.666C288.31 124.666 261.548 138.796 261.107 138.796C260.666 138.796 241.551 135.558 240.816 135.558C240.081 135.558 227.582 97.7295 236.405 95.3744C238.792 94.7385 242.257 93.2077 246.039 91.306C256.237 86.2014 268.753 78.4473 268.753 78.4473C268.753 78.4473 287.427 76.3866 282.869 89.3395C281.105 94.4206 282.01 98.118 283.792 100.738C286.592 104.801 291.397 106.267 291.397 106.267Z" fill="#FDC2CC"/>
<path opacity="0.1" d="M291.397 106.267L288.31 124.666C288.31 124.666 261.548 138.796 261.107 138.796C260.666 138.796 241.551 135.558 240.816 135.558C240.081 135.558 227.582 97.7295 236.405 95.3744C238.792 94.7385 242.257 93.2077 246.039 91.306C248.444 91.465 250.079 91.6946 250.079 91.6946C250.079 91.6946 255.961 114.215 256.402 121.133C256.843 128.051 272.135 128.787 273.164 128.493C274.194 128.198 278.458 111.271 278.458 111.271C278.458 111.271 278.017 105.383 279.34 105.383C280.446 105.383 282.998 101.851 283.792 100.738C286.592 104.801 291.397 106.267 291.397 106.267Z" fill="black"/>
<path opacity="0.1" d="M312.4 235.948C310.354 236.949 305.46 239.234 304.166 238.892C302.549 238.451 298.579 238.451 298.579 238.451C298.579 238.451 296.226 241.1 293.726 240.511C291.227 239.923 281.375 240.364 281.375 240.364C281.375 240.364 263.73 241.1 260.348 239.923C256.966 238.745 244.909 237.715 244.909 237.715C244.909 237.715 228.441 235.801 225.647 234.624C224.859 234.28 223.994 234.153 223.141 234.256C222.288 234.36 221.477 234.69 220.795 235.213C220.795 235.213 220.283 234.877 219.654 234.388C220.348 231.703 221.236 228.883 221.236 228.883C221.236 228.883 296.814 221.818 307.695 229.178C310.048 230.75 311.524 233.146 312.4 235.948Z" fill="black"/>
<path d="M250.079 92.8721C250.079 92.8721 235.228 90.8114 229.347 94.7855C227.257 96.1673 224.893 97.0811 222.418 97.4644C219.099 97.9793 216.11 99.7628 214.078 102.44C213.702 102.946 213.337 103.287 213.025 103.323C211.702 103.47 204.35 126.285 204.35 126.285L222.142 151.16C222.142 151.16 221.701 164.996 224.2 167.645C226.7 170.295 220.671 200.616 220.671 200.616C220.671 200.616 217.73 211.067 219.054 212.686C220.377 214.305 219.054 216.366 219.054 216.366C219.054 216.366 218.76 219.015 219.495 219.015C220.23 219.015 221.112 222.401 220.377 222.548C219.642 222.695 216.26 225.492 217.436 226.081C218.613 226.669 217.436 227.994 217.436 229.319C217.436 230.644 220.818 232.851 220.818 232.851C221.501 232.329 222.311 231.999 223.164 231.895C224.018 231.792 224.883 231.919 225.671 232.263C228.464 233.44 244.933 235.354 244.933 235.354C244.933 235.354 256.99 236.384 260.372 237.562C263.754 238.739 281.399 238.003 281.399 238.003C281.399 238.003 291.25 237.562 293.75 238.15C296.25 238.739 298.602 236.09 298.602 236.09C298.602 236.09 302.572 236.09 304.19 236.531C305.807 236.973 313.306 233.146 313.306 233.146C313.306 233.146 311.395 227.553 312.277 225.492C313.159 223.431 312.571 219.457 312.571 219.457C312.571 219.457 309.042 217.396 308.895 216.513C308.748 215.63 307.278 214.452 307.719 213.275C308.16 212.097 310.66 212.686 310.365 210.037C310.071 207.387 306.984 204.591 307.278 202.971C307.572 201.352 308.748 198.409 307.278 196.642C305.807 194.876 305.219 192.079 305.072 189.871C304.925 187.664 307.278 167.645 307.278 167.645L301.837 127.315L318.453 119.072C318.453 119.072 317.717 113.332 316.688 110.241C315.659 107.15 314.188 101.704 314.188 101.704C314.188 101.704 310.807 95.0799 310.071 94.7855C309.336 94.4912 301.543 89.3395 299.779 90.0754C298.014 90.8114 284.045 101.556 284.045 101.556C284.045 101.556 280.663 106.561 279.34 106.561C278.017 106.561 278.458 112.449 278.458 112.449C278.458 112.449 274.194 129.376 273.164 129.67C272.135 129.964 256.843 129.228 256.402 122.31C255.961 115.392 250.079 92.8721 250.079 92.8721Z" fill="#D39999"/>
<path d="M227.023 179.898C224.983 180.347 222.906 180.603 220.818 180.663C217.801 180.746 215.148 180.363 214.496 179.274C212.731 176.33 212.731 170.737 212.731 170.737C212.731 170.737 220.707 172.579 226.212 174.593L227.123 174.934C229.258 175.765 230.882 176.612 231.24 177.354C231.752 178.349 229.782 179.28 227.023 179.898Z" fill="#FDC2CC"/>
<path opacity="0.1" d="M284.781 98.0238C299.642 98.0238 311.689 85.9641 311.689 71.0877C311.689 56.2113 299.642 44.1516 284.781 44.1516C269.92 44.1516 257.872 56.2113 257.872 71.0877C257.872 85.9641 269.92 98.0238 284.781 98.0238Z" fill="black"/>
<path d="M284.781 96.8463C299.642 96.8463 311.689 84.7866 311.689 69.9102C311.689 55.0338 299.642 42.9741 284.781 42.9741C269.92 42.9741 257.872 55.0338 257.872 69.9102C257.872 84.7866 269.92 96.8463 284.781 96.8463Z" fill="#FDC2CC"/>
<path opacity="0.1" d="M225.229 215.336C225.229 215.336 232.876 215.336 235.816 216.072C238.757 216.808 244.933 216.955 244.933 216.955C244.933 216.955 227.876 216.366 225.229 215.336Z" fill="black"/>
<path opacity="0.1" d="M225.524 220.046C225.524 220.046 235.375 220.782 235.522 222.254C235.669 223.726 225.524 220.046 225.524 220.046Z" fill="black"/>
<path opacity="0.1" d="M300.514 201.941C300.514 201.941 306.542 204.149 306.395 204.885C306.248 205.621 301.102 203.707 300.514 201.941Z" fill="black"/>
<path d="M208.173 123.635L204.35 126.285C204.35 126.285 202.732 135.705 202.732 137.913C202.732 140.121 200.086 156.017 200.086 156.017C200.086 156.017 199.203 158.961 199.498 160.139C199.792 161.316 198.321 167.351 198.321 167.351C198.321 167.351 193.028 179.568 193.322 180.304C193.616 181.04 218.466 183.395 218.466 183.395L221.995 150.424L208.173 123.635Z" fill="#D39999"/>
<path d="M196.998 176.33L193.322 180.304C193.322 180.304 193.175 193.257 196.851 194.582C200.527 195.906 202.879 195.318 204.056 196.348C205.232 197.378 211.555 199.292 211.555 199.292C211.555 199.292 218.466 200.322 220.524 200.028C222.583 199.733 208.467 188.4 217.73 178.832L196.998 176.33Z" fill="#D39999"/>
<path d="M313.306 113.332L318.453 119.072C318.453 119.072 320.658 132.761 320.07 134.675C319.482 136.588 323.158 169.853 323.158 169.853C323.158 169.853 326.687 184.278 318.747 186.192C318.042 186.812 317.401 187.503 316.835 188.252C316.541 188.841 310.218 187.958 310.218 187.958L300.514 124.224L313.306 113.332Z" fill="#D39999"/>
<path opacity="0.1" d="M243.315 166.026C243.315 166.026 262.578 154.546 266.106 153.957C269.635 153.368 291.544 142.917 291.544 142.917C291.544 142.917 302.425 148.511 303.455 152.779C304.484 157.048 298.896 174.122 298.896 174.122C298.896 174.122 280.957 186.633 279.928 189.283C278.899 191.932 263.46 199.733 263.46 201.058C263.46 202.383 239.051 216.808 228.317 204.149C217.583 191.491 217.73 187.811 217.73 187.811L244.933 181.482L247.579 169.706L243.315 166.026Z" fill="black"/>
<path d="M243.315 164.849C243.315 164.849 262.578 153.368 266.106 152.779C269.635 152.19 291.544 141.74 291.544 141.74C291.544 141.74 302.425 147.333 303.455 151.602C304.484 155.87 298.896 172.944 298.896 172.944C298.896 172.944 280.957 185.456 279.928 188.105C278.899 190.755 263.46 198.556 263.46 199.88C263.46 201.205 239.051 215.63 228.317 202.972C217.583 190.313 217.73 186.633 217.73 186.633L244.933 180.304L247.579 168.529L243.315 164.849Z" fill="#C4C8E2"/>
<path d="M213.613 170.001L212.731 177.36L205.738 176.848L198.909 176.342C198.909 176.342 194.939 176.342 192.44 170.454C189.94 164.566 198.027 163.683 198.468 164.566C198.804 165.232 207.291 168.005 211.408 169.318L213.613 170.001Z" fill="#FDC2CC"/>
<path opacity="0.1" d="M213.613 170.001L212.731 177.36L205.738 176.848C206.879 175.152 209.267 172.05 211.414 169.318L213.613 170.001Z" fill="black"/>
<path opacity="0.1" d="M212.731 170.737C212.731 170.737 220.707 172.579 226.212 174.593C225.847 175.182 223.412 178.997 220.818 180.663C217.801 180.746 215.148 180.363 214.496 179.274C212.731 176.33 212.731 170.737 212.731 170.737Z" fill="black"/>
<path opacity="0.1" d="M227.023 179.898L226.894 178.879C226.894 178.879 226.835 178.661 226.782 178.332C226.676 177.66 226.6 176.53 227.094 175.841C227.382 175.435 227.317 175.146 227.129 174.94C229.264 175.77 230.888 176.618 231.246 177.36C231.752 178.349 229.782 179.28 227.023 179.898Z" fill="black"/>
<path d="M251.991 175.082C251.991 175.082 244.003 183.083 243.509 184.796C243.015 186.51 227.923 186.563 227.923 186.563L226.894 178.32C226.894 178.32 226.835 178.102 226.782 177.772C226.676 177.101 226.6 175.971 227.094 175.282C227.829 174.252 226.259 173.957 226.259 173.957C226.259 173.957 222.189 180.675 218.76 180.875C218.76 180.875 214.007 184.308 214.054 184.997C214.054 184.997 211.749 187.104 211.702 189.654C211.655 192.203 208.714 193.239 206.555 192.503C204.397 191.767 199.056 190.195 197.339 190.443C195.622 190.69 190.187 192.303 190.381 187.252C190.381 187.252 197.439 181.953 199.203 182.1C200.968 182.247 205.085 180.186 205.673 178.567C206.261 176.948 216.26 164.584 216.26 164.584C216.26 164.584 222.583 158.596 225.129 158.007C225.129 158.007 230.229 154.033 237.922 160.068C237.922 160.068 248.562 166.639 248.903 167.522C249.173 168.217 252.261 171.184 252.52 173.41C252.58 173.71 252.562 174.021 252.47 174.314C252.377 174.606 252.213 174.87 251.991 175.082Z" fill="#FDC2CC"/>
<path opacity="0.1" d="M227.041 163.377C227.041 163.377 227.823 167.893 227.435 169.512C227.047 171.131 226.259 173.928 226.259 173.928C226.259 173.928 231.011 166.468 227.041 163.377Z" fill="black"/>
<path opacity="0.1" d="M227.382 174.369C227.382 174.369 229.835 171.667 230.376 172.356C230.917 173.045 227.382 174.369 227.382 174.369Z" fill="black"/>
<path d="M327.793 146.821C327.793 150.566 326.573 154.21 324.319 157.2C322.065 160.189 318.899 162.362 315.3 163.389C313.795 163.822 312.237 164.044 310.671 164.048H310.583C308.324 164.047 306.087 163.601 304 162.735C301.913 161.869 300.017 160.6 298.42 159C296.823 157.4 295.556 155.501 294.693 153.412C293.829 151.322 293.384 149.082 293.385 146.821C293.382 145.81 293.473 144.801 293.656 143.806C294.327 140.04 296.233 136.606 299.073 134.047C301.913 131.487 305.525 129.949 309.336 129.676C309.748 129.641 310.165 129.623 310.583 129.623C315.143 129.621 319.516 131.432 322.743 134.657C325.97 137.881 327.786 142.256 327.793 146.821Z" fill="#F8BDC5"/>
<path d="M336.868 144.707C337.708 145.714 338.199 146.966 338.268 148.275C336.55 148.434 334.739 148.64 333.374 149.718C332.198 150.636 331.61 152.073 331.022 153.409C330.484 154.669 329.951 155.929 329.422 157.189C328.587 159.161 327.728 161.175 326.275 162.747C325.659 163.314 325.11 163.95 324.64 164.643C324.234 165.379 324.052 166.309 323.393 166.804C323.062 167.006 322.685 167.124 322.297 167.145C321.909 167.167 321.522 167.092 321.17 166.927C320.447 166.656 319.8 166.203 319.076 165.915C318.611 165.735 318.128 165.609 317.635 165.538C315.482 165.22 313.112 165.685 311.283 164.525C311.071 164.384 310.874 164.223 310.695 164.042C309.98 163.341 309.463 162.464 309.195 161.499C309.061 161.108 309.012 160.692 309.054 160.28C309.138 159.904 309.304 159.55 309.54 159.245C309.776 158.94 310.076 158.69 310.418 158.514C310.518 158.455 310.618 158.396 310.724 158.343C312.489 157.419 314.941 157.201 315.865 155.399C316.747 153.692 315.653 151.613 314.312 150.236C313.677 149.588 312.924 148.852 313.012 147.945C313.095 147.145 313.806 146.585 314.4 146.05C316.081 144.528 317.214 142.494 317.623 140.262C317.78 139.573 317.767 138.856 317.588 138.172C317.405 137.682 317.154 137.22 316.841 136.8L314.935 133.974C314.347 132.976 313.543 132.123 312.583 131.478C311.789 131.001 310.877 130.836 310.077 130.365C309.773 130.198 309.517 129.955 309.336 129.658C309.235 129.493 309.202 129.295 309.242 129.105C309.342 128.634 309.83 128.404 310.318 128.269C311.582 127.902 312.902 127.776 314.212 127.898C314.627 127.986 315.056 127.986 315.471 127.898C315.676 127.843 315.855 127.716 315.975 127.539C316.095 127.363 316.148 127.15 316.124 126.938C317.57 126.561 318.941 127.692 320 128.752C321.058 129.811 322.352 130.971 323.846 130.671C324.381 130.565 324.875 130.259 325.416 130.2C325.958 130.141 326.628 130.494 326.593 131.042C326.558 131.589 325.875 131.943 325.934 132.473C325.969 132.656 326.052 132.827 326.175 132.967C326.854 133.903 327.66 134.739 328.569 135.452C328.569 134.41 328.569 133.362 328.569 132.32C329.745 132.614 330.175 134.121 330.039 135.34C329.904 136.559 329.451 137.789 329.734 138.979C329.769 139.182 329.851 139.375 329.974 139.541C330.096 139.708 330.256 139.844 330.439 139.938C330.742 140.02 331.06 140.02 331.363 139.938C334.062 139.555 337.215 140.274 338.556 142.647L336.203 141.793L338.938 143.288C339.313 143.461 339.646 143.712 339.915 144.024C340.045 144.183 340.122 144.379 340.134 144.584C340.147 144.789 340.095 144.993 339.985 145.166C339.533 144.862 339.018 144.663 338.479 144.583C337.939 144.504 337.389 144.546 336.868 144.707Z" fill="#585268"/>
<g opacity="0.1">
<path opacity="0.1" d="M331.686 139.803C331.989 139.885 332.307 139.885 332.61 139.803C332.874 139.767 333.139 139.744 333.409 139.726C332.821 139.689 332.23 139.707 331.645 139.779L331.686 139.803Z" fill="black"/>
<path opacity="0.1" d="M337.427 141.675L338.438 142.234L338.25 141.969L337.427 141.675Z" fill="black"/>
<path opacity="0.1" d="M329.839 135.316C329.839 134.633 329.839 133.944 329.839 133.256C329.738 132.999 329.579 132.769 329.375 132.584C329.171 132.398 328.928 132.261 328.663 132.184V134.257C329.033 134.634 329.426 134.988 329.839 135.316Z" fill="black"/>
<path opacity="0.1" d="M338.603 144.501C339.122 144.59 339.616 144.791 340.05 145.09C340.153 144.953 340.205 144.784 340.197 144.613C339.68 144.461 339.136 144.423 338.603 144.501Z" fill="black"/>
<path opacity="0.1" d="M322.47 166.839C321.746 166.568 321.099 166.115 320.376 165.826C319.911 165.647 319.428 165.521 318.935 165.45C316.782 165.132 314.412 165.597 312.583 164.437C312.371 164.296 312.174 164.134 311.995 163.954C311.28 163.253 310.763 162.376 310.495 161.411C310.36 161.019 310.312 160.603 310.354 160.192C310.438 159.815 310.604 159.462 310.84 159.157C311.075 158.851 311.375 158.602 311.718 158.426C311.818 158.367 311.918 158.308 312.024 158.255C313.818 157.33 316.241 157.113 317.165 155.311C318.047 153.604 316.953 151.525 315.612 150.147C314.977 149.5 314.224 148.764 314.312 147.857C314.394 147.056 315.106 146.497 315.7 145.961C317.381 144.439 318.514 142.405 318.923 140.174C319.079 139.484 319.067 138.767 318.888 138.084C318.705 137.593 318.453 137.131 318.141 136.712L316.235 133.886C315.647 132.888 314.843 132.035 313.883 131.389C313.089 130.912 312.177 130.748 311.377 130.277C311.073 130.11 310.817 129.866 310.636 129.57C310.535 129.404 310.501 129.206 310.542 129.017C310.642 128.546 311.159 128.316 311.618 128.181C312.386 127.965 313.175 127.835 313.971 127.792C312.781 127.722 311.588 127.853 310.442 128.181C309.983 128.316 309.466 128.546 309.366 129.017C309.325 129.206 309.359 129.404 309.46 129.57C309.641 129.866 309.896 130.11 310.201 130.277C311.001 130.748 311.912 130.912 312.706 131.389C313.667 132.035 314.471 132.888 315.059 133.886L316.965 136.712C317.277 137.131 317.529 137.593 317.712 138.084C317.891 138.767 317.903 139.484 317.747 140.174C317.338 142.405 316.205 144.439 314.524 145.961C313.936 146.497 313.218 147.056 313.136 147.857C313.047 148.764 313.8 149.5 314.436 150.147C315.777 151.525 316.87 153.604 315.988 155.311C315.065 157.107 312.642 157.325 310.848 158.255C310.742 158.308 310.642 158.367 310.542 158.426C310.199 158.602 309.899 158.851 309.663 159.157C309.427 159.462 309.262 159.815 309.177 160.192C309.136 160.603 309.184 161.019 309.319 161.411C309.586 162.376 310.104 163.253 310.818 163.954C310.998 164.134 311.195 164.296 311.406 164.437C313.236 165.614 315.606 165.132 317.759 165.45C318.251 165.521 318.735 165.647 319.2 165.826C319.923 166.115 320.57 166.568 321.293 166.839C321.819 167.055 322.398 167.104 322.952 166.98C322.788 166.945 322.627 166.898 322.47 166.839Z" fill="black"/>
<path opacity="0.1" d="M325.116 130.536C325.478 130.443 325.834 130.327 326.181 130.188C325.973 130.086 325.741 130.044 325.511 130.065C325.012 130.183 324.521 130.333 324.04 130.512C324.393 130.6 324.76 130.608 325.116 130.536Z" fill="black"/>
<path opacity="0.1" d="M315.482 127.792C315.899 127.871 316.328 127.861 316.741 127.762C316.946 127.708 317.124 127.581 317.244 127.406C317.363 127.231 317.417 127.019 317.394 126.809C317.008 126.709 316.603 126.709 316.218 126.809C316.242 127.02 316.189 127.234 316.069 127.41C315.95 127.586 315.77 127.713 315.565 127.768C315.524 127.781 315.483 127.791 315.441 127.798L315.482 127.792Z" fill="black"/>
</g>
<path d="M295.073 137.401C292.879 139.043 289.38 139.756 286.163 139.991C283.647 140.191 281.12 140.191 278.605 139.991L272.941 137.86C272.941 137.86 273.4 136.947 274.176 135.74C275.723 133.338 278.534 129.764 281.469 129.911C285.88 130.129 290.515 130.347 290.956 130.347C291.397 130.347 299.996 133.721 295.073 137.401Z" fill="#FDC2CC"/>
<path d="M280.746 19.547C276.558 19.4705 272.235 19.4234 268.394 21.0366C260.672 24.2336 257.031 32.7766 252.361 39.6652C248.488 45.3737 243.544 50.2748 237.804 54.0959C235.099 55.8622 231.958 57.8051 231.305 60.9845C230.611 64.3463 233.011 67.4609 234.246 70.6461C236.863 77.4228 234.246 84.9296 232.699 92.0302C231.975 95.4404 231.509 98.9004 231.305 102.381C231.137 103.992 231.242 105.62 231.617 107.197C232.793 111.353 237.24 114.356 237.275 118.678C237.275 121.622 235.205 124.401 235.81 127.262C236.593 130.918 241.027 132.237 244.703 132.867C245.583 133.109 246.516 133.08 247.379 132.785C247.968 132.502 248.45 131.96 249.05 131.66C251.091 130.647 253.355 132.785 255.637 132.743C258.502 132.69 260.113 129.305 260.184 126.438C260.254 123.57 259.49 120.55 260.519 117.901C261.889 114.368 265.812 112.69 269.124 110.835C272.788 108.781 276.276 105.813 277.358 101.757C278.034 99.2484 277.728 96.5931 277.458 94.0143C277.046 90.0578 276.723 86.0836 276.499 82.1153C275.911 71.9885 284.316 63.5515 294.415 64.3404H294.603C297.544 64.5818 301.014 64.8644 303.09 62.7213C303.913 61.8676 304.437 60.6901 305.442 60.1013C307.407 58.9827 310.107 60.5782 312.083 59.4772C313.63 58.6117 313.959 56.5334 313.718 54.7671C313.477 53.0008 312.859 51.2345 313.189 49.5035C313.659 47.0484 315.888 45.2938 316.717 42.9329C317.67 40.2422 316.641 37.2336 315.159 34.7961C310.412 26.9596 300.749 20.8247 291.691 20.0004C288.051 19.6471 284.398 19.6059 280.746 19.547Z" fill="#865A61"/>
<path opacity="0.1" d="M274.176 135.723C277.67 136.441 281.922 138.036 286.163 139.985C283.647 140.185 281.12 140.185 278.605 139.985L272.941 137.854C272.941 137.854 273.4 136.93 274.176 135.723Z" fill="black"/>
<path opacity="0.1" d="M317.641 165.538C315.488 165.22 313.118 165.685 311.289 164.525C311.077 164.384 310.88 164.223 310.701 164.042H310.612C308.351 164.045 306.112 163.602 304.022 162.738C301.932 161.874 300.032 160.606 298.432 159.007C296.832 157.407 295.563 155.508 294.697 153.417C293.831 151.326 293.385 149.084 293.385 146.821C293.382 145.81 293.473 144.801 293.656 143.806C299.684 147.18 304.572 150.648 305.513 152.344C306.904 154.575 308.542 156.643 310.395 158.508C312.036 160.274 313.794 161.97 315.3 163.389C316.194 164.219 317 164.955 317.641 165.538Z" fill="black"/>
<path d="M318.6 167.498C318.6 167.498 307.866 158.225 304.925 152.926C301.984 147.627 260.666 125.107 265.959 142.181C271.253 159.256 289.486 160.875 289.486 160.875C289.486 160.875 295.367 167.498 295.956 170.737C296.544 173.975 298.602 178.685 298.602 178.685L308.454 183.101L313.012 182.07C313.012 182.07 323.746 176.183 318.6 167.498Z" fill="#FDC2CC"/>
<path opacity="0.1" d="M298.014 178.096C298.014 178.096 315.365 187.958 317.129 164.849L321.54 166.321L317.129 181.923L309.63 187.369C309.63 187.369 299.19 182.512 298.014 178.096Z" fill="black"/>
<path d="M298.602 178.685C298.602 178.685 315.953 188.547 317.717 165.438L322.129 166.91L317.717 182.512L310.218 187.958C310.218 187.958 299.779 183.101 298.602 178.685Z" fill="#D39999"/>
<path d="M313.924 61.5791C314.124 59.5125 314.965 57.5637 315.406 55.5325C315.841 53.5675 315.901 51.5379 315.582 49.5506C315.404 48.1152 314.87 46.7471 314.03 45.5705C313.441 44.8346 311.677 43.2155 310.648 43.9455C310.06 44.3636 309.901 46.7834 309.665 47.4781C308.84 49.8116 307.734 52.0359 306.372 54.1018C309.28 58.1196 311.024 62.8637 311.409 67.8105C311.794 72.7574 310.807 77.7146 308.556 82.1352C306.304 86.5558 302.877 90.2679 298.651 92.8618C294.426 95.4556 289.567 96.8304 284.61 96.8345C283.969 96.8345 283.334 96.805 282.704 96.7579C282.116 97.7824 281.581 98.8186 281.04 99.8549C280.401 100.907 279.97 102.072 279.769 103.287C279.72 104.449 279.898 105.609 280.293 106.702C281.388 110.299 282.9 113.755 284.798 117C285.46 118.007 286.003 119.088 286.416 120.22C286.751 121.31 286.81 122.475 287.245 123.523C288.221 125.878 290.774 127.056 293.126 128.039C294.532 128.628 296.003 129.217 297.52 129.093C297.662 129.104 297.805 129.085 297.939 129.037C298.074 128.989 298.197 128.914 298.3 128.815C298.404 128.717 298.486 128.599 298.541 128.467C298.596 128.335 298.623 128.194 298.62 128.051C298.701 127.434 298.638 126.806 298.433 126.218C298.229 125.631 297.89 125.099 297.444 124.666C299.439 125.292 301.533 125.541 303.619 125.401C303.806 125.44 304 125.425 304.178 125.357C304.356 125.288 304.511 125.17 304.624 125.016C304.737 124.862 304.803 124.679 304.814 124.488C304.826 124.298 304.783 124.108 304.69 123.941C304.148 121.721 303.322 119.579 302.231 117.571C301.161 115.593 299.796 113.291 300.773 111.271C301.331 110.094 302.508 109.434 303.578 108.733C307.195 106.378 310.401 102.54 310.118 98.224C309.965 95.8689 308.777 93.6257 308.707 91.253C308.524 85.4654 314.747 81.3264 315.688 75.6094C316.435 70.9346 313.471 66.3069 313.924 61.5791Z" fill="#865A61"/>
<g opacity="0.1">
<path opacity="0.1" d="M236.957 116.323C236.922 112.001 232.481 108.998 231.299 104.842C231.117 104.186 231.005 103.513 230.964 102.834C230.833 104.297 230.946 105.771 231.299 107.197C232.382 110.994 236.169 113.832 236.846 117.594C236.921 117.175 236.959 116.749 236.957 116.323Z" fill="black"/>
<path opacity="0.1" d="M255.32 130.388C253.038 130.43 250.773 128.292 248.732 129.305C248.144 129.605 247.674 130.147 247.062 130.43C246.198 130.725 245.266 130.754 244.386 130.512C240.722 129.882 236.299 128.569 235.505 124.942C235.355 125.708 235.355 126.496 235.505 127.262C236.287 130.918 240.722 132.237 244.398 132.867C245.278 133.109 246.21 133.08 247.074 132.785C247.662 132.502 248.144 131.96 248.744 131.66C250.785 130.647 253.049 132.785 255.331 132.743C258.196 132.69 259.807 129.305 259.878 126.438C259.878 125.849 259.878 125.26 259.837 124.671C259.537 127.391 257.984 130.335 255.32 130.388Z" fill="black"/>
<path opacity="0.1" d="M277.052 99.3956C275.958 103.452 272.47 106.42 268.818 108.474C265.507 110.335 261.584 112.007 260.213 115.54C259.709 117.065 259.536 118.681 259.707 120.279C259.758 119.464 259.929 118.66 260.213 117.895C261.584 114.362 265.507 112.684 268.818 110.829C272.482 108.775 275.97 105.807 277.052 101.751C277.425 100.21 277.551 98.6203 277.423 97.0405C277.377 97.8358 277.253 98.6247 277.052 99.3956Z" fill="black"/>
<path opacity="0.1" d="M309.254 57.5049C307.836 57.3989 306.36 57.0692 305.137 57.7522C304.107 58.341 303.584 59.5185 302.784 60.3722C300.708 62.5153 297.267 62.2327 294.297 61.9913H294.109C284.01 61.2024 275.617 69.6453 276.193 79.7662C276.193 79.8427 276.193 79.9251 276.193 80.0017C276.334 77.794 276.909 75.6359 277.887 73.6519C278.864 71.668 280.224 69.8973 281.888 68.4419C283.553 66.9866 285.488 65.8755 287.584 65.1726C289.679 64.4696 291.893 64.1888 294.097 64.3464H294.285C297.226 64.5878 300.696 64.8704 302.772 62.7273C303.596 61.8736 304.119 60.696 305.125 60.1073C306.301 59.4243 307.801 59.754 309.242 59.86C310.373 62.6745 311.02 65.6606 311.154 68.6915C311.154 68.3088 311.183 67.9261 311.183 67.5139C311.183 64.085 310.528 60.6876 309.254 57.5049Z" fill="black"/>
<path opacity="0.1" d="M235.028 75.839C235.205 73.279 234.838 70.7107 233.952 68.3028C233.023 65.8947 231.429 63.5338 231.011 61.0786C230.37 64.4051 232.74 67.4844 233.952 70.6579C234.58 72.3175 234.944 74.0661 235.028 75.839Z" fill="black"/>
<path opacity="0.1" d="M315.441 50.9225C315.388 51.6813 315.278 52.435 315.112 53.1775C314.671 55.2087 313.83 57.1575 313.63 59.2241C313.559 59.9603 313.559 60.7016 313.63 61.4379C313.853 59.4243 314.659 57.5167 315.094 55.5502C315.435 54.0328 315.552 52.4737 315.441 50.9225Z" fill="black"/>
<path opacity="0.1" d="M315.371 73.2661C314.43 78.9831 308.207 83.1221 308.389 88.9097C308.399 89.2231 308.426 89.5356 308.472 89.8458C309.213 84.7765 314.512 80.8612 315.371 75.6212C315.517 74.6722 315.536 73.7081 315.43 72.7539C315.412 72.9246 315.412 73.0954 315.371 73.2661Z" fill="black"/>
<path opacity="0.1" d="M316.441 40.566C315.886 41.8276 315.174 43.0144 314.324 44.0986C314.568 44.5728 314.765 45.0697 314.912 45.5823C315.532 44.7562 316.041 43.8514 316.424 42.8917C316.792 41.7928 316.885 40.6201 316.694 39.4768C316.643 39.8467 316.558 40.2113 316.441 40.566Z" fill="black"/>
<path opacity="0.1" d="M309.73 97.594C309.207 101.197 306.39 104.335 303.261 106.39C302.19 107.091 301.014 107.774 300.455 108.928C300.068 109.796 300.012 110.776 300.296 111.683C300.338 111.546 300.391 111.412 300.455 111.283C301.014 110.105 302.19 109.446 303.261 108.745C306.878 106.39 310.083 102.551 309.801 98.2357C309.789 98.0179 309.76 97.806 309.73 97.594Z" fill="black"/>
<path opacity="0.1" d="M297.967 126.491C297.749 126.657 297.483 126.748 297.208 126.75C295.691 126.879 294.22 126.285 292.815 125.696C290.462 124.718 287.898 123.529 286.933 121.18C286.498 120.132 286.439 118.966 286.104 117.877C285.691 116.744 285.148 115.664 284.486 114.656C282.588 111.412 281.076 107.956 279.981 104.359C279.81 103.815 279.669 103.263 279.558 102.704C279.516 102.899 279.481 103.099 279.458 103.293C279.409 104.455 279.586 105.615 279.981 106.708C281.076 110.305 282.588 113.761 284.486 117.006C285.148 118.013 285.691 119.094 286.104 120.226C286.439 121.315 286.498 122.481 286.933 123.529C287.91 125.884 290.462 127.062 292.815 128.045C294.22 128.634 295.691 129.223 297.208 129.099C297.35 129.11 297.493 129.09 297.628 129.043C297.762 128.995 297.885 128.919 297.988 128.821C298.092 128.723 298.174 128.605 298.229 128.473C298.284 128.341 298.311 128.199 298.308 128.057C298.386 127.462 298.325 126.858 298.132 126.29C298.09 126.367 298.034 126.435 297.967 126.491Z" fill="black"/>
<path opacity="0.1" d="M304.072 122.876C303.831 122.991 303.569 123.053 303.302 123.058C301.215 123.198 299.121 122.948 297.126 122.322C297.855 123.028 298.286 123.987 298.332 125.001C299.959 125.385 301.634 125.524 303.302 125.413C303.488 125.452 303.682 125.437 303.86 125.368C304.039 125.3 304.193 125.182 304.306 125.028C304.419 124.874 304.485 124.691 304.497 124.5C304.509 124.31 304.465 124.12 304.372 123.953C304.284 123.588 304.178 123.229 304.072 122.876Z" fill="black"/>
</g>
<path opacity="0.1" d="M221.995 135.852C221.995 135.852 221.406 147.922 223.171 148.805C224.935 149.688 221.995 135.852 221.995 135.852Z" fill="black"/>
<path opacity="0.1" d="M255.373 167.646C255.961 167.646 258.313 168.823 258.607 170.148C258.902 171.473 255.373 167.646 255.373 167.646Z" fill="black"/>
<path opacity="0.1" d="M253.902 169.559C254.49 169.559 256.843 170.736 257.137 172.061C257.431 173.386 253.902 169.559 253.902 169.559Z" fill="black"/>
<path opacity="0.1" d="M259.343 174.858C259.931 174.858 262.283 176.035 262.578 177.36C262.872 178.685 259.343 174.858 259.343 174.858Z" fill="black"/>
<path opacity="0.1" d="M251.991 175.082C251.991 175.082 244.004 183.083 243.509 184.796C243.015 186.51 227.923 186.563 227.923 186.563L226.894 178.32C226.894 178.32 226.835 178.102 226.782 177.772C230.952 176.701 244.474 171.702 252.52 173.474C252.569 173.765 252.546 174.063 252.453 174.343C252.361 174.623 252.202 174.877 251.991 175.082Z" fill="black"/>
<path d="M215.619 185.208C215.619 185.208 223.318 178.391 225.671 178.538C228.023 178.685 256.696 166.468 258.607 180.157C260.519 193.846 221.995 194.582 221.995 194.582L216.113 196.79C216.113 196.79 211.208 186.092 215.619 185.208Z" fill="#FDC2CC"/>
<path d="M213.366 186.192C213.366 186.192 216.895 181.287 217.972 187.269C219.048 193.251 220.671 200.617 220.671 200.617L212.778 196.689L213.366 186.192Z" fill="#D39999"/>
<path opacity="0.1" d="M540.153 395.275C554.702 395.275 566.497 393.464 566.497 391.23C566.497 388.996 554.702 387.185 540.153 387.185C525.604 387.185 513.81 388.996 513.81 391.23C513.81 393.464 525.604 395.275 540.153 395.275Z" fill="#0007FF"/>
<path opacity="0.1" d="M465.792 470.584C488.53 470.584 506.963 467.753 506.963 464.261C506.963 460.768 488.53 457.937 465.792 457.937C443.054 457.937 424.621 460.768 424.621 464.261C424.621 467.753 443.054 470.584 465.792 470.584Z" fill="#0007FF"/>
<path opacity="0.1" d="M577.542 495C607.618 495 632 491.254 632 486.634C632 482.013 607.618 478.267 577.542 478.267C547.466 478.267 523.085 482.013 523.085 486.634C523.085 491.254 547.466 495 577.542 495Z" fill="#0007FF"/>
<path opacity="0.1" d="M41.1711 405.825C63.9093 405.825 82.3422 402.994 82.3422 399.502C82.3422 396.01 63.9093 393.179 41.1711 393.179C18.4329 393.179 0 396.01 0 399.502C0 402.994 18.4329 405.825 41.1711 405.825Z" fill="#0007FF"/>
<path d="M519.379 352.424C519.379 352.424 515.656 369.793 532.231 371.854L533.26 369.922C533.26 369.922 520.409 357.829 519.379 352.424Z" fill="#0007FF"/>
<path d="M538.53 369.787L534.677 370.605L534.289 370.694C534.289 370.694 524.008 362.333 524.138 343.675C525.515 346.425 527.16 349.032 529.049 351.459C533.125 356.852 537.736 364.076 538.53 369.787Z" fill="#0007FF"/>
<path d="M539.836 371.577C539.532 371.775 539.188 371.903 538.828 371.949C538.469 371.996 538.103 371.962 537.759 371.848C527.861 369.534 531.207 337.246 531.207 337.246C531.754 337.505 532.384 341.608 534.63 346.913C538.624 356.228 543.029 369.239 539.836 371.577Z" fill="#0007FF"/>
<path d="M561.786 352.424C561.786 352.424 562.433 369.793 545.852 371.854L544.823 369.922C544.823 369.922 560.762 357.829 561.786 352.424Z" fill="#0007FF"/>
<path d="M557.033 343.675C557.157 362.333 543.8 370.694 543.8 370.694L543.412 370.605L539.559 369.787C540.318 364.058 544.964 356.834 549.034 351.459C551.34 348.517 554.031 345.899 557.033 343.675Z" fill="#0007FF"/>
<path d="M543.353 369.887C542.757 370.612 542.002 371.19 541.147 371.577C540.889 371.696 540.619 371.787 540.341 371.848C537.9 372.436 537.054 370.67 537.195 367.673C537.424 362.374 540.765 353.131 543.764 346.23C545.923 341.261 549.452 337.493 549.975 337.246C549.964 337.246 549.817 362.386 543.353 369.887Z" fill="#0007FF"/>
<path d="M540.583 325.924C540.583 325.924 529.531 365.159 539.042 371.076C548.552 376.993 543.029 329.398 540.583 325.924Z" fill="#0007FF"/>
<path opacity="0.1" d="M519.379 352.424C519.379 352.424 515.656 369.793 532.231 371.854L533.26 369.922C533.26 369.922 520.409 357.829 519.379 352.424Z" fill="black"/>
<path opacity="0.1" d="M538.53 369.787L534.677 370.605L534.289 370.694C534.289 370.694 524.008 362.333 524.138 343.675C525.515 346.425 527.16 349.032 529.049 351.459C533.125 356.852 537.736 364.076 538.53 369.787Z" fill="black"/>
<path opacity="0.1" d="M539.836 371.577C539.532 371.775 539.188 371.903 538.828 371.949C538.469 371.996 538.103 371.962 537.759 371.848C527.861 369.534 531.207 337.246 531.207 337.246C531.754 337.505 532.384 341.608 534.63 346.913C538.624 356.228 543.029 369.239 539.836 371.577Z" fill="black"/>
<path opacity="0.1" d="M561.786 352.424C561.786 352.424 562.433 369.793 545.852 371.854L544.823 369.922C544.823 369.922 560.762 357.829 561.786 352.424Z" fill="black"/>
<path opacity="0.1" d="M557.033 343.675C557.157 362.333 543.8 370.694 543.8 370.694L543.412 370.605L539.559 369.787C540.318 364.058 544.964 356.834 549.034 351.459C551.34 348.517 554.031 345.899 557.033 343.675Z" fill="black"/>
<path opacity="0.1" d="M543.353 369.887C542.757 370.612 542.002 371.19 541.147 371.577C540.889 371.696 540.619 371.787 540.341 371.848C537.9 372.436 537.054 370.67 537.195 367.673C537.424 362.374 540.765 353.131 543.764 346.23C545.923 341.261 549.452 337.493 549.975 337.246C549.964 337.246 549.817 362.386 543.353 369.887Z" fill="black"/>
<path opacity="0.1" d="M540.583 325.924C540.583 325.924 529.531 365.159 539.042 371.076C548.552 376.993 543.029 329.398 540.583 325.924Z" fill="black"/>
<path d="M519.379 352.424C519.379 352.424 517.197 369.793 533.772 371.854L534.801 369.922C534.801 369.922 520.409 357.829 519.379 352.424Z" fill="#0007FF"/>
<path d="M540.088 369.787L536.236 370.605L535.848 370.694C535.848 370.694 524.026 362.333 524.155 343.675C524.155 343.675 527.184 346.925 530.625 351.459C534.671 356.852 539.3 364.076 540.088 369.787Z" fill="#0007FF"/>
<path opacity="0.1" d="M540.088 369.787L536.236 370.605C532.584 367.397 531.131 359.012 530.607 351.459C534.671 356.852 539.3 364.076 540.088 369.787Z" fill="black"/>
<path d="M541.376 371.577C541.073 371.775 540.729 371.903 540.369 371.949C540.01 371.996 539.644 371.962 539.3 371.848C529.402 369.534 531.207 337.246 531.207 337.246C531.754 337.505 533.895 341.608 536.171 346.913C540.165 356.228 544.553 369.239 541.376 371.577Z" fill="#0007FF"/>
<path d="M561.786 352.424C561.786 352.424 563.974 369.793 547.393 371.854L546.37 369.922C546.37 369.922 560.762 357.829 561.786 352.424Z" fill="#0007FF"/>
<path d="M557.033 343.675C557.157 362.333 545.341 370.694 545.341 370.694L544.953 370.605L541.1 369.787C541.865 364.058 546.505 356.834 550.575 351.459C554.004 346.925 557.033 343.675 557.033 343.675Z" fill="#0007FF"/>
<path opacity="0.1" d="M550.575 351.459C550.081 358.524 548.811 366.26 545.664 369.887C545.448 370.146 545.21 370.387 544.953 370.605L541.1 369.787C541.853 364.076 546.505 356.852 550.575 351.459Z" fill="black"/>
<path d="M544.894 369.887C544.299 370.613 543.544 371.192 542.688 371.577C542.428 371.695 542.156 371.786 541.876 371.848C539.441 372.436 538.589 370.67 538.73 367.673C538.959 362.374 542.3 353.131 545.299 346.23C547.458 341.261 549.417 337.493 549.969 337.246C549.964 337.246 551.363 362.386 544.894 369.887Z" fill="#0007FF"/>
<path opacity="0.1" d="M541.376 371.577C540.816 371.576 540.269 371.401 539.812 371.076C535.154 368.174 535.06 357.276 536.171 346.937C540.165 356.228 544.553 369.239 541.376 371.577Z" fill="black"/>
<path opacity="0.1" d="M544.894 369.887C544.358 371.065 543.635 371.653 542.688 371.577C542.212 371.516 541.757 371.344 541.359 371.076C540.15 370.243 539.231 369.054 538.73 367.673C538.959 362.374 542.3 353.131 545.3 346.23C546.364 355.833 546.717 365.96 544.894 369.887Z" fill="black"/>
<path d="M540.582 325.924C540.582 325.924 531.078 365.159 540.582 371.076C550.087 376.993 543.029 329.398 540.582 325.924Z" fill="#0007FF"/>
<path d="M558.833 369.151H519.256V375.71H525.29L525.443 376.481L527.861 389.216H550.869L553.287 376.481L553.434 375.71H558.833V369.151Z" fill="#4B4770"/>
<path opacity="0.1" d="M558.833 369.151H519.256V375.71H525.29L525.443 376.481L527.861 389.216H550.869L553.287 376.481L553.434 375.71H558.833V369.151Z" fill="black"/>
<path d="M555.492 373.007L554.834 376.481L552.41 389.216H529.402L526.984 376.481L526.32 373.007H555.492Z" fill="#4B4770"/>
<path opacity="0.1" d="M555.492 373.007L554.834 376.481H526.984L526.32 373.007H555.492Z" fill="black"/>
<path d="M560.374 369.151H520.797V375.71H560.374V369.151Z" fill="#4B4770"/>
<path d="M64.1975 330.392C63.6333 331.167 63.1818 332.017 62.8565 332.918C62.7742 333.136 62.6918 333.389 62.6095 333.631C62.4611 333.56 62.3053 333.507 62.1449 333.472C61.4595 333.297 60.7503 333.235 60.0451 333.289C60.0451 333.018 60.0804 332.7 60.0863 332.424C60.1745 329.321 59.8099 324.999 56.8514 326.83C54.0165 328.597 56.0398 331.541 57.8689 333.425C58.0277 333.59 58.1866 333.743 58.3395 333.89C56.6691 335.067 56.3515 337.852 56.0751 340.743C55.7986 343.634 53.346 346.796 51.7168 348.597C51.5521 348.78 51.4051 348.945 51.258 349.098C50.6039 348.574 49.8465 348.195 49.0356 347.985C48.2247 347.774 47.3786 347.738 46.5528 347.879C46.4881 347.626 46.4175 347.361 46.3352 347.078C44.9883 342.291 42.2592 334.049 38.7656 332.282C38.9126 332.1 39.0655 331.912 39.2243 331.694C40.7065 329.751 42.3768 326.866 39.9125 326.13C37.4481 325.394 37.2246 328.632 37.3599 331.058C37.3599 331.358 37.4069 331.647 37.4304 331.917C36.9397 331.94 36.4587 332.062 36.0168 332.276C35.5748 332.491 35.1813 332.793 34.8602 333.166L34.4779 332.712C32.4781 330.357 28.8139 326.613 27.7023 329.445C26.673 332.076 29.8961 335.503 32.1664 337.487L32.3076 337.611C30.7842 343.805 37.4363 348.85 41.0182 351.052L41.4828 351.341C36.5423 357.164 33.4898 368.091 33.4898 368.091L47.3291 370.564C47.3291 370.564 56.4985 362.639 55.3222 355.203H55.4163C64.5857 353.36 66.6678 343.575 65.2445 337.77L65.4033 337.699C67.0725 337.016 68.5358 335.91 69.6498 334.49C72.2083 330.917 66.8325 326.889 64.1975 330.392Z" fill="#0007FF"/>
<path opacity="0.1" d="M64.1975 330.392C63.6333 331.167 63.1818 332.017 62.8565 332.918C62.7742 333.136 62.6918 333.389 62.6095 333.631C62.4611 333.56 62.3053 333.507 62.1449 333.472C61.4595 333.297 60.7503 333.235 60.0451 333.289C60.0451 333.018 60.0804 332.7 60.0863 332.424C60.1745 329.321 59.8099 324.999 56.8514 326.83C54.0165 328.597 56.0398 331.541 57.8689 333.425C58.0277 333.59 58.1866 333.743 58.3395 333.89C56.6691 335.067 56.3515 337.852 56.0751 340.743C55.7986 343.634 53.346 346.796 51.7168 348.597C51.5521 348.78 51.4051 348.945 51.258 349.098C50.6039 348.574 49.8465 348.195 49.0356 347.985C48.2247 347.774 47.3786 347.738 46.5528 347.879C46.4881 347.626 46.4175 347.361 46.3352 347.078C44.9883 342.291 42.2592 334.049 38.7656 332.282C38.9126 332.1 39.0655 331.912 39.2243 331.694C40.7065 329.751 42.3768 326.866 39.9125 326.13C37.4481 325.394 37.2246 328.632 37.3599 331.058C37.3599 331.358 37.4069 331.647 37.4304 331.917C36.9397 331.94 36.4587 332.062 36.0168 332.276C35.5748 332.491 35.1813 332.793 34.8602 333.166L34.4779 332.712C32.4781 330.357 28.8139 326.613 27.7023 329.445C26.673 332.076 29.8961 335.503 32.1664 337.487L32.3076 337.611C30.7842 343.805 37.4363 348.85 41.0182 351.052L41.4828 351.341C36.5423 357.164 33.4898 368.091 33.4898 368.091L47.3291 370.564C47.3291 370.564 56.4985 362.639 55.3222 355.203H55.4163C64.5857 353.36 66.6678 343.575 65.2445 337.77L65.4033 337.699C67.0725 337.016 68.5358 335.91 69.6498 334.49C72.2083 330.917 66.8325 326.889 64.1975 330.392Z" fill="black"/>
<path d="M36.6599 334.384L35.0425 339.095C35.0425 339.095 34.1426 338.459 33.0075 337.458C30.7372 335.474 27.5141 332.047 28.5434 329.415C29.655 326.583 33.3192 330.322 35.3189 332.683C36.1247 333.654 36.6599 334.384 36.6599 334.384Z" fill="#0007FF"/>
<path d="M40.0712 331.694C39.579 332.339 39.0528 332.959 38.4949 333.548C38.3571 332.724 38.2609 331.892 38.2067 331.058C38.0715 328.632 38.3303 325.412 40.7593 326.13C43.1884 326.848 41.5534 329.739 40.0712 331.694Z" fill="#0007FF"/>
<path d="M60.9333 332.424C60.8862 333.984 60.7333 335.232 60.7333 335.232C60.0201 334.677 59.346 334.073 58.7159 333.425C56.8867 331.529 54.8635 328.597 57.6984 326.83C60.6568 324.999 61.0215 329.339 60.9333 332.424Z" fill="#0007FF"/>
<path d="M70.4908 334.473C69.3768 335.892 67.9135 336.998 66.2443 337.681C65.7818 337.886 65.3063 338.059 64.8209 338.2L62.9153 335.521C63.117 334.636 63.3804 333.766 63.7034 332.918C64.0286 332.017 64.4802 331.167 65.0444 330.393C67.6794 326.889 73.0551 330.917 70.4908 334.473Z" fill="#0007FF"/>
<path opacity="0.1" d="M35.3189 332.712C36.1247 333.654 36.6599 334.384 36.6599 334.384L35.0425 339.095C35.0425 339.095 34.1426 338.459 33.0074 337.458C33.2597 335.94 33.8864 334.509 34.8307 333.295C34.9895 333.107 35.1601 332.901 35.3189 332.712Z" fill="black"/>
<path opacity="0.1" d="M40.0712 331.694C39.5791 332.339 39.0529 332.959 38.495 333.548C38.3571 332.724 38.2609 331.892 38.2068 331.058C38.8795 331.069 39.5316 331.292 40.0712 331.694Z" fill="black"/>
<path d="M48.029 350.493L44.0001 352.259C44.0001 352.259 43.1237 351.835 41.8592 351.046C37.6303 348.444 29.1315 341.891 34.8013 334.167C40.4712 326.442 45.2529 340.296 47.1526 347.072C47.7232 349.104 48.029 350.493 48.029 350.493Z" fill="#0007FF"/>
<path opacity="0.1" d="M58.7158 333.425C59.3017 332.822 60.0941 332.464 60.9332 332.424C60.8861 333.984 60.7332 335.232 60.7332 335.232C60.02 334.677 59.346 334.073 58.7158 333.425Z" fill="black"/>
<path opacity="0.1" d="M66.2443 337.681C65.7818 337.886 65.3063 338.059 64.8209 338.2L62.9153 335.521C63.117 334.636 63.3804 333.766 63.7034 332.918C64.9327 333.637 65.8384 335.426 66.2443 337.681Z" fill="black"/>
<path d="M56.2574 355.186L55.581 355.303C42.0946 357.352 51.1345 350.069 51.1345 350.069C51.1345 350.069 51.7227 349.48 52.5638 348.597C54.193 346.796 56.6397 343.652 56.922 340.743C57.3455 336.368 57.8337 332.265 62.9918 333.472C68.0559 334.637 69.0263 352.624 56.2574 355.186Z" fill="#0007FF"/>
<path d="M56.0044 388.798H30.2372V395.581H56.0044V388.798Z" fill="#D4DFEC"/>
<path d="M59.8099 366.749H26.1437V390.417H59.8099V366.749Z" fill="#D4DFEC"/>
<path opacity="0.1" d="M56.0044 388.798H30.2372V395.581H56.0044V388.798Z" fill="black"/>
<path opacity="0.1" d="M59.8099 366.749H26.1437V390.417H59.8099V366.749Z" fill="black"/>
<path d="M57.6984 388.798H31.9312V395.581H57.6984V388.798Z" fill="#D4DFEC"/>
<path opacity="0.1" d="M47.1527 347.078C47.7408 349.103 48.029 350.493 48.029 350.493L44.0002 352.259C44.0002 352.259 43.1238 351.835 41.8593 351.046C43.4355 349.056 45.2118 347.543 47.1527 347.078Z" fill="black"/>
<path opacity="0.1" d="M56.2574 355.185L55.581 355.303C42.0945 357.352 51.1346 350.069 51.1346 350.069C51.1346 350.069 51.7227 349.48 52.5638 348.597C55.0811 350.611 56.1221 352.889 56.2574 355.185Z" fill="black"/>
<path d="M34.3308 368.091C34.3308 368.091 41.8828 341.008 52.4755 349.368C63.0682 357.729 48.1702 370.564 48.1702 370.564L34.3308 368.091Z" fill="#0007FF"/>
<path opacity="0.1" d="M38.1421 339.265C38.6099 339.265 38.9891 338.886 38.9891 338.417C38.9891 337.949 38.6099 337.57 38.1421 337.57C37.6744 337.57 37.2952 337.949 37.2952 338.417C37.2952 338.886 37.6744 339.265 38.1421 339.265Z" fill="black"/>
<path opacity="0.1" d="M38.0716 343.222C38.5393 343.222 38.9185 342.842 38.9185 342.374C38.9185 341.906 38.5393 341.526 38.0716 341.526C37.6038 341.526 37.2246 341.906 37.2246 342.374C37.2246 342.842 37.6038 343.222 38.0716 343.222Z" fill="black"/>
<path opacity="0.1" d="M62.6389 340.042C63.1067 340.042 63.4859 339.663 63.4859 339.195C63.4859 338.726 63.1067 338.347 62.6389 338.347C62.1712 338.347 61.792 338.726 61.792 339.195C61.792 339.663 62.1712 340.042 62.6389 340.042Z" fill="black"/>
<path opacity="0.1" d="M42.8709 360.32C43.3386 360.32 43.7178 359.94 43.7178 359.472C43.7178 359.003 43.3386 358.624 42.8709 358.624C42.4031 358.624 42.0239 359.003 42.0239 359.472C42.0239 359.94 42.4031 360.32 42.8709 360.32Z" fill="black"/>
<path opacity="0.1" d="M60.8744 346.613C61.3422 346.613 61.7214 346.234 61.7214 345.765C61.7214 345.297 61.3422 344.917 60.8744 344.917C60.4067 344.917 60.0275 345.297 60.0275 345.765C60.0275 346.234 60.4067 346.613 60.8744 346.613Z" fill="black"/>
<path opacity="0.1" d="M52.1226 355.374C52.5903 355.374 52.9695 354.994 52.9695 354.526C52.9695 354.058 52.5903 353.678 52.1226 353.678C51.6548 353.678 51.2756 354.058 51.2756 354.526C51.2756 354.994 51.6548 355.374 52.1226 355.374Z" fill="black"/>
<path opacity="0.1" d="M41.0358 340.961C41.5035 340.961 41.8827 340.581 41.8827 340.113C41.8827 339.645 41.5035 339.265 41.0358 339.265C40.568 339.265 40.1888 339.645 40.1888 340.113C40.1888 340.581 40.568 340.961 41.0358 340.961Z" fill="black"/>
<path opacity="0.1" d="M60.3098 342.586C60.7776 342.586 61.1568 342.206 61.1568 341.738C61.1568 341.27 60.7776 340.89 60.3098 340.89C59.8421 340.89 59.4629 341.27 59.4629 341.738C59.4629 342.206 59.8421 342.586 60.3098 342.586Z" fill="black"/>
<path opacity="0.1" d="M57.416 349.157C57.8838 349.157 58.263 348.777 58.263 348.309C58.263 347.841 57.8838 347.461 57.416 347.461C56.9483 347.461 56.5691 347.841 56.5691 348.309C56.5691 348.777 56.9483 349.157 57.416 349.157Z" fill="black"/>
<path opacity="0.1" d="M48.5231 359.684C48.9909 359.684 49.37 359.304 49.37 358.836C49.37 358.368 48.9909 357.988 48.5231 357.988C48.0553 357.988 47.6761 358.368 47.6761 358.836C47.6761 359.304 48.0553 359.684 48.5231 359.684Z" fill="black"/>
<path opacity="0.1" d="M46.688 355.515C47.1558 355.515 47.535 355.136 47.535 354.667C47.535 354.199 47.1558 353.82 46.688 353.82C46.2203 353.82 45.8411 354.199 45.8411 354.667C45.8411 355.136 46.2203 355.515 46.688 355.515Z" fill="black"/>
<path opacity="0.1" d="M42.3063 346.118C42.7741 346.118 43.1533 345.739 43.1533 345.271C43.1533 344.802 42.7741 344.423 42.3063 344.423C41.8385 344.423 41.4594 344.802 41.4594 345.271C41.4594 345.739 41.8385 346.118 42.3063 346.118Z" fill="black"/>
<path opacity="0.1" d="M57.6984 388.798H31.9312V391.277H57.6984V388.798Z" fill="black"/>
<path d="M61.5037 366.749H27.8375V390.417H61.5037V366.749Z" fill="#D4DFEC"/>
<path opacity="0.1" d="M49.6524 363.499C50.1201 363.499 50.4993 363.119 50.4993 362.651C50.4993 362.183 50.1201 361.803 49.6524 361.803C49.1846 361.803 48.8054 362.183 48.8054 362.651C48.8054 363.119 49.1846 363.499 49.6524 363.499Z" fill="black"/>
<path opacity="0.1" d="M44.5707 364.559C45.0385 364.559 45.4177 364.179 45.4177 363.711C45.4177 363.243 45.0385 362.863 44.5707 362.863C44.1029 362.863 43.7238 363.243 43.7238 363.711C43.7238 364.179 44.1029 364.559 44.5707 364.559Z" fill="black"/>
</g>
<defs>
<linearGradient id="paint0_linear_7_408" x1="265.224" y1="478.956" x2="265.224" y2="15.5964" gradientUnits="userSpaceOnUse">
<stop stop-color="#808080" stop-opacity="0.25"/>
<stop offset="0.54" stop-color="#808080" stop-opacity="0.12"/>
<stop offset="1" stop-color="#808080" stop-opacity="0.1"/>
</linearGradient>
<clipPath id="clip0_7_408">
<rect width="632" height="495" fill="white"/>
</clipPath>
</defs>
</svg>
